<ttFont>
<head>
    <!-- Most of this table will be recalculated by the compiler -->
    <tableVersion value="1.0"/>
    <fontRevision value="2.538"/>
    <checkSumAdjustment value="0xb8d0fe42"/>
    <magicNumber value="0x5f0f3cf5"/>
    <flags value="00000000 00001111"/>
    <unitsPerEm value="1000"/>
    <created value="Thu May 18 16:23:05 2017"/>
    <modified value="Thu May 18 10:53:08 2017"/>
    <xMin value="-162"/>
    <yMin value="-351"/>
    <xMax value="2185"/>
    <yMax value="935"/>
    <macStyle value="00000000 00000000"/>
    <lowestRecPPEM value="9"/>
    <fontDirectionHint value="2"/>
    <indexToLocFormat value="1"/>
    <glyphDataFormat value="0"/>
  </head>
    <TTGlyph name=".notdef" xMin="0" yMin="0" xMax="500" yMax="700">
      <contour>
        <pt x="0" y="700" on="1"/>
        <pt x="500" y="700" on="1"/>
        <pt x="500" y="0" on="1"/>
        <pt x="0" y="0" on="1"/>
      </contour>
      <contour>
        <pt x="420" y="650" on="1"/>
        <pt x="80" y="650" on="1"/>
        <pt x="250" y="395" on="1"/>
      </contour>
      <contour>
        <pt x="450" y="95" on="1"/>
        <pt x="450" y="605" on="1"/>
        <pt x="280" y="350" on="1"/>
      </contour>
      <contour>
        <pt x="420" y="50" on="1"/>
        <pt x="250" y="305" on="1"/>
        <pt x="80" y="50" on="1"/>
      </contour>
      <contour>
        <pt x="50" y="95" on="1"/>
        <pt x="220" y="350" on="1"/>
        <pt x="50" y="605" on="1"/>
      </contour>
    </TTGlyph>
    <TTGlyph name="A" xMin="2" yMin="0" xMax="589" yMax="630">
      <contour>
        <pt x="256" y="630" on="1"/>
        <pt x="338" y="630" on="1"/>
        <pt x="589" y="0" on="1"/>
        <pt x="493" y="0" on="1"/>
        <pt x="424" y="175" on="1"/>
        <pt x="165" y="175" on="1"/>
        <pt x="97" y="0" on="1"/>
        <pt x="2" y="0" on="1"/>
      </contour>
      <contour>
        <pt x="190" y="248" on="1"/>
        <pt x="397" y="248" on="1"/>
        <pt x="355" y="357" on="1"/>
        <pt x="338" y="400" on="0"/>
        <pt x="310" y="480" on="0"/>
        <pt x="296" y="522" on="1"/>
        <pt x="294" y="522" on="1"/>
        <pt x="280" y="480" on="0"/>
        <pt x="250" y="402" on="0"/>
        <pt x="233" y="357" on="1"/>
      </contour>
    </TTGlyph>
    <TTGlyph name="AE" xMin="2" yMin="0" xMax="745" yMax="630">
      <contour>
        <pt x="2" y="0" on="1"/>
        <pt x="326" y="630" on="1"/>
        <pt x="742" y="630" on="1"/>
        <pt x="742" y="554" on="1"/>
        <pt x="474" y="554" on="1"/>
        <pt x="474" y="365" on="1"/>
        <pt x="716" y="365" on="1"/>
        <pt x="716" y="290" on="1"/>
        <pt x="474" y="290" on="1"/>
        <pt x="474" y="76" on="1"/>
        <pt x="745" y="76" on="1"/>
        <pt x="745" y="0" on="1"/>
        <pt x="386" y="0" on="1"/>
        <pt x="386" y="175" on="1"/>
        <pt x="196" y="175" on="1"/>
        <pt x="111" y="0" on="1"/>
      </contour>
      <contour>
        <pt x="386" y="561" on="1"/>
        <pt x="227" y="245" on="1"/>
        <pt x="386" y="245" on="1"/>
      </contour>
    </TTGlyph>
    <TTGlyph name="AEacute" xMin="2" yMin="0" xMax="745" yMax="834">
      <contour>
        <pt x="2" y="0" on="1"/>
        <pt x="326" y="630" on="1"/>
        <pt x="742" y="630" on="1"/>
        <pt x="742" y="554" on="1"/>
        <pt x="474" y="554" on="1"/>
        <pt x="474" y="365" on="1"/>
        <pt x="716" y="365" on="1"/>
        <pt x="716" y="290" on="1"/>
        <pt x="474" y="290" on="1"/>
        <pt x="474" y="76" on="1"/>
        <pt x="745" y="76" on="1"/>
        <pt x="745" y="0" on="1"/>
        <pt x="386" y="0" on="1"/>
        <pt x="386" y="175" on="1"/>
        <pt x="196" y="175" on="1"/>
        <pt x="111" y="0" on="1"/>
      </contour>
      <contour>
        <pt x="386" y="561" on="1"/>
        <pt x="227" y="245" on="1"/>
        <pt x="386" y="245" on="1"/>
      </contour>
      <contour>
        <pt x="433" y="710" on="1"/>
        <pt x="361" y="710" on="1"/>
        <pt x="441" y="834" on="1"/>
        <pt x="544" y="834" on="1"/>
      </contour>
    </TTGlyph>
    <TTGlyph name="Aacute" xMin="2" yMin="0" xMax="589" yMax="834">
      <contour>
        <pt x="256" y="630" on="1"/>
        <pt x="338" y="630" on="1"/>
        <pt x="589" y="0" on="1"/>
        <pt x="493" y="0" on="1"/>
        <pt x="424" y="175" on="1"/>
        <pt x="165" y="175" on="1"/>
        <pt x="97" y="0" on="1"/>
        <pt x="2" y="0" on="1"/>
      </contour>
      <contour>
        <pt x="190" y="248" on="1"/>
        <pt x="397" y="248" on="1"/>
        <pt x="355" y="357" on="1"/>
        <pt x="338" y="400" on="0"/>
        <pt x="310" y="480" on="0"/>
        <pt x="296" y="522" on="1"/>
        <pt x="294" y="522" on="1"/>
        <pt x="280" y="480" on="0"/>
        <pt x="250" y="402" on="0"/>
        <pt x="233" y="357" on="1"/>
      </contour>
      <contour>
        <pt x="327" y="710" on="1"/>
        <pt x="255" y="710" on="1"/>
        <pt x="335" y="834" on="1"/>
        <pt x="438" y="834" on="1"/>
      </contour>
    </TTGlyph>
    <TTGlyph name="Aaytam.tm" xMin="16" yMin="-12" xMax="602" yMax="515">
      <contour>
        <pt x="311" y="515" on="1"/>
        <pt x="338" y="515" on="0"/>
        <pt x="384" y="497" on="0"/>
        <pt x="419" y="465" on="0"/>
        <pt x="438" y="419" on="0"/>
        <pt x="438" y="392" on="1"/>
        <pt x="438" y="362" on="0"/>
        <pt x="416" y="317" on="0"/>
        <pt x="379" y="286" on="0"/>
        <pt x="332" y="271" on="0"/>
        <pt x="308" y="271" on="1"/>
        <pt x="284" y="271" on="0"/>
        <pt x="238" y="286" on="0"/>
        <pt x="201" y="316" on="0"/>
        <pt x="179" y="362" on="0"/>
        <pt x="179" y="392" on="1"/>
        <pt x="179" y="447" on="0"/>
        <pt x="251" y="515" on="0"/>
      </contour>
      <contour>
        <pt x="307" y="458" on="1"/>
        <pt x="281" y="458" on="0"/>
        <pt x="250" y="422" on="0"/>
        <pt x="250" y="392" on="1"/>
        <pt x="250" y="360" on="0"/>
        <pt x="284" y="327" on="0"/>
        <pt x="311" y="327" on="1"/>
        <pt x="336" y="327" on="0"/>
        <pt x="368" y="363" on="0"/>
        <pt x="368" y="392" on="1"/>
        <pt x="368" y="425" on="0"/>
        <pt x="332" y="458" on="0"/>
      </contour>
      <contour>
        <pt x="148" y="234" on="1"/>
        <pt x="175" y="234" on="0"/>
        <pt x="221" y="216" on="0"/>
        <pt x="256" y="184" on="0"/>
        <pt x="275" y="138" on="0"/>
        <pt x="275" y="111" on="1"/>
        <pt x="275" y="84" on="0"/>
        <pt x="255" y="38" on="0"/>
        <pt x="220" y="6" on="0"/>
        <pt x="172" y="-12" on="0"/>
        <pt x="144" y="-12" on="1"/>
        <pt x="87" y="-12" on="0"/>
        <pt x="16" y="56" on="0"/>
        <pt x="16" y="111" on="1"/>
        <pt x="16" y="166" on="0"/>
        <pt x="88" y="234" on="0"/>
      </contour>
      <contour>
        <pt x="144" y="177" on="1"/>
        <pt x="118" y="177" on="0"/>
        <pt x="87" y="141" on="0"/>
        <pt x="87" y="111" on="1"/>
        <pt x="87" y="79" on="0"/>
        <pt x="121" y="46" on="0"/>
        <pt x="148" y="46" on="1"/>
        <pt x="173" y="46" on="0"/>
        <pt x="205" y="82" on="0"/>
        <pt x="205" y="111" on="1"/>
        <pt x="205" y="144" on="0"/>
        <pt x="169" y="177" on="0"/>
      </contour>
      <contour>
        <pt x="475" y="234" on="1"/>
        <pt x="502" y="234" on="0"/>
        <pt x="548" y="216" on="0"/>
        <pt x="583" y="184" on="0"/>
        <pt x="602" y="138" on="0"/>
        <pt x="602" y="111" on="1"/>
        <pt x="602" y="84" on="0"/>
        <pt x="582" y="38" on="0"/>
        <pt x="547" y="6" on="0"/>
        <pt x="499" y="-12" on="0"/>
        <pt x="471" y="-12" on="1"/>
        <pt x="414" y="-12" on="0"/>
        <pt x="343" y="56" on="0"/>
        <pt x="343" y="111" on="1"/>
        <pt x="343" y="166" on="0"/>
        <pt x="415" y="234" on="0"/>
      </contour>
      <contour>
        <pt x="471" y="177" on="1"/>
        <pt x="445" y="177" on="0"/>
        <pt x="414" y="141" on="0"/>
        <pt x="414" y="111" on="1"/>
        <pt x="414" y="79" on="0"/>
        <pt x="448" y="46" on="0"/>
        <pt x="475" y="46" on="1"/>
        <pt x="500" y="46" on="0"/>
        <pt x="532" y="82" on="0"/>
        <pt x="532" y="111" on="1"/>
        <pt x="532" y="144" on="0"/>
        <pt x="496" y="177" on="0"/>
      </contour>
    </TTGlyph>
    <TTGlyph name="Abreve" xMin="2" yMin="0" xMax="589" yMax="834">
      <contour>
        <pt x="256" y="630" on="1"/>
        <pt x="338" y="630" on="1"/>
        <pt x="589" y="0" on="1"/>
        <pt x="493" y="0" on="1"/>
        <pt x="424" y="175" on="1"/>
        <pt x="165" y="175" on="1"/>
        <pt x="97" y="0" on="1"/>
        <pt x="2" y="0" on="1"/>
      </contour>
      <contour>
        <pt x="190" y="248" on="1"/>
        <pt x="397" y="248" on="1"/>
        <pt x="355" y="357" on="1"/>
        <pt x="338" y="400" on="0"/>
        <pt x="310" y="480" on="0"/>
        <pt x="296" y="522" on="1"/>
        <pt x="294" y="522" on="1"/>
        <pt x="280" y="480" on="0"/>
        <pt x="250" y="402" on="0"/>
        <pt x="233" y="357" on="1"/>
      </contour>
      <contour>
        <pt x="223" y="834" on="1"/>
        <pt x="227" y="802" on="0"/>
        <pt x="254" y="764" on="0"/>
        <pt x="295" y="764" on="1"/>
        <pt x="330" y="764" on="0"/>
        <pt x="363" y="800" on="0"/>
        <pt x="367" y="834" on="1"/>
        <pt x="429" y="834" on="1"/>
        <pt x="429" y="780" on="0"/>
        <pt x="360" y="710" on="0"/>
        <pt x="295" y="710" on="1"/>
        <pt x="259" y="710" on="0"/>
        <pt x="208" y="731" on="0"/>
        <pt x="175" y="766" on="0"/>
        <pt x="160" y="811" on="0"/>
        <pt x="160" y="834" on="1"/>
      </contour>
    </TTGlyph>
    <TTGlyph name="Acircumflex" xMin="2" yMin="0" xMax="589" yMax="844">
      <contour>
        <pt x="256" y="630" on="1"/>
        <pt x="338" y="630" on="1"/>
        <pt x="589" y="0" on="1"/>
        <pt x="493" y="0" on="1"/>
        <pt x="424" y="175" on="1"/>
        <pt x="165" y="175" on="1"/>
        <pt x="97" y="0" on="1"/>
        <pt x="2" y="0" on="1"/>
      </contour>
      <contour>
        <pt x="190" y="248" on="1"/>
        <pt x="397" y="248" on="1"/>
        <pt x="355" y="357" on="1"/>
        <pt x="338" y="400" on="0"/>
        <pt x="310" y="480" on="0"/>
        <pt x="296" y="522" on="1"/>
        <pt x="294" y="522" on="1"/>
        <pt x="280" y="480" on="0"/>
        <pt x="250" y="402" on="0"/>
        <pt x="233" y="357" on="1"/>
      </contour>
      <contour>
        <pt x="261" y="844" on="1"/>
        <pt x="330" y="844" on="1"/>
        <pt x="455" y="710" on="1"/>
        <pt x="375" y="710" on="1"/>
        <pt x="295" y="794" on="1"/>
        <pt x="215" y="710" on="1"/>
        <pt x="139" y="710" on="1"/>
      </contour>
    </TTGlyph>
    <TTGlyph name="Adieresis" xMin="2" yMin="0" xMax="589" yMax="810">
      <contour>
        <pt x="256" y="630" on="1"/>
        <pt x="338" y="630" on="1"/>
        <pt x="589" y="0" on="1"/>
        <pt x="493" y="0" on="1"/>
        <pt x="424" y="175" on="1"/>
        <pt x="165" y="175" on="1"/>
        <pt x="97" y="0" on="1"/>
        <pt x="2" y="0" on="1"/>
      </contour>
      <contour>
        <pt x="190" y="248" on="1"/>
        <pt x="397" y="248" on="1"/>
        <pt x="355" y="357" on="1"/>
        <pt x="338" y="400" on="0"/>
        <pt x="310" y="480" on="0"/>
        <pt x="296" y="522" on="1"/>
        <pt x="294" y="522" on="1"/>
        <pt x="280" y="480" on="0"/>
        <pt x="250" y="402" on="0"/>
        <pt x="233" y="357" on="1"/>
      </contour>
      <contour>
        <pt x="162" y="761" on="1"/>
        <pt x="162" y="780" on="0"/>
        <pt x="192" y="810" on="0"/>
        <pt x="212" y="810" on="1"/>
        <pt x="232" y="810" on="0"/>
        <pt x="262" y="780" on="0"/>
        <pt x="262" y="761" on="1"/>
        <pt x="262" y="741" on="0"/>
        <pt x="232" y="710" on="0"/>
        <pt x="212" y="710" on="1"/>
        <pt x="192" y="710" on="0"/>
        <pt x="162" y="741" on="0"/>
      </contour>
      <contour>
        <pt x="328" y="761" on="1"/>
        <pt x="328" y="780" on="0"/>
        <pt x="358" y="810" on="0"/>
        <pt x="378" y="810" on="1"/>
        <pt x="398" y="810" on="0"/>
        <pt x="428" y="780" on="0"/>
        <pt x="428" y="761" on="1"/>
        <pt x="428" y="741" on="0"/>
        <pt x="398" y="710" on="0"/>
        <pt x="378" y="710" on="1"/>
        <pt x="358" y="710" on="0"/>
        <pt x="328" y="741" on="0"/>
      </contour>
    </TTGlyph>
    <TTGlyph name="Agrave" xMin="2" yMin="0" xMax="589" yMax="834">
      <contour>
        <pt x="256" y="630" on="1"/>
        <pt x="338" y="630" on="1"/>
        <pt x="589" y="0" on="1"/>
        <pt x="493" y="0" on="1"/>
        <pt x="424" y="175" on="1"/>
        <pt x="165" y="175" on="1"/>
        <pt x="97" y="0" on="1"/>
        <pt x="2" y="0" on="1"/>
      </contour>
      <contour>
        <pt x="190" y="248" on="1"/>
        <pt x="397" y="248" on="1"/>
        <pt x="355" y="357" on="1"/>
        <pt x="338" y="400" on="0"/>
        <pt x="310" y="480" on="0"/>
        <pt x="296" y="522" on="1"/>
        <pt x="294" y="522" on="1"/>
        <pt x="280" y="480" on="0"/>
        <pt x="250" y="402" on="0"/>
        <pt x="233" y="357" on="1"/>
      </contour>
      <contour>
        <pt x="153" y="834" on="1"/>
        <pt x="256" y="834" on="1"/>
        <pt x="336" y="710" on="1"/>
        <pt x="264" y="710" on="1"/>
      </contour>
    </TTGlyph>
    <TTGlyph name="Amacron" xMin="2" yMin="0" xMax="589" yMax="772">
      <contour>
        <pt x="256" y="630" on="1"/>
        <pt x="338" y="630" on="1"/>
        <pt x="589" y="0" on="1"/>
        <pt x="493" y="0" on="1"/>
        <pt x="424" y="175" on="1"/>
        <pt x="165" y="175" on="1"/>
        <pt x="97" y="0" on="1"/>
        <pt x="2" y="0" on="1"/>
      </contour>
      <contour>
        <pt x="190" y="248" on="1"/>
        <pt x="397" y="248" on="1"/>
        <pt x="355" y="357" on="1"/>
        <pt x="338" y="400" on="0"/>
        <pt x="310" y="480" on="0"/>
        <pt x="296" y="522" on="1"/>
        <pt x="294" y="522" on="1"/>
        <pt x="280" y="480" on="0"/>
        <pt x="250" y="402" on="0"/>
        <pt x="233" y="357" on="1"/>
      </contour>
      <contour>
        <pt x="416" y="772" on="1"/>
        <pt x="416" y="710" on="1"/>
        <pt x="171" y="710" on="1"/>
        <pt x="171" y="772" on="1"/>
      </contour>
    </TTGlyph>
    <TTGlyph name="Anusvara.tm" xMin="2" yMin="536" xMax="261" yMax="780">
      <contour>
        <pt x="134" y="780" on="1"/>
        <pt x="161" y="780" on="0"/>
        <pt x="207" y="762" on="0"/>
        <pt x="242" y="730" on="0"/>
        <pt x="261" y="684" on="0"/>
        <pt x="261" y="657" on="1"/>
        <pt x="261" y="627" on="0"/>
        <pt x="239" y="582" on="0"/>
        <pt x="202" y="551" on="0"/>
        <pt x="155" y="536" on="0"/>
        <pt x="131" y="536" on="1"/>
        <pt x="107" y="536" on="0"/>
        <pt x="61" y="551" on="0"/>
        <pt x="24" y="581" on="0"/>
        <pt x="2" y="627" on="0"/>
        <pt x="2" y="657" on="1"/>
        <pt x="2" y="712" on="0"/>
        <pt x="74" y="780" on="0"/>
      </contour>
      <contour>
        <pt x="130" y="723" on="1"/>
        <pt x="104" y="723" on="0"/>
        <pt x="73" y="687" on="0"/>
        <pt x="73" y="657" on="1"/>
        <pt x="73" y="625" on="0"/>
        <pt x="107" y="592" on="0"/>
        <pt x="134" y="592" on="1"/>
        <pt x="159" y="592" on="0"/>
        <pt x="191" y="628" on="0"/>
        <pt x="191" y="657" on="1"/>
        <pt x="191" y="690" on="0"/>
        <pt x="155" y="723" on="0"/>
      </contour>
    </TTGlyph>
    <TTGlyph name="Aogonek" xMin="2" yMin="-206" xMax="602" yMax="630">
      <contour>
        <pt x="256" y="630" on="1"/>
        <pt x="338" y="630" on="1"/>
        <pt x="589" y="0" on="1"/>
        <pt x="532" y="-22" on="0"/>
        <pt x="484" y="-67" on="0"/>
        <pt x="484" y="-94" on="1"/>
        <pt x="484" y="-119" on="0"/>
        <pt x="515" y="-146" on="0"/>
        <pt x="539" y="-146" on="1"/>
        <pt x="568" y="-146" on="0"/>
        <pt x="589" y="-138" on="1"/>
        <pt x="602" y="-185" on="1"/>
        <pt x="567" y="-206" on="0"/>
        <pt x="522" y="-206" on="1"/>
        <pt x="476" y="-206" on="0"/>
        <pt x="415" y="-156" on="0"/>
        <pt x="415" y="-109" on="1"/>
        <pt x="415" y="-71" on="0"/>
        <pt x="461" y="-16" on="0"/>
        <pt x="493" y="0" on="1"/>
        <pt x="424" y="175" on="1"/>
        <pt x="165" y="175" on="1"/>
        <pt x="97" y="0" on="1"/>
        <pt x="2" y="0" on="1"/>
      </contour>
      <contour>
        <pt x="190" y="248" on="1"/>
        <pt x="397" y="248" on="1"/>
        <pt x="355" y="357" on="1"/>
        <pt x="338" y="400" on="0"/>
        <pt x="310" y="480" on="0"/>
        <pt x="296" y="522" on="1"/>
        <pt x="294" y="522" on="1"/>
        <pt x="280" y="480" on="0"/>
        <pt x="250" y="402" on="0"/>
        <pt x="233" y="357" on="1"/>
      </contour>
    </TTGlyph>
    <TTGlyph name="Aring" xMin="2" yMin="0" xMax="589" yMax="843">
      <contour>
        <pt x="256" y="630" on="1"/>
        <pt x="338" y="630" on="1"/>
        <pt x="589" y="0" on="1"/>
        <pt x="493" y="0" on="1"/>
        <pt x="424" y="175" on="1"/>
        <pt x="165" y="175" on="1"/>
        <pt x="97" y="0" on="1"/>
        <pt x="2" y="0" on="1"/>
      </contour>
      <contour>
        <pt x="190" y="248" on="1"/>
        <pt x="397" y="248" on="1"/>
        <pt x="355" y="357" on="1"/>
        <pt x="338" y="400" on="0"/>
        <pt x="310" y="480" on="0"/>
        <pt x="296" y="522" on="1"/>
        <pt x="294" y="522" on="1"/>
        <pt x="280" y="480" on="0"/>
        <pt x="250" y="402" on="0"/>
        <pt x="233" y="357" on="1"/>
      </contour>
      <contour>
        <pt x="199" y="760" on="1"/>
        <pt x="199" y="804" on="0"/>
        <pt x="255" y="843" on="0"/>
        <pt x="296" y="843" on="1"/>
        <pt x="338" y="843" on="0"/>
        <pt x="393" y="805" on="0"/>
        <pt x="393" y="760" on="1"/>
        <pt x="393" y="738" on="0"/>
        <pt x="377" y="706" on="0"/>
        <pt x="350" y="686" on="0"/>
        <pt x="315" y="677" on="0"/>
        <pt x="296" y="677" on="1"/>
        <pt x="257" y="677" on="0"/>
        <pt x="199" y="718" on="0"/>
      </contour>
      <contour>
        <pt x="248" y="760" on="1"/>
        <pt x="248" y="737" on="0"/>
        <pt x="273" y="710" on="0"/>
        <pt x="296" y="710" on="1"/>
        <pt x="319" y="710" on="0"/>
        <pt x="344" y="737" on="0"/>
        <pt x="344" y="760" on="1"/>
        <pt x="344" y="783" on="0"/>
        <pt x="319" y="810" on="0"/>
        <pt x="296" y="810" on="1"/>
        <pt x="273" y="810" on="0"/>
        <pt x="248" y="783" on="0"/>
      </contour>
    </TTGlyph>
    <TTGlyph name="AsAboveSign.tm" xMin="40" yMin="-201" xMax="1742" yMax="733">
      <contour>
        <pt x="943" y="144" on="1"/>
        <pt x="943" y="174" on="0"/>
        <pt x="913" y="223" on="0"/>
        <pt x="869" y="266" on="0"/>
        <pt x="819" y="305" on="0"/>
        <pt x="799" y="324" on="1"/>
        <pt x="784" y="298" on="0"/>
        <pt x="766" y="227" on="0"/>
        <pt x="766" y="181" on="1"/>
        <pt x="766" y="118" on="0"/>
        <pt x="822" y="56" on="0"/>
        <pt x="860" y="56" on="1"/>
        <pt x="898" y="56" on="0"/>
        <pt x="943" y="102" on="0"/>
      </contour>
      <contour>
        <pt x="359" y="184" on="1"/>
        <pt x="359" y="161" on="0"/>
        <pt x="379" y="121" on="0"/>
        <pt x="413" y="93" on="0"/>
        <pt x="457" y="76" on="0"/>
        <pt x="481" y="76" on="1"/>
        <pt x="508" y="88" on="0"/>
        <pt x="541" y="140" on="0"/>
        <pt x="541" y="178" on="1"/>
        <pt x="541" y="221" on="0"/>
        <pt x="488" y="273" on="0"/>
        <pt x="449" y="273" on="1"/>
        <pt x="410" y="273" on="0"/>
        <pt x="359" y="225" on="0"/>
      </contour>
      <contour>
        <pt x="1143" y="0" on="1"/>
        <pt x="1120" y="48" on="1"/>
        <pt x="1149" y="84" on="0"/>
        <pt x="1178" y="177" on="0"/>
        <pt x="1178" y="228" on="1"/>
        <pt x="1178" y="274" on="0"/>
        <pt x="1152" y="350" on="0"/>
        <pt x="1102" y="404" on="0"/>
        <pt x="1028" y="434" on="0"/>
        <pt x="981" y="434" on="1"/>
        <pt x="937" y="434" on="0"/>
        <pt x="864" y="403" on="0"/>
        <pt x="838" y="375" on="1"/>
        <pt x="865" y="349" on="0"/>
        <pt x="927" y="304" on="0"/>
        <pt x="981" y="251" on="0"/>
        <pt x="1017" y="187" on="0"/>
        <pt x="1017" y="144" on="1"/>
        <pt x="1017" y="108" on="0"/>
        <pt x="993" y="52" on="0"/>
        <pt x="950" y="13" on="0"/>
        <pt x="892" y="-7" on="0"/>
        <pt x="858" y="-7" on="1"/>
        <pt x="826" y="-7" on="0"/>
        <pt x="766" y="16" on="0"/>
        <pt x="720" y="64" on="0"/>
        <pt x="692" y="137" on="0"/>
        <pt x="692" y="187" on="1"/>
        <pt x="692" y="243" on="0"/>
        <pt x="728" y="339" on="0"/>
        <pt x="752" y="370" on="1"/>
        <pt x="735" y="391" on="0"/>
        <pt x="699" y="451" on="0"/>
        <pt x="675" y="489" on="1"/>
        <pt x="655" y="521" on="0"/>
        <pt x="604" y="584" on="0"/>
        <pt x="538" y="635" on="0"/>
        <pt x="453" y="666" on="0"/>
        <pt x="399" y="666" on="1"/>
        <pt x="340" y="666" on="0"/>
        <pt x="238" y="624" on="0"/>
        <pt x="162" y="545" on="0"/>
        <pt x="118" y="429" on="0"/>
        <pt x="118" y="354" on="1"/>
        <pt x="118" y="287" on="0"/>
        <pt x="159" y="175" on="0"/>
        <pt x="233" y="94" on="0"/>
        <pt x="332" y="49" on="0"/>
        <pt x="391" y="49" on="1"/>
        <pt x="412" y="49" on="1"/>
        <pt x="390" y="53" on="0"/>
        <pt x="346" y="75" on="0"/>
        <pt x="311" y="110" on="0"/>
        <pt x="289" y="158" on="0"/>
        <pt x="289" y="188" on="1"/>
        <pt x="289" y="222" on="0"/>
        <pt x="314" y="277" on="0"/>
        <pt x="357" y="317" on="0"/>
        <pt x="416" y="339" on="0"/>
        <pt x="451" y="339" on="1"/>
        <pt x="484" y="339" on="0"/>
        <pt x="543" y="317" on="0"/>
        <pt x="588" y="277" on="0"/>
        <pt x="614" y="219" on="0"/>
        <pt x="614" y="183" on="1"/>
        <pt x="614" y="138" on="0"/>
        <pt x="576" y="68" on="0"/>
        <pt x="512" y="20" on="0"/>
        <pt x="427" y="-5" on="0"/>
        <pt x="381" y="-5" on="1"/>
        <pt x="309" y="-5" on="0"/>
        <pt x="185" y="45" on="0"/>
        <pt x="93" y="138" on="0"/>
        <pt x="40" y="271" on="0"/>
        <pt x="40" y="354" on="1"/>
        <pt x="40" y="439" on="0"/>
        <pt x="96" y="579" on="0"/>
        <pt x="193" y="679" on="0"/>
        <pt x="325" y="733" on="0"/>
        <pt x="402" y="733" on="1"/>
        <pt x="472" y="733" on="0"/>
        <pt x="581" y="688" on="0"/>
        <pt x="665" y="619" on="0"/>
        <pt x="725" y="535" on="0"/>
        <pt x="748" y="496" on="1"/>
        <pt x="762" y="471" on="0"/>
        <pt x="784" y="434" on="0"/>
        <pt x="794" y="420" on="1"/>
        <pt x="831" y="457" on="0"/>
        <pt x="929" y="500" on="0"/>
        <pt x="986" y="500" on="1"/>
        <pt x="1045" y="500" on="0"/>
        <pt x="1144" y="460" on="0"/>
        <pt x="1215" y="390" on="0"/>
        <pt x="1255" y="291" on="0"/>
        <pt x="1255" y="233" on="1"/>
        <pt x="1255" y="206" on="0"/>
        <pt x="1246" y="154" on="0"/>
        <pt x="1232" y="109" on="0"/>
        <pt x="1215" y="74" on="0"/>
        <pt x="1208" y="63" on="1"/>
        <pt x="1404" y="63" on="1"/>
        <pt x="1485" y="231" on="1"/>
        <pt x="1407" y="232" on="0"/>
        <pt x="1315" y="304" on="0"/>
        <pt x="1315" y="366" on="1"/>
        <pt x="1315" y="397" on="0"/>
        <pt x="1339" y="447" on="0"/>
        <pt x="1380" y="482" on="0"/>
        <pt x="1434" y="500" on="0"/>
        <pt x="1464" y="500" on="1"/>
        <pt x="1495" y="500" on="0"/>
        <pt x="1547" y="481" on="0"/>
        <pt x="1586" y="446" on="0"/>
        <pt x="1608" y="397" on="0"/>
        <pt x="1608" y="368" on="1"/>
        <pt x="1608" y="348" on="0"/>
        <pt x="1595" y="308" on="0"/>
        <pt x="1586" y="288" on="1"/>
        <pt x="1656" y="283" on="0"/>
        <pt x="1742" y="217" on="0"/>
        <pt x="1742" y="151" on="1"/>
        <pt x="1742" y="82" on="0"/>
        <pt x="1640" y="0" on="0"/>
        <pt x="1542" y="0" on="1"/>
        <pt x="1455" y="0" on="1"/>
        <pt x="1359" y="-201" on="1"/>
        <pt x="1295" y="-171" on="1"/>
        <pt x="1378" y="0" on="1"/>
      </contour>
      <contour>
        <pt x="1561" y="230" on="1"/>
        <pt x="1481" y="63" on="1"/>
        <pt x="1547" y="63" on="1"/>
        <pt x="1610" y="63" on="0"/>
        <pt x="1666" y="116" on="0"/>
        <pt x="1666" y="151" on="1"/>
        <pt x="1666" y="189" on="0"/>
        <pt x="1612" y="230" on="0"/>
        <pt x="1564" y="230" on="1"/>
      </contour>
      <contour>
        <pt x="1390" y="368" on="1"/>
        <pt x="1390" y="331" on="0"/>
        <pt x="1448" y="291" on="0"/>
        <pt x="1504" y="291" on="1"/>
        <pt x="1511" y="291" on="1"/>
        <pt x="1533" y="331" on="0"/>
        <pt x="1533" y="365" on="1"/>
        <pt x="1533" y="394" on="0"/>
        <pt x="1493" y="435" on="0"/>
        <pt x="1461" y="435" on="1"/>
        <pt x="1428" y="435" on="0"/>
        <pt x="1390" y="397" on="0"/>
      </contour>
    </TTGlyph>
    <TTGlyph name="Asmall" xMin="2" yMin="0" xMax="464" yMax="470">
      <contour>
        <pt x="2" y="0" on="1"/>
        <pt x="190" y="470" on="1"/>
        <pt x="272" y="470" on="1"/>
        <pt x="464" y="0" on="1"/>
        <pt x="374" y="0" on="1"/>
        <pt x="327" y="124" on="1"/>
        <pt x="137" y="124" on="1"/>
        <pt x="88" y="0" on="1"/>
      </contour>
      <contour>
        <pt x="161" y="191" on="1"/>
        <pt x="303" y="191" on="1"/>
        <pt x="273" y="270" on="1"/>
        <pt x="262" y="298" on="0"/>
        <pt x="242" y="353" on="0"/>
        <pt x="234" y="377" on="1"/>
        <pt x="233" y="377" on="1"/>
        <pt x="225" y="354" on="0"/>
        <pt x="203" y="298" on="0"/>
        <pt x="192" y="270" on="1"/>
      </contour>
    </TTGlyph>
    <TTGlyph name="Atilde" xMin="2" yMin="0" xMax="589" yMax="823">
      <contour>
        <pt x="256" y="630" on="1"/>
        <pt x="338" y="630" on="1"/>
        <pt x="589" y="0" on="1"/>
        <pt x="493" y="0" on="1"/>
        <pt x="424" y="175" on="1"/>
        <pt x="165" y="175" on="1"/>
        <pt x="97" y="0" on="1"/>
        <pt x="2" y="0" on="1"/>
      </contour>
      <contour>
        <pt x="190" y="248" on="1"/>
        <pt x="397" y="248" on="1"/>
        <pt x="355" y="357" on="1"/>
        <pt x="338" y="400" on="0"/>
        <pt x="310" y="480" on="0"/>
        <pt x="296" y="522" on="1"/>
        <pt x="294" y="522" on="1"/>
        <pt x="280" y="480" on="0"/>
        <pt x="250" y="402" on="0"/>
        <pt x="233" y="357" on="1"/>
      </contour>
      <contour>
        <pt x="141" y="710" on="1"/>
        <pt x="141" y="756" on="0"/>
        <pt x="182" y="820" on="0"/>
        <pt x="228" y="820" on="1"/>
        <pt x="249" y="820" on="0"/>
        <pt x="282" y="806" on="0"/>
        <pt x="311" y="790" on="0"/>
        <pt x="339" y="776" on="0"/>
        <pt x="355" y="776" on="1"/>
        <pt x="375" y="776" on="0"/>
        <pt x="392" y="806" on="0"/>
        <pt x="394" y="823" on="1"/>
        <pt x="444" y="823" on="1"/>
        <pt x="444" y="802" on="0"/>
        <pt x="434" y="763" on="0"/>
        <pt x="413" y="732" on="0"/>
        <pt x="382" y="713" on="0"/>
        <pt x="361" y="713" on="1"/>
        <pt x="340" y="713" on="0"/>
        <pt x="303" y="726" on="0"/>
        <pt x="271" y="743" on="0"/>
        <pt x="243" y="756" on="0"/>
        <pt x="231" y="756" on="1"/>
        <pt x="210" y="756" on="0"/>
        <pt x="193" y="730" on="0"/>
        <pt x="191" y="710" on="1"/>
      </contour>
    </TTGlyph>
    <TTGlyph name="B" xMin="80" yMin="0" xMax="487" yMax="630">
      <contour>
        <pt x="269" y="630" on="1"/>
        <pt x="363" y="630" on="0"/>
        <pt x="468" y="549" on="0"/>
        <pt x="468" y="471" on="1"/>
        <pt x="468" y="413" on="0"/>
        <pt x="403" y="348" on="0"/>
        <pt x="354" y="335" on="1"/>
        <pt x="382" y="330" on="0"/>
        <pt x="430" y="305" on="0"/>
        <pt x="466" y="265" on="0"/>
        <pt x="487" y="210" on="0"/>
        <pt x="487" y="176" on="1"/>
        <pt x="487" y="137" on="0"/>
        <pt x="453" y="72" on="0"/>
        <pt x="393" y="26" on="0"/>
        <pt x="311" y="0" on="0"/>
        <pt x="262" y="0" on="1"/>
        <pt x="80" y="0" on="1"/>
        <pt x="80" y="630" on="1"/>
      </contour>
      <contour>
        <pt x="172" y="367" on="1"/>
        <pt x="247" y="367" on="1"/>
        <pt x="272" y="367" on="0"/>
        <pt x="318" y="375" on="0"/>
        <pt x="353" y="397" on="0"/>
        <pt x="374" y="434" on="0"/>
        <pt x="374" y="464" on="1"/>
        <pt x="374" y="512" on="0"/>
        <pt x="309" y="556" on="0"/>
        <pt x="255" y="556" on="1"/>
        <pt x="172" y="556" on="1"/>
      </contour>
      <contour>
        <pt x="172" y="74" on="1"/>
        <pt x="252" y="74" on="1"/>
        <pt x="280" y="74" on="0"/>
        <pt x="330" y="85" on="0"/>
        <pt x="368" y="111" on="0"/>
        <pt x="391" y="154" on="0"/>
        <pt x="391" y="185" on="1"/>
        <pt x="391" y="216" on="0"/>
        <pt x="364" y="257" on="0"/>
        <pt x="320" y="283" on="0"/>
        <pt x="264" y="294" on="0"/>
        <pt x="236" y="294" on="1"/>
        <pt x="172" y="294" on="1"/>
      </contour>
    </TTGlyph>
    <TTGlyph name="Bsmall" xMin="80" yMin="0" xMax="429" yMax="470">
      <contour>
        <pt x="253" y="470" on="1"/>
        <pt x="331" y="470" on="0"/>
        <pt x="408" y="406" on="0"/>
        <pt x="408" y="354" on="1"/>
        <pt x="408" y="316" on="0"/>
        <pt x="362" y="265" on="0"/>
        <pt x="326" y="253" on="1"/>
        <pt x="376" y="241" on="0"/>
        <pt x="429" y="182" on="0"/>
        <pt x="429" y="134" on="1"/>
        <pt x="429" y="106" on="0"/>
        <pt x="407" y="57" on="0"/>
        <pt x="362" y="21" on="0"/>
        <pt x="296" y="0" on="0"/>
        <pt x="252" y="0" on="1"/>
        <pt x="80" y="0" on="1"/>
        <pt x="80" y="470" on="1"/>
      </contour>
      <contour>
        <pt x="155" y="278" on="1"/>
        <pt x="234" y="278" on="1"/>
        <pt x="269" y="278" on="0"/>
        <pt x="318" y="307" on="0"/>
        <pt x="318" y="342" on="1"/>
        <pt x="318" y="370" on="0"/>
        <pt x="278" y="402" on="0"/>
        <pt x="232" y="402" on="1"/>
        <pt x="155" y="402" on="1"/>
      </contour>
      <contour>
        <pt x="155" y="68" on="1"/>
        <pt x="231" y="68" on="1"/>
        <pt x="281" y="68" on="0"/>
        <pt x="337" y="102" on="0"/>
        <pt x="337" y="142" on="1"/>
        <pt x="337" y="155" on="0"/>
        <pt x="328" y="180" on="0"/>
        <pt x="309" y="200" on="0"/>
        <pt x="276" y="212" on="0"/>
        <pt x="252" y="212" on="1"/>
        <pt x="155" y="212" on="1"/>
      </contour>
    </TTGlyph>
    <TTGlyph name="C" xMin="45" yMin="-9" xMax="526" yMax="639">
      <contour>
        <pt x="355" y="67" on="1"/>
        <pt x="405" y="67" on="0"/>
        <pt x="470" y="83" on="0"/>
        <pt x="502" y="98" on="1"/>
        <pt x="523" y="24" on="1"/>
        <pt x="488" y="7" on="0"/>
        <pt x="405" y="-9" on="0"/>
        <pt x="345" y="-9" on="1"/>
        <pt x="283" y="-9" on="0"/>
        <pt x="173" y="33" on="0"/>
        <pt x="92" y="115" on="0"/>
        <pt x="45" y="236" on="0"/>
        <pt x="45" y="315" on="1"/>
        <pt x="45" y="392" on="0"/>
        <pt x="91" y="513" on="0"/>
        <pt x="172" y="596" on="0"/>
        <pt x="284" y="639" on="0"/>
        <pt x="350" y="639" on="1"/>
        <pt x="412" y="639" on="0"/>
        <pt x="492" y="619" on="0"/>
        <pt x="526" y="602" on="1"/>
        <pt x="504" y="530" on="1"/>
        <pt x="485" y="538" on="0"/>
        <pt x="452" y="551" on="0"/>
        <pt x="419" y="559" on="0"/>
        <pt x="384" y="563" on="0"/>
        <pt x="362" y="563" on="1"/>
        <pt x="318" y="563" on="0"/>
        <pt x="239" y="536" on="0"/>
        <pt x="180" y="476" on="0"/>
        <pt x="145" y="381" on="0"/>
        <pt x="145" y="314" on="1"/>
        <pt x="145" y="246" on="0"/>
        <pt x="179" y="152" on="0"/>
        <pt x="236" y="94" on="0"/>
        <pt x="312" y="67" on="0"/>
      </contour>
    </TTGlyph>
    <TTGlyph name="Ca.tm" xMin="32" yMin="-7" xMax="579" yMax="495">
      <contour>
        <pt x="559" y="495" on="1"/>
        <pt x="559" y="433" on="1"/>
        <pt x="409" y="433" on="1"/>
        <pt x="409" y="293" on="1"/>
        <pt x="579" y="293" on="1"/>
        <pt x="579" y="231" on="1"/>
        <pt x="409" y="231" on="1"/>
        <pt x="409" y="146" on="1"/>
        <pt x="409" y="79" on="0"/>
        <pt x="313" y="-7" on="0"/>
        <pt x="226" y="-7" on="1"/>
        <pt x="185" y="-7" on="0"/>
        <pt x="114" y="15" on="0"/>
        <pt x="62" y="57" on="0"/>
        <pt x="32" y="116" on="0"/>
        <pt x="32" y="153" on="1"/>
        <pt x="32" y="180" on="0"/>
        <pt x="48" y="224" on="0"/>
        <pt x="75" y="257" on="0"/>
        <pt x="110" y="279" on="0"/>
        <pt x="129" y="283" on="1"/>
        <pt x="129" y="495" on="1"/>
      </contour>
      <contour>
        <pt x="197" y="230" on="1"/>
        <pt x="155" y="230" on="0"/>
        <pt x="105" y="190" on="0"/>
        <pt x="105" y="152" on="1"/>
        <pt x="105" y="109" on="0"/>
        <pt x="173" y="56" on="0"/>
        <pt x="230" y="56" on="1"/>
        <pt x="281" y="56" on="0"/>
        <pt x="337" y="109" on="0"/>
        <pt x="337" y="156" on="1"/>
        <pt x="337" y="230" on="1"/>
      </contour>
      <contour>
        <pt x="201" y="293" on="1"/>
        <pt x="337" y="293" on="1"/>
        <pt x="337" y="433" on="1"/>
        <pt x="201" y="433" on="1"/>
      </contour>
    </TTGlyph>
    <TTGlyph name="CaMatraI.tm" xMin="32" yMin="-7" xMax="750" yMax="757">
      <contour>
        <pt x="331" y="495" on="1"/>
        <pt x="316" y="532" on="0"/>
        <pt x="316" y="581" on="1"/>
        <pt x="316" y="619" on="0"/>
        <pt x="345" y="684" on="0"/>
        <pt x="398" y="731" on="0"/>
        <pt x="473" y="757" on="0"/>
        <pt x="520" y="757" on="1"/>
        <pt x="631" y="757" on="0"/>
        <pt x="750" y="617" on="0"/>
        <pt x="750" y="489" on="1"/>
        <pt x="750" y="0" on="1"/>
        <pt x="677" y="0" on="1"/>
        <pt x="677" y="485" on="1"/>
        <pt x="677" y="588" on="0"/>
        <pt x="597" y="692" on="0"/>
        <pt x="515" y="692" on="1"/>
        <pt x="455" y="692" on="0"/>
        <pt x="388" y="627" on="0"/>
        <pt x="388" y="573" on="1"/>
        <pt x="388" y="528" on="0"/>
        <pt x="402" y="495" on="1"/>
        <pt x="559" y="495" on="1"/>
        <pt x="559" y="433" on="1"/>
        <pt x="409" y="433" on="1"/>
        <pt x="409" y="293" on="1"/>
        <pt x="579" y="293" on="1"/>
        <pt x="579" y="231" on="1"/>
        <pt x="409" y="231" on="1"/>
        <pt x="409" y="146" on="1"/>
        <pt x="409" y="79" on="0"/>
        <pt x="313" y="-7" on="0"/>
        <pt x="226" y="-7" on="1"/>
        <pt x="185" y="-7" on="0"/>
        <pt x="114" y="15" on="0"/>
        <pt x="62" y="57" on="0"/>
        <pt x="32" y="116" on="0"/>
        <pt x="32" y="153" on="1"/>
        <pt x="32" y="180" on="0"/>
        <pt x="48" y="224" on="0"/>
        <pt x="75" y="257" on="0"/>
        <pt x="110" y="279" on="0"/>
        <pt x="129" y="283" on="1"/>
        <pt x="129" y="495" on="1"/>
      </contour>
      <contour>
        <pt x="197" y="230" on="1"/>
        <pt x="155" y="230" on="0"/>
        <pt x="105" y="190" on="0"/>
        <pt x="105" y="152" on="1"/>
        <pt x="105" y="109" on="0"/>
        <pt x="173" y="56" on="0"/>
        <pt x="230" y="56" on="1"/>
        <pt x="281" y="56" on="0"/>
        <pt x="337" y="109" on="0"/>
        <pt x="337" y="156" on="1"/>
        <pt x="337" y="230" on="1"/>
      </contour>
      <contour>
        <pt x="201" y="293" on="1"/>
        <pt x="337" y="293" on="1"/>
        <pt x="337" y="433" on="1"/>
        <pt x="201" y="433" on="1"/>
      </contour>
    </TTGlyph>
    <TTGlyph name="CaMatraIi.tm" xMin="32" yMin="-7" xMax="636" yMax="796">
      <contour>
        <pt x="478" y="796" on="1"/>
        <pt x="517" y="796" on="0"/>
        <pt x="577" y="777" on="0"/>
        <pt x="616" y="745" on="0"/>
        <pt x="636" y="704" on="0"/>
        <pt x="636" y="682" on="1"/>
        <pt x="636" y="657" on="0"/>
        <pt x="617" y="617" on="0"/>
        <pt x="586" y="589" on="0"/>
        <pt x="543" y="574" on="0"/>
        <pt x="519" y="574" on="1"/>
        <pt x="472" y="574" on="0"/>
        <pt x="410" y="630" on="0"/>
        <pt x="410" y="673" on="1"/>
        <pt x="410" y="716" on="0"/>
        <pt x="441" y="744" on="1"/>
        <pt x="398" y="736" on="0"/>
        <pt x="344" y="667" on="0"/>
        <pt x="344" y="615" on="1"/>
        <pt x="344" y="578" on="0"/>
        <pt x="375" y="514" on="0"/>
        <pt x="398" y="495" on="1"/>
        <pt x="559" y="495" on="1"/>
        <pt x="559" y="433" on="1"/>
        <pt x="409" y="433" on="1"/>
        <pt x="409" y="293" on="1"/>
        <pt x="579" y="293" on="1"/>
        <pt x="579" y="231" on="1"/>
        <pt x="409" y="231" on="1"/>
        <pt x="409" y="146" on="1"/>
        <pt x="409" y="79" on="0"/>
        <pt x="313" y="-7" on="0"/>
        <pt x="226" y="-7" on="1"/>
        <pt x="185" y="-7" on="0"/>
        <pt x="114" y="15" on="0"/>
        <pt x="62" y="57" on="0"/>
        <pt x="32" y="116" on="0"/>
        <pt x="32" y="153" on="1"/>
        <pt x="32" y="180" on="0"/>
        <pt x="48" y="224" on="0"/>
        <pt x="75" y="257" on="0"/>
        <pt x="110" y="279" on="0"/>
        <pt x="129" y="283" on="1"/>
        <pt x="129" y="495" on="1"/>
        <pt x="319" y="495" on="1"/>
        <pt x="298" y="518" on="0"/>
        <pt x="272" y="583" on="0"/>
        <pt x="272" y="617" on="1"/>
        <pt x="272" y="661" on="0"/>
        <pt x="306" y="728" on="0"/>
        <pt x="363" y="773" on="0"/>
        <pt x="437" y="796" on="0"/>
      </contour>
      <contour>
        <pt x="197" y="230" on="1"/>
        <pt x="155" y="230" on="0"/>
        <pt x="105" y="190" on="0"/>
        <pt x="105" y="152" on="1"/>
        <pt x="105" y="109" on="0"/>
        <pt x="173" y="56" on="0"/>
        <pt x="230" y="56" on="1"/>
        <pt x="281" y="56" on="0"/>
        <pt x="337" y="109" on="0"/>
        <pt x="337" y="156" on="1"/>
        <pt x="337" y="230" on="1"/>
      </contour>
      <contour>
        <pt x="201" y="293" on="1"/>
        <pt x="337" y="293" on="1"/>
        <pt x="337" y="433" on="1"/>
        <pt x="201" y="433" on="1"/>
      </contour>
      <contour>
        <pt x="572" y="683" on="1"/>
        <pt x="572" y="710" on="0"/>
        <pt x="535" y="742" on="0"/>
        <pt x="510" y="744" on="1"/>
        <pt x="492" y="736" on="0"/>
        <pt x="469" y="703" on="0"/>
        <pt x="469" y="682" on="1"/>
        <pt x="469" y="658" on="0"/>
        <pt x="499" y="630" on="0"/>
        <pt x="521" y="630" on="1"/>
        <pt x="542" y="630" on="0"/>
        <pt x="572" y="657" on="0"/>
      </contour>
    </TTGlyph>
    <TTGlyph name="CaMatraU.tm" xMin="32" yMin="-7" xMax="634" yMax="495">
      <contour>
        <pt x="561" y="495" on="1"/>
        <pt x="561" y="433" on="1"/>
        <pt x="409" y="433" on="1"/>
        <pt x="409" y="293" on="1"/>
        <pt x="634" y="293" on="1"/>
        <pt x="634" y="231" on="1"/>
        <pt x="577" y="231" on="1"/>
        <pt x="577" y="0" on="1"/>
        <pt x="504" y="0" on="1"/>
        <pt x="504" y="231" on="1"/>
        <pt x="409" y="231" on="1"/>
        <pt x="409" y="146" on="1"/>
        <pt x="409" y="79" on="0"/>
        <pt x="313" y="-7" on="0"/>
        <pt x="226" y="-7" on="1"/>
        <pt x="185" y="-7" on="0"/>
        <pt x="114" y="15" on="0"/>
        <pt x="62" y="57" on="0"/>
        <pt x="32" y="116" on="0"/>
        <pt x="32" y="153" on="1"/>
        <pt x="32" y="180" on="0"/>
        <pt x="48" y="224" on="0"/>
        <pt x="75" y="257" on="0"/>
        <pt x="110" y="279" on="0"/>
        <pt x="129" y="283" on="1"/>
        <pt x="129" y="495" on="1"/>
      </contour>
      <contour>
        <pt x="197" y="230" on="1"/>
        <pt x="155" y="230" on="0"/>
        <pt x="105" y="190" on="0"/>
        <pt x="105" y="152" on="1"/>
        <pt x="105" y="109" on="0"/>
        <pt x="173" y="56" on="0"/>
        <pt x="230" y="56" on="1"/>
        <pt x="281" y="56" on="0"/>
        <pt x="337" y="109" on="0"/>
        <pt x="337" y="156" on="1"/>
        <pt x="337" y="230" on="1"/>
      </contour>
      <contour>
        <pt x="201" y="293" on="1"/>
        <pt x="337" y="293" on="1"/>
        <pt x="337" y="433" on="1"/>
        <pt x="201" y="433" on="1"/>
      </contour>
    </TTGlyph>
    <TTGlyph name="CaMatraUu.tm" xMin="40" yMin="-277" xMax="1033" yMax="502">
      <contour>
        <pt x="904" y="191" on="1"/>
        <pt x="932" y="191" on="0"/>
        <pt x="979" y="168" on="0"/>
        <pt x="1014" y="128" on="0"/>
        <pt x="1033" y="73" on="0"/>
        <pt x="1033" y="41" on="1"/>
        <pt x="1033" y="-27" on="0"/>
        <pt x="965" y="-143" on="0"/>
        <pt x="840" y="-229" on="0"/>
        <pt x="664" y="-277" on="0"/>
        <pt x="555" y="-277" on="1"/>
        <pt x="439" y="-277" on="0"/>
        <pt x="250" y="-216" on="0"/>
        <pt x="114" y="-104" on="0"/>
        <pt x="40" y="51" on="0"/>
        <pt x="40" y="146" on="1"/>
        <pt x="40" y="207" on="0"/>
        <pt x="66" y="314" on="0"/>
        <pt x="111" y="403" on="0"/>
        <pt x="170" y="475" on="0"/>
        <pt x="204" y="502" on="1"/>
        <pt x="250" y="453" on="1"/>
        <pt x="223" y="427" on="0"/>
        <pt x="174" y="365" on="0"/>
        <pt x="137" y="288" on="0"/>
        <pt x="116" y="198" on="0"/>
        <pt x="116" y="146" on="1"/>
        <pt x="116" y="66" on="0"/>
        <pt x="180" y="-66" on="0"/>
        <pt x="296" y="-160" on="0"/>
        <pt x="460" y="-212" on="0"/>
        <pt x="559" y="-212" on="1"/>
        <pt x="650" y="-212" on="0"/>
        <pt x="798" y="-173" on="0"/>
        <pt x="902" y="-106" on="0"/>
        <pt x="958" y="-13" on="0"/>
        <pt x="958" y="41" on="1"/>
        <pt x="958" y="80" on="0"/>
        <pt x="920" y="130" on="0"/>
        <pt x="884" y="130" on="1"/>
        <pt x="860" y="130" on="0"/>
        <pt x="818" y="97" on="0"/>
        <pt x="808" y="65" on="1"/>
        <pt x="808" y="0" on="1"/>
        <pt x="735" y="0" on="1"/>
        <pt x="735" y="230" on="1"/>
        <pt x="640" y="230" on="1"/>
        <pt x="640" y="146" on="1"/>
        <pt x="640" y="79" on="0"/>
        <pt x="544" y="-7" on="0"/>
        <pt x="457" y="-7" on="1"/>
        <pt x="416" y="-7" on="0"/>
        <pt x="345" y="15" on="0"/>
        <pt x="293" y="57" on="0"/>
        <pt x="263" y="116" on="0"/>
        <pt x="263" y="153" on="1"/>
        <pt x="263" y="180" on="0"/>
        <pt x="279" y="224" on="0"/>
        <pt x="306" y="257" on="0"/>
        <pt x="341" y="279" on="0"/>
        <pt x="360" y="283" on="1"/>
        <pt x="360" y="495" on="1"/>
        <pt x="798" y="495" on="1"/>
        <pt x="798" y="433" on="1"/>
        <pt x="640" y="433" on="1"/>
        <pt x="640" y="293" on="1"/>
        <pt x="885" y="293" on="1"/>
        <pt x="885" y="233" on="1"/>
        <pt x="805" y="233" on="1"/>
        <pt x="805" y="141" on="1"/>
        <pt x="821" y="164" on="0"/>
        <pt x="872" y="191" on="0"/>
      </contour>
      <contour>
        <pt x="428" y="230" on="1"/>
        <pt x="386" y="230" on="0"/>
        <pt x="336" y="190" on="0"/>
        <pt x="336" y="152" on="1"/>
        <pt x="336" y="109" on="0"/>
        <pt x="404" y="56" on="0"/>
        <pt x="461" y="56" on="1"/>
        <pt x="512" y="56" on="0"/>
        <pt x="568" y="109" on="0"/>
        <pt x="568" y="156" on="1"/>
        <pt x="568" y="230" on="1"/>
      </contour>
      <contour>
        <pt x="432" y="293" on="1"/>
        <pt x="568" y="293" on="1"/>
        <pt x="568" y="433" on="1"/>
        <pt x="432" y="433" on="1"/>
      </contour>
    </TTGlyph>
    <TTGlyph name="CaPulli.tm" xMin="32" yMin="-7" xMax="579" yMax="703">
      <contour>
        <pt x="559" y="495" on="1"/>
        <pt x="559" y="433" on="1"/>
        <pt x="409" y="433" on="1"/>
        <pt x="409" y="293" on="1"/>
        <pt x="579" y="293" on="1"/>
        <pt x="579" y="231" on="1"/>
        <pt x="409" y="231" on="1"/>
        <pt x="409" y="146" on="1"/>
        <pt x="409" y="79" on="0"/>
        <pt x="313" y="-7" on="0"/>
        <pt x="226" y="-7" on="1"/>
        <pt x="185" y="-7" on="0"/>
        <pt x="114" y="15" on="0"/>
        <pt x="62" y="57" on="0"/>
        <pt x="32" y="116" on="0"/>
        <pt x="32" y="153" on="1"/>
        <pt x="32" y="180" on="0"/>
        <pt x="48" y="224" on="0"/>
        <pt x="75" y="257" on="0"/>
        <pt x="110" y="279" on="0"/>
        <pt x="129" y="283" on="1"/>
        <pt x="129" y="495" on="1"/>
      </contour>
      <contour>
        <pt x="197" y="230" on="1"/>
        <pt x="155" y="230" on="0"/>
        <pt x="105" y="190" on="0"/>
        <pt x="105" y="152" on="1"/>
        <pt x="105" y="109" on="0"/>
        <pt x="173" y="56" on="0"/>
        <pt x="230" y="56" on="1"/>
        <pt x="281" y="56" on="0"/>
        <pt x="337" y="109" on="0"/>
        <pt x="337" y="156" on="1"/>
        <pt x="337" y="230" on="1"/>
      </contour>
      <contour>
        <pt x="201" y="293" on="1"/>
        <pt x="337" y="293" on="1"/>
        <pt x="337" y="433" on="1"/>
        <pt x="201" y="433" on="1"/>
      </contour>
      <contour>
        <pt x="304" y="703" on="1"/>
        <pt x="329" y="703" on="0"/>
        <pt x="362" y="670" on="0"/>
        <pt x="362" y="647" on="1"/>
        <pt x="362" y="624" on="0"/>
        <pt x="329" y="591" on="0"/>
        <pt x="306" y="591" on="1"/>
        <pt x="281" y="591" on="0"/>
        <pt x="248" y="624" on="0"/>
        <pt x="248" y="647" on="1"/>
        <pt x="248" y="670" on="0"/>
        <pt x="281" y="703" on="0"/>
      </contour>
    </TTGlyph>
    <TTGlyph name="Cacute" xMin="45" yMin="-9" xMax="526" yMax="834">
      <contour>
        <pt x="355" y="67" on="1"/>
        <pt x="405" y="67" on="0"/>
        <pt x="470" y="83" on="0"/>
        <pt x="502" y="98" on="1"/>
        <pt x="523" y="24" on="1"/>
        <pt x="488" y="7" on="0"/>
        <pt x="405" y="-9" on="0"/>
        <pt x="345" y="-9" on="1"/>
        <pt x="283" y="-9" on="0"/>
        <pt x="173" y="33" on="0"/>
        <pt x="92" y="115" on="0"/>
        <pt x="45" y="236" on="0"/>
        <pt x="45" y="315" on="1"/>
        <pt x="45" y="392" on="0"/>
        <pt x="91" y="513" on="0"/>
        <pt x="172" y="596" on="0"/>
        <pt x="284" y="639" on="0"/>
        <pt x="350" y="639" on="1"/>
        <pt x="412" y="639" on="0"/>
        <pt x="492" y="619" on="0"/>
        <pt x="526" y="602" on="1"/>
        <pt x="504" y="530" on="1"/>
        <pt x="485" y="538" on="0"/>
        <pt x="452" y="551" on="0"/>
        <pt x="419" y="559" on="0"/>
        <pt x="384" y="563" on="0"/>
        <pt x="362" y="563" on="1"/>
        <pt x="318" y="563" on="0"/>
        <pt x="239" y="536" on="0"/>
        <pt x="180" y="476" on="0"/>
        <pt x="145" y="381" on="0"/>
        <pt x="145" y="314" on="1"/>
        <pt x="145" y="246" on="0"/>
        <pt x="179" y="152" on="0"/>
        <pt x="236" y="94" on="0"/>
        <pt x="312" y="67" on="0"/>
      </contour>
      <contour>
        <pt x="324" y="710" on="1"/>
        <pt x="252" y="710" on="1"/>
        <pt x="332" y="834" on="1"/>
        <pt x="435" y="834" on="1"/>
      </contour>
    </TTGlyph>
    <TTGlyph name="Ccaron" xMin="45" yMin="-9" xMax="526" yMax="845">
      <contour>
        <pt x="355" y="67" on="1"/>
        <pt x="405" y="67" on="0"/>
        <pt x="470" y="83" on="0"/>
        <pt x="502" y="98" on="1"/>
        <pt x="523" y="24" on="1"/>
        <pt x="488" y="7" on="0"/>
        <pt x="405" y="-9" on="0"/>
        <pt x="345" y="-9" on="1"/>
        <pt x="283" y="-9" on="0"/>
        <pt x="173" y="33" on="0"/>
        <pt x="92" y="115" on="0"/>
        <pt x="45" y="236" on="0"/>
        <pt x="45" y="315" on="1"/>
        <pt x="45" y="392" on="0"/>
        <pt x="91" y="513" on="0"/>
        <pt x="172" y="596" on="0"/>
        <pt x="284" y="639" on="0"/>
        <pt x="350" y="639" on="1"/>
        <pt x="412" y="639" on="0"/>
        <pt x="492" y="619" on="0"/>
        <pt x="526" y="602" on="1"/>
        <pt x="504" y="530" on="1"/>
        <pt x="485" y="538" on="0"/>
        <pt x="452" y="551" on="0"/>
        <pt x="419" y="559" on="0"/>
        <pt x="384" y="563" on="0"/>
        <pt x="362" y="563" on="1"/>
        <pt x="318" y="563" on="0"/>
        <pt x="239" y="536" on="0"/>
        <pt x="180" y="476" on="0"/>
        <pt x="145" y="381" on="0"/>
        <pt x="145" y="314" on="1"/>
        <pt x="145" y="246" on="0"/>
        <pt x="179" y="152" on="0"/>
        <pt x="236" y="94" on="0"/>
        <pt x="312" y="67" on="0"/>
      </contour>
      <contour>
        <pt x="186" y="845" on="1"/>
        <pt x="266" y="845" on="1"/>
        <pt x="344" y="758" on="1"/>
        <pt x="423" y="845" on="1"/>
        <pt x="502" y="845" on="1"/>
        <pt x="377" y="711" on="1"/>
        <pt x="308" y="711" on="1"/>
      </contour>
    </TTGlyph>
    <TTGlyph name="Ccedilla" xMin="45" yMin="-214" xMax="526" yMax="639">
      <contour>
        <pt x="355" y="67" on="1"/>
        <pt x="405" y="67" on="0"/>
        <pt x="470" y="83" on="0"/>
        <pt x="502" y="98" on="1"/>
        <pt x="523" y="24" on="1"/>
        <pt x="488" y="8" on="0"/>
        <pt x="410" y="-8" on="0"/>
        <pt x="353" y="-9" on="1"/>
        <pt x="336" y="-47" on="1"/>
        <pt x="364" y="-48" on="0"/>
        <pt x="402" y="-62" on="0"/>
        <pt x="424" y="-85" on="0"/>
        <pt x="434" y="-112" on="0"/>
        <pt x="434" y="-127" on="1"/>
        <pt x="434" y="-169" on="0"/>
        <pt x="365" y="-214" on="0"/>
        <pt x="313" y="-214" on="1"/>
        <pt x="290" y="-214" on="0"/>
        <pt x="251" y="-207" on="0"/>
        <pt x="239" y="-202" on="1"/>
        <pt x="251" y="-160" on="1"/>
        <pt x="264" y="-165" on="0"/>
        <pt x="292" y="-169" on="0"/>
        <pt x="306" y="-169" on="1"/>
        <pt x="374" y="-169" on="0"/>
        <pt x="374" y="-129" on="1"/>
        <pt x="374" y="-119" on="0"/>
        <pt x="367" y="-100" on="0"/>
        <pt x="345" y="-86" on="0"/>
        <pt x="306" y="-78" on="0"/>
        <pt x="273" y="-78" on="1"/>
        <pt x="307" y="-7" on="1"/>
        <pt x="251" y="-1" on="0"/>
        <pt x="156" y="47" on="0"/>
        <pt x="85" y="128" on="0"/>
        <pt x="45" y="242" on="0"/>
        <pt x="45" y="315" on="1"/>
        <pt x="45" y="392" on="0"/>
        <pt x="91" y="513" on="0"/>
        <pt x="172" y="596" on="0"/>
        <pt x="284" y="639" on="0"/>
        <pt x="350" y="639" on="1"/>
        <pt x="412" y="639" on="0"/>
        <pt x="492" y="619" on="0"/>
        <pt x="526" y="602" on="1"/>
        <pt x="504" y="530" on="1"/>
        <pt x="485" y="538" on="0"/>
        <pt x="452" y="551" on="0"/>
        <pt x="419" y="559" on="0"/>
        <pt x="384" y="563" on="0"/>
        <pt x="362" y="563" on="1"/>
        <pt x="318" y="563" on="0"/>
        <pt x="239" y="536" on="0"/>
        <pt x="180" y="476" on="0"/>
        <pt x="145" y="381" on="0"/>
        <pt x="145" y="314" on="1"/>
        <pt x="145" y="246" on="0"/>
        <pt x="179" y="152" on="0"/>
        <pt x="236" y="94" on="0"/>
        <pt x="312" y="67" on="0"/>
      </contour>
    </TTGlyph>
    <TTGlyph name="Ccircumflex" xMin="45" yMin="-9" xMax="526" yMax="844">
      <contour>
        <pt x="355" y="67" on="1"/>
        <pt x="405" y="67" on="0"/>
        <pt x="470" y="83" on="0"/>
        <pt x="502" y="98" on="1"/>
        <pt x="523" y="24" on="1"/>
        <pt x="488" y="7" on="0"/>
        <pt x="405" y="-9" on="0"/>
        <pt x="345" y="-9" on="1"/>
        <pt x="283" y="-9" on="0"/>
        <pt x="173" y="33" on="0"/>
        <pt x="92" y="115" on="0"/>
        <pt x="45" y="236" on="0"/>
        <pt x="45" y="315" on="1"/>
        <pt x="45" y="392" on="0"/>
        <pt x="91" y="513" on="0"/>
        <pt x="172" y="596" on="0"/>
        <pt x="284" y="639" on="0"/>
        <pt x="350" y="639" on="1"/>
        <pt x="412" y="639" on="0"/>
        <pt x="492" y="619" on="0"/>
        <pt x="526" y="602" on="1"/>
        <pt x="504" y="530" on="1"/>
        <pt x="485" y="538" on="0"/>
        <pt x="452" y="551" on="0"/>
        <pt x="419" y="559" on="0"/>
        <pt x="384" y="563" on="0"/>
        <pt x="362" y="563" on="1"/>
        <pt x="318" y="563" on="0"/>
        <pt x="239" y="536" on="0"/>
        <pt x="180" y="476" on="0"/>
        <pt x="145" y="381" on="0"/>
        <pt x="145" y="314" on="1"/>
        <pt x="145" y="246" on="0"/>
        <pt x="179" y="152" on="0"/>
        <pt x="236" y="94" on="0"/>
        <pt x="312" y="67" on="0"/>
      </contour>
      <contour>
        <pt x="298" y="844" on="1"/>
        <pt x="367" y="844" on="1"/>
        <pt x="492" y="710" on="1"/>
        <pt x="412" y="710" on="1"/>
        <pt x="332" y="794" on="1"/>
        <pt x="252" y="710" on="1"/>
        <pt x="176" y="710" on="1"/>
      </contour>
    </TTGlyph>
    <TTGlyph name="Cdotaccent" xMin="45" yMin="-9" xMax="526" yMax="822">
      <contour>
        <pt x="355" y="67" on="1"/>
        <pt x="405" y="67" on="0"/>
        <pt x="470" y="83" on="0"/>
        <pt x="502" y="98" on="1"/>
        <pt x="523" y="24" on="1"/>
        <pt x="488" y="7" on="0"/>
        <pt x="405" y="-9" on="0"/>
        <pt x="345" y="-9" on="1"/>
        <pt x="283" y="-9" on="0"/>
        <pt x="173" y="33" on="0"/>
        <pt x="92" y="115" on="0"/>
        <pt x="45" y="236" on="0"/>
        <pt x="45" y="315" on="1"/>
        <pt x="45" y="392" on="0"/>
        <pt x="91" y="513" on="0"/>
        <pt x="172" y="596" on="0"/>
        <pt x="284" y="639" on="0"/>
        <pt x="350" y="639" on="1"/>
        <pt x="412" y="639" on="0"/>
        <pt x="492" y="619" on="0"/>
        <pt x="526" y="602" on="1"/>
        <pt x="504" y="530" on="1"/>
        <pt x="485" y="538" on="0"/>
        <pt x="452" y="551" on="0"/>
        <pt x="419" y="559" on="0"/>
        <pt x="384" y="563" on="0"/>
        <pt x="362" y="563" on="1"/>
        <pt x="318" y="563" on="0"/>
        <pt x="239" y="536" on="0"/>
        <pt x="180" y="476" on="0"/>
        <pt x="145" y="381" on="0"/>
        <pt x="145" y="314" on="1"/>
        <pt x="145" y="246" on="0"/>
        <pt x="179" y="152" on="0"/>
        <pt x="236" y="94" on="0"/>
        <pt x="312" y="67" on="0"/>
      </contour>
      <contour>
        <pt x="289" y="767" on="1"/>
        <pt x="289" y="788" on="0"/>
        <pt x="323" y="822" on="0"/>
        <pt x="345" y="822" on="1"/>
        <pt x="368" y="822" on="0"/>
        <pt x="401" y="788" on="0"/>
        <pt x="401" y="767" on="1"/>
        <pt x="401" y="744" on="0"/>
        <pt x="368" y="710" on="0"/>
        <pt x="345" y="710" on="1"/>
        <pt x="323" y="710" on="0"/>
        <pt x="289" y="744" on="0"/>
      </contour>
    </TTGlyph>
    <TTGlyph name="CreditSign.tm" xMin="44" yMin="-7" xMax="1269" yMax="495">
      <contour>
        <pt x="890" y="395" on="1"/>
        <pt x="943" y="395" on="0"/>
        <pt x="1029" y="364" on="0"/>
        <pt x="1090" y="308" on="0"/>
        <pt x="1123" y="230" on="0"/>
        <pt x="1123" y="183" on="1"/>
        <pt x="1123" y="142" on="0"/>
        <pt x="1104" y="82" on="0"/>
        <pt x="1093" y="63" on="1"/>
        <pt x="1269" y="63" on="1"/>
        <pt x="1269" y="0" on="1"/>
        <pt x="1035" y="0" on="1"/>
        <pt x="1011" y="48" on="1"/>
        <pt x="1030" y="76" on="0"/>
        <pt x="1051" y="140" on="0"/>
        <pt x="1051" y="182" on="1"/>
        <pt x="1051" y="254" on="0"/>
        <pt x="963" y="334" on="0"/>
        <pt x="886" y="334" on="1"/>
        <pt x="838" y="334" on="0"/>
        <pt x="763" y="291" on="0"/>
        <pt x="747" y="256" on="1"/>
        <pt x="775" y="273" on="0"/>
        <pt x="813" y="273" on="1"/>
        <pt x="844" y="273" on="0"/>
        <pt x="898" y="255" on="0"/>
        <pt x="938" y="220" on="0"/>
        <pt x="961" y="168" on="0"/>
        <pt x="961" y="134" on="1"/>
        <pt x="961" y="104" on="0"/>
        <pt x="939" y="52" on="0"/>
        <pt x="899" y="14" on="0"/>
        <pt x="843" y="-7" on="0"/>
        <pt x="810" y="-7" on="1"/>
        <pt x="776" y="-7" on="0"/>
        <pt x="723" y="17" on="0"/>
        <pt x="687" y="58" on="0"/>
        <pt x="666" y="112" on="0"/>
        <pt x="665" y="143" on="1"/>
        <pt x="651" y="129" on="0"/>
        <pt x="621" y="92" on="0"/>
        <pt x="594" y="53" on="0"/>
        <pt x="572" y="15" on="0"/>
        <pt x="566" y="0" on="1"/>
        <pt x="499" y="0" on="1"/>
        <pt x="499" y="433" on="1"/>
        <pt x="346" y="433" on="1"/>
        <pt x="300" y="433" on="0"/>
        <pt x="219" y="408" on="0"/>
        <pt x="158" y="359" on="0"/>
        <pt x="118" y="283" on="0"/>
        <pt x="113" y="232" on="1"/>
        <pt x="132" y="259" on="0"/>
        <pt x="194" y="293" on="0"/>
        <pt x="232" y="293" on="1"/>
        <pt x="264" y="293" on="0"/>
        <pt x="318" y="271" on="0"/>
        <pt x="357" y="232" on="0"/>
        <pt x="379" y="178" on="0"/>
        <pt x="379" y="147" on="1"/>
        <pt x="379" y="112" on="0"/>
        <pt x="355" y="56" on="0"/>
        <pt x="313" y="15" on="0"/>
        <pt x="254" y="-7" on="0"/>
        <pt x="219" y="-7" on="1"/>
        <pt x="180" y="-7" on="0"/>
        <pt x="116" y="24" on="0"/>
        <pt x="70" y="81" on="0"/>
        <pt x="44" y="161" on="0"/>
        <pt x="44" y="211" on="1"/>
        <pt x="44" y="281" on="0"/>
        <pt x="92" y="387" on="0"/>
        <pt x="174" y="459" on="0"/>
        <pt x="286" y="495" on="0"/>
        <pt x="350" y="495" on="1"/>
        <pt x="682" y="495" on="1"/>
        <pt x="682" y="433" on="1"/>
        <pt x="572" y="433" on="1"/>
        <pt x="572" y="117" on="1"/>
        <pt x="590" y="145" on="0"/>
        <pt x="641" y="197" on="0"/>
        <pt x="667" y="216" on="1"/>
        <pt x="675" y="255" on="0"/>
        <pt x="714" y="321" on="0"/>
        <pt x="773" y="368" on="0"/>
        <pt x="847" y="395" on="0"/>
      </contour>
      <contour>
        <pt x="217" y="230" on="1"/>
        <pt x="198" y="230" on="0"/>
        <pt x="167" y="217" on="0"/>
        <pt x="141" y="195" on="0"/>
        <pt x="123" y="168" on="0"/>
        <pt x="117" y="153" on="1"/>
        <pt x="126" y="105" on="0"/>
        <pt x="184" y="56" on="0"/>
        <pt x="219" y="56" on="1"/>
        <pt x="258" y="56" on="0"/>
        <pt x="305" y="106" on="0"/>
        <pt x="305" y="144" on="1"/>
        <pt x="305" y="182" on="0"/>
        <pt x="259" y="230" on="0"/>
      </contour>
      <contour>
        <pt x="806" y="214" on="1"/>
        <pt x="783" y="214" on="0"/>
        <pt x="747" y="199" on="0"/>
        <pt x="733" y="187" on="1"/>
        <pt x="731" y="179" on="0"/>
        <pt x="731" y="165" on="0"/>
        <pt x="731" y="157" on="1"/>
        <pt x="731" y="110" on="0"/>
        <pt x="775" y="56" on="0"/>
        <pt x="813" y="56" on="1"/>
        <pt x="845" y="56" on="0"/>
        <pt x="890" y="99" on="0"/>
        <pt x="890" y="134" on="1"/>
        <pt x="890" y="171" on="0"/>
        <pt x="843" y="214" on="0"/>
      </contour>
    </TTGlyph>
    <TTGlyph name="Csmall" xMin="45" yMin="-9" xMax="424" yMax="477">
      <contour>
        <pt x="302" y="59" on="1"/>
        <pt x="334" y="59" on="0"/>
        <pt x="382" y="73" on="0"/>
        <pt x="405" y="84" on="1"/>
        <pt x="424" y="18" on="1"/>
        <pt x="370" y="-9" on="0"/>
        <pt x="295" y="-9" on="1"/>
        <pt x="242" y="-9" on="0"/>
        <pt x="151" y="21" on="0"/>
        <pt x="83" y="82" on="0"/>
        <pt x="45" y="173" on="0"/>
        <pt x="45" y="234" on="1"/>
        <pt x="45" y="290" on="0"/>
        <pt x="81" y="380" on="0"/>
        <pt x="146" y="443" on="0"/>
        <pt x="238" y="477" on="0"/>
        <pt x="294" y="477" on="1"/>
        <pt x="325" y="477" on="0"/>
        <pt x="384" y="468" on="0"/>
        <pt x="422" y="451" on="1"/>
        <pt x="402" y="384" on="1"/>
        <pt x="356" y="410" on="0"/>
        <pt x="303" y="410" on="1"/>
        <pt x="226" y="410" on="0"/>
        <pt x="135" y="319" on="0"/>
        <pt x="135" y="237" on="1"/>
        <pt x="135" y="186" on="0"/>
        <pt x="163" y="118" on="0"/>
        <pt x="210" y="77" on="0"/>
        <pt x="270" y="59" on="0"/>
      </contour>
    </TTGlyph>
    <TTGlyph name="D" xMin="80" yMin="0" xMax="596" yMax="630">
      <contour>
        <pt x="285" y="630" on="1"/>
        <pt x="352" y="630" on="0"/>
        <pt x="466" y="592" on="0"/>
        <pt x="549" y="517" on="0"/>
        <pt x="596" y="404" on="0"/>
        <pt x="596" y="329" on="1"/>
        <pt x="596" y="238" on="0"/>
        <pt x="540" y="112" on="0"/>
        <pt x="445" y="34" on="0"/>
        <pt x="320" y="0" on="0"/>
        <pt x="250" y="0" on="1"/>
        <pt x="80" y="0" on="1"/>
        <pt x="80" y="630" on="1"/>
      </contour>
      <contour>
        <pt x="172" y="76" on="1"/>
        <pt x="241" y="76" on="1"/>
        <pt x="289" y="76" on="0"/>
        <pt x="381" y="97" on="0"/>
        <pt x="452" y="154" on="0"/>
        <pt x="496" y="252" on="0"/>
        <pt x="496" y="329" on="1"/>
        <pt x="496" y="383" on="0"/>
        <pt x="464" y="467" on="0"/>
        <pt x="404" y="524" on="0"/>
        <pt x="319" y="554" on="0"/>
        <pt x="267" y="554" on="1"/>
        <pt x="172" y="554" on="1"/>
      </contour>
    </TTGlyph>
    <TTGlyph name="DaySign.tm" xMin="46" yMin="-7" xMax="777" yMax="500">
      <contour>
        <pt x="326" y="500" on="1"/>
        <pt x="383" y="500" on="0"/>
        <pt x="481" y="461" on="0"/>
        <pt x="553" y="390" on="0"/>
        <pt x="594" y="292" on="0"/>
        <pt x="594" y="233" on="1"/>
        <pt x="594" y="206" on="0"/>
        <pt x="585" y="154" on="0"/>
        <pt x="571" y="109" on="0"/>
        <pt x="554" y="74" on="0"/>
        <pt x="547" y="63" on="1"/>
        <pt x="777" y="63" on="1"/>
        <pt x="777" y="0" on="1"/>
        <pt x="482" y="0" on="1"/>
        <pt x="459" y="48" on="1"/>
        <pt x="488" y="84" on="0"/>
        <pt x="517" y="177" on="0"/>
        <pt x="517" y="228" on="1"/>
        <pt x="517" y="274" on="0"/>
        <pt x="490" y="350" on="0"/>
        <pt x="439" y="404" on="0"/>
        <pt x="367" y="434" on="0"/>
        <pt x="321" y="434" on="1"/>
        <pt x="274" y="434" on="0"/>
        <pt x="198" y="404" on="0"/>
        <pt x="144" y="350" on="0"/>
        <pt x="113" y="273" on="0"/>
        <pt x="112" y="227" on="1"/>
        <pt x="130" y="256" on="0"/>
        <pt x="194" y="293" on="0"/>
        <pt x="234" y="293" on="1"/>
        <pt x="266" y="293" on="0"/>
        <pt x="320" y="271" on="0"/>
        <pt x="359" y="232" on="0"/>
        <pt x="381" y="178" on="0"/>
        <pt x="381" y="147" on="1"/>
        <pt x="381" y="112" on="0"/>
        <pt x="357" y="56" on="0"/>
        <pt x="315" y="15" on="0"/>
        <pt x="256" y="-7" on="0"/>
        <pt x="221" y="-7" on="1"/>
        <pt x="182" y="-7" on="0"/>
        <pt x="118" y="25" on="0"/>
        <pt x="72" y="84" on="0"/>
        <pt x="46" y="167" on="0"/>
        <pt x="46" y="217" on="1"/>
        <pt x="46" y="280" on="0"/>
        <pt x="88" y="385" on="0"/>
        <pt x="162" y="459" on="0"/>
        <pt x="265" y="500" on="0"/>
      </contour>
      <contour>
        <pt x="219" y="230" on="1"/>
        <pt x="200" y="230" on="0"/>
        <pt x="169" y="217" on="0"/>
        <pt x="143" y="195" on="0"/>
        <pt x="125" y="168" on="0"/>
        <pt x="119" y="153" on="1"/>
        <pt x="128" y="105" on="0"/>
        <pt x="186" y="56" on="0"/>
        <pt x="221" y="56" on="1"/>
        <pt x="260" y="56" on="0"/>
        <pt x="307" y="106" on="0"/>
        <pt x="307" y="144" on="1"/>
        <pt x="307" y="182" on="0"/>
        <pt x="261" y="230" on="0"/>
      </contour>
    </TTGlyph>
    <TTGlyph name="Dcaron" xMin="80" yMin="0" xMax="596" yMax="845">
      <contour>
        <pt x="285" y="630" on="1"/>
        <pt x="352" y="630" on="0"/>
        <pt x="466" y="592" on="0"/>
        <pt x="549" y="517" on="0"/>
        <pt x="596" y="404" on="0"/>
        <pt x="596" y="329" on="1"/>
        <pt x="596" y="238" on="0"/>
        <pt x="540" y="112" on="0"/>
        <pt x="445" y="34" on="0"/>
        <pt x="320" y="0" on="0"/>
        <pt x="250" y="0" on="1"/>
        <pt x="80" y="0" on="1"/>
        <pt x="80" y="630" on="1"/>
      </contour>
      <contour>
        <pt x="172" y="76" on="1"/>
        <pt x="241" y="76" on="1"/>
        <pt x="289" y="76" on="0"/>
        <pt x="381" y="97" on="0"/>
        <pt x="452" y="154" on="0"/>
        <pt x="496" y="252" on="0"/>
        <pt x="496" y="329" on="1"/>
        <pt x="496" y="383" on="0"/>
        <pt x="464" y="467" on="0"/>
        <pt x="404" y="524" on="0"/>
        <pt x="319" y="554" on="0"/>
        <pt x="267" y="554" on="1"/>
        <pt x="172" y="554" on="1"/>
      </contour>
      <contour>
        <pt x="136" y="845" on="1"/>
        <pt x="212" y="845" on="1"/>
        <pt x="292" y="761" on="1"/>
        <pt x="372" y="845" on="1"/>
        <pt x="452" y="845" on="1"/>
        <pt x="327" y="711" on="1"/>
        <pt x="258" y="711" on="1"/>
      </contour>
    </TTGlyph>
    <TTGlyph name="Dcroat" xMin="30" yMin="0" xMax="626" yMax="630">
      <contour>
        <pt x="315" y="630" on="1"/>
        <pt x="382" y="630" on="0"/>
        <pt x="496" y="592" on="0"/>
        <pt x="579" y="517" on="0"/>
        <pt x="626" y="404" on="0"/>
        <pt x="626" y="329" on="1"/>
        <pt x="626" y="238" on="0"/>
        <pt x="570" y="112" on="0"/>
        <pt x="475" y="34" on="0"/>
        <pt x="350" y="0" on="0"/>
        <pt x="280" y="0" on="1"/>
        <pt x="110" y="0" on="1"/>
        <pt x="110" y="298" on="1"/>
        <pt x="30" y="298" on="1"/>
        <pt x="30" y="360" on="1"/>
        <pt x="110" y="360" on="1"/>
        <pt x="110" y="630" on="1"/>
      </contour>
      <contour>
        <pt x="330" y="360" on="1"/>
        <pt x="330" y="298" on="1"/>
        <pt x="202" y="298" on="1"/>
        <pt x="202" y="76" on="1"/>
        <pt x="271" y="76" on="1"/>
        <pt x="319" y="76" on="0"/>
        <pt x="411" y="97" on="0"/>
        <pt x="482" y="154" on="0"/>
        <pt x="526" y="252" on="0"/>
        <pt x="526" y="329" on="1"/>
        <pt x="526" y="383" on="0"/>
        <pt x="494" y="467" on="0"/>
        <pt x="434" y="524" on="0"/>
        <pt x="349" y="554" on="0"/>
        <pt x="297" y="554" on="1"/>
        <pt x="202" y="554" on="1"/>
        <pt x="202" y="360" on="1"/>
      </contour>
    </TTGlyph>
    <TTGlyph name="DebitSign.tm" xMin="53" yMin="-288" xMax="810" yMax="495">
      <contour>
        <pt x="810" y="495" on="1"/>
        <pt x="810" y="-124" on="1"/>
        <pt x="582" y="-124" on="1"/>
        <pt x="575" y="-161" on="0"/>
        <pt x="529" y="-221" on="0"/>
        <pt x="454" y="-264" on="0"/>
        <pt x="355" y="-288" on="0"/>
        <pt x="295" y="-288" on="1"/>
        <pt x="240" y="-288" on="0"/>
        <pt x="151" y="-266" on="0"/>
        <pt x="88" y="-227" on="0"/>
        <pt x="53" y="-174" on="0"/>
        <pt x="53" y="-143" on="1"/>
        <pt x="53" y="-101" on="0"/>
        <pt x="108" y="-61" on="0"/>
        <pt x="154" y="-61" on="1"/>
        <pt x="515" y="-61" on="1"/>
        <pt x="515" y="0" on="1"/>
        <pt x="73" y="0" on="1"/>
        <pt x="73" y="495" on="1"/>
        <pt x="150" y="495" on="1"/>
        <pt x="150" y="67" on="1"/>
        <pt x="511" y="67" on="1"/>
        <pt x="511" y="495" on="1"/>
        <pt x="588" y="495" on="1"/>
        <pt x="588" y="-61" on="1"/>
        <pt x="734" y="-61" on="1"/>
        <pt x="734" y="495" on="1"/>
      </contour>
      <contour>
        <pt x="298" y="-225" on="1"/>
        <pt x="339" y="-225" on="0"/>
        <pt x="411" y="-211" on="0"/>
        <pt x="466" y="-184" on="0"/>
        <pt x="502" y="-147" on="0"/>
        <pt x="508" y="-124" on="1"/>
        <pt x="158" y="-124" on="1"/>
        <pt x="143" y="-124" on="0"/>
        <pt x="129" y="-139" on="0"/>
        <pt x="129" y="-150" on="1"/>
        <pt x="129" y="-166" on="0"/>
        <pt x="154" y="-194" on="0"/>
        <pt x="199" y="-214" on="0"/>
        <pt x="261" y="-225" on="0"/>
      </contour>
    </TTGlyph>
    <TTGlyph name="DottedCircle" xMin="10" yMin="-8" xMax="521" yMax="503">
      <contour>
        <pt x="236" y="21" on="1"/>
        <pt x="236" y="33" on="0"/>
        <pt x="253" y="52" on="0"/>
        <pt x="265" y="52" on="1"/>
        <pt x="277" y="52" on="0"/>
        <pt x="295" y="33" on="0"/>
        <pt x="295" y="21" on="1"/>
        <pt x="295" y="9" on="0"/>
        <pt x="277" y="-8" on="0"/>
        <pt x="265" y="-8" on="1"/>
        <pt x="253" y="-8" on="0"/>
        <pt x="236" y="10" on="0"/>
      </contour>
      <contour>
        <pt x="236" y="473" on="1"/>
        <pt x="236" y="487" on="0"/>
        <pt x="252" y="503" on="0"/>
        <pt x="265" y="503" on="1"/>
        <pt x="277" y="503" on="0"/>
        <pt x="295" y="486" on="0"/>
        <pt x="295" y="473" on="1"/>
        <pt x="295" y="461" on="0"/>
        <pt x="277" y="444" on="0"/>
        <pt x="265" y="444" on="1"/>
        <pt x="253" y="444" on="0"/>
        <pt x="236" y="461" on="0"/>
      </contour>
      <contour>
        <pt x="10" y="247" on="1"/>
        <pt x="10" y="259" on="0"/>
        <pt x="27" y="277" on="0"/>
        <pt x="39" y="277" on="1"/>
        <pt x="51" y="277" on="0"/>
        <pt x="69" y="259" on="0"/>
        <pt x="69" y="247" on="1"/>
        <pt x="69" y="235" on="0"/>
        <pt x="51" y="218" on="0"/>
        <pt x="39" y="218" on="1"/>
        <pt x="27" y="218" on="0"/>
        <pt x="10" y="235" on="0"/>
      </contour>
      <contour>
        <pt x="461" y="247" on="1"/>
        <pt x="461" y="259" on="0"/>
        <pt x="479" y="277" on="0"/>
        <pt x="491" y="277" on="1"/>
        <pt x="503" y="277" on="0"/>
        <pt x="521" y="259" on="0"/>
        <pt x="521" y="247" on="1"/>
        <pt x="521" y="235" on="0"/>
        <pt x="503" y="218" on="0"/>
        <pt x="491" y="218" on="1"/>
        <pt x="479" y="218" on="0"/>
        <pt x="461" y="235" on="0"/>
      </contour>
      <contour>
        <pt x="85" y="398" on="1"/>
        <pt x="85" y="410" on="0"/>
        <pt x="102" y="428" on="0"/>
        <pt x="114" y="428" on="1"/>
        <pt x="126" y="428" on="0"/>
        <pt x="144" y="410" on="0"/>
        <pt x="144" y="398" on="1"/>
        <pt x="144" y="386" on="0"/>
        <pt x="126" y="369" on="0"/>
        <pt x="114" y="369" on="1"/>
        <pt x="102" y="369" on="0"/>
        <pt x="85" y="386" on="0"/>
      </contour>
      <contour>
        <pt x="85" y="96" on="1"/>
        <pt x="85" y="110" on="0"/>
        <pt x="101" y="126" on="0"/>
        <pt x="114" y="126" on="1"/>
        <pt x="126" y="126" on="0"/>
        <pt x="144" y="109" on="0"/>
        <pt x="144" y="96" on="1"/>
        <pt x="144" y="84" on="0"/>
        <pt x="126" y="68" on="0"/>
        <pt x="114" y="68" on="1"/>
        <pt x="102" y="68" on="0"/>
        <pt x="85" y="84" on="0"/>
      </contour>
      <contour>
        <pt x="387" y="96" on="1"/>
        <pt x="387" y="110" on="0"/>
        <pt x="403" y="126" on="0"/>
        <pt x="416" y="126" on="1"/>
        <pt x="429" y="126" on="0"/>
        <pt x="445" y="110" on="0"/>
        <pt x="445" y="96" on="1"/>
        <pt x="445" y="84" on="0"/>
        <pt x="428" y="68" on="0"/>
        <pt x="416" y="68" on="1"/>
        <pt x="404" y="68" on="0"/>
        <pt x="387" y="84" on="0"/>
      </contour>
      <contour>
        <pt x="387" y="398" on="1"/>
        <pt x="387" y="410" on="0"/>
        <pt x="404" y="428" on="0"/>
        <pt x="416" y="428" on="1"/>
        <pt x="428" y="428" on="0"/>
        <pt x="445" y="410" on="0"/>
        <pt x="445" y="398" on="1"/>
        <pt x="445" y="386" on="0"/>
        <pt x="428" y="369" on="0"/>
        <pt x="416" y="369" on="1"/>
        <pt x="404" y="369" on="0"/>
        <pt x="387" y="386" on="0"/>
      </contour>
    </TTGlyph>
    <TTGlyph name="Dsmall" xMin="80" yMin="0" xMax="490" yMax="470">
      <contour>
        <pt x="243" y="470" on="1"/>
        <pt x="291" y="470" on="0"/>
        <pt x="380" y="446" on="0"/>
        <pt x="449" y="392" on="0"/>
        <pt x="490" y="307" on="0"/>
        <pt x="490" y="246" on="1"/>
        <pt x="490" y="182" on="0"/>
        <pt x="451" y="89" on="0"/>
        <pt x="383" y="29" on="0"/>
        <pt x="290" y="0" on="0"/>
        <pt x="237" y="0" on="1"/>
        <pt x="80" y="0" on="1"/>
        <pt x="80" y="470" on="1"/>
      </contour>
      <contour>
        <pt x="168" y="69" on="1"/>
        <pt x="217" y="69" on="1"/>
        <pt x="245" y="69" on="0"/>
        <pt x="310" y="81" on="0"/>
        <pt x="364" y="118" on="0"/>
        <pt x="400" y="186" on="0"/>
        <pt x="400" y="243" on="1"/>
        <pt x="400" y="323" on="0"/>
        <pt x="307" y="401" on="0"/>
        <pt x="217" y="401" on="1"/>
        <pt x="168" y="401" on="1"/>
      </contour>
    </TTGlyph>
    <TTGlyph name="E" xMin="80" yMin="0" xMax="463" yMax="630">
      <contour>
        <pt x="80" y="630" on="1"/>
        <pt x="460" y="630" on="1"/>
        <pt x="460" y="554" on="1"/>
        <pt x="172" y="554" on="1"/>
        <pt x="172" y="365" on="1"/>
        <pt x="434" y="365" on="1"/>
        <pt x="434" y="290" on="1"/>
        <pt x="172" y="290" on="1"/>
        <pt x="172" y="76" on="1"/>
        <pt x="463" y="76" on="1"/>
        <pt x="463" y="0" on="1"/>
        <pt x="80" y="0" on="1"/>
      </contour>
    </TTGlyph>
    <TTGlyph name="Eacute" xMin="80" yMin="0" xMax="463" yMax="834">
      <contour>
        <pt x="80" y="630" on="1"/>
        <pt x="460" y="630" on="1"/>
        <pt x="460" y="554" on="1"/>
        <pt x="172" y="554" on="1"/>
        <pt x="172" y="365" on="1"/>
        <pt x="434" y="365" on="1"/>
        <pt x="434" y="290" on="1"/>
        <pt x="172" y="290" on="1"/>
        <pt x="172" y="76" on="1"/>
        <pt x="463" y="76" on="1"/>
        <pt x="463" y="0" on="1"/>
        <pt x="80" y="0" on="1"/>
      </contour>
      <contour>
        <pt x="274" y="710" on="1"/>
        <pt x="202" y="710" on="1"/>
        <pt x="282" y="834" on="1"/>
        <pt x="385" y="834" on="1"/>
      </contour>
    </TTGlyph>
    <TTGlyph name="Ebreve" xMin="80" yMin="0" xMax="463" yMax="846">
      <contour>
        <pt x="80" y="630" on="1"/>
        <pt x="460" y="630" on="1"/>
        <pt x="460" y="554" on="1"/>
        <pt x="172" y="554" on="1"/>
        <pt x="172" y="365" on="1"/>
        <pt x="434" y="365" on="1"/>
        <pt x="434" y="290" on="1"/>
        <pt x="172" y="290" on="1"/>
        <pt x="172" y="76" on="1"/>
        <pt x="463" y="76" on="1"/>
        <pt x="463" y="0" on="1"/>
        <pt x="80" y="0" on="1"/>
      </contour>
      <contour>
        <pt x="208" y="846" on="1"/>
        <pt x="212" y="814" on="0"/>
        <pt x="239" y="776" on="0"/>
        <pt x="280" y="776" on="1"/>
        <pt x="315" y="776" on="0"/>
        <pt x="348" y="812" on="0"/>
        <pt x="352" y="846" on="1"/>
        <pt x="414" y="846" on="1"/>
        <pt x="414" y="792" on="0"/>
        <pt x="345" y="722" on="0"/>
        <pt x="280" y="722" on="1"/>
        <pt x="244" y="722" on="0"/>
        <pt x="193" y="743" on="0"/>
        <pt x="160" y="778" on="0"/>
        <pt x="145" y="823" on="0"/>
        <pt x="145" y="846" on="1"/>
      </contour>
    </TTGlyph>
    <TTGlyph name="Ecaron" xMin="80" yMin="0" xMax="463" yMax="845">
      <contour>
        <pt x="80" y="630" on="1"/>
        <pt x="460" y="630" on="1"/>
        <pt x="460" y="554" on="1"/>
        <pt x="172" y="554" on="1"/>
        <pt x="172" y="365" on="1"/>
        <pt x="434" y="365" on="1"/>
        <pt x="434" y="290" on="1"/>
        <pt x="172" y="290" on="1"/>
        <pt x="172" y="76" on="1"/>
        <pt x="463" y="76" on="1"/>
        <pt x="463" y="0" on="1"/>
        <pt x="80" y="0" on="1"/>
      </contour>
      <contour>
        <pt x="125" y="845" on="1"/>
        <pt x="205" y="845" on="1"/>
        <pt x="283" y="758" on="1"/>
        <pt x="362" y="845" on="1"/>
        <pt x="441" y="845" on="1"/>
        <pt x="316" y="711" on="1"/>
        <pt x="247" y="711" on="1"/>
      </contour>
    </TTGlyph>
    <TTGlyph name="Ecircumflex" xMin="80" yMin="0" xMax="463" yMax="844">
      <contour>
        <pt x="80" y="630" on="1"/>
        <pt x="460" y="630" on="1"/>
        <pt x="460" y="554" on="1"/>
        <pt x="172" y="554" on="1"/>
        <pt x="172" y="365" on="1"/>
        <pt x="434" y="365" on="1"/>
        <pt x="434" y="290" on="1"/>
        <pt x="172" y="290" on="1"/>
        <pt x="172" y="76" on="1"/>
        <pt x="463" y="76" on="1"/>
        <pt x="463" y="0" on="1"/>
        <pt x="80" y="0" on="1"/>
      </contour>
      <contour>
        <pt x="228" y="844" on="1"/>
        <pt x="297" y="844" on="1"/>
        <pt x="422" y="710" on="1"/>
        <pt x="342" y="710" on="1"/>
        <pt x="262" y="794" on="1"/>
        <pt x="182" y="710" on="1"/>
        <pt x="106" y="710" on="1"/>
      </contour>
    </TTGlyph>
    <TTGlyph name="Edieresis" xMin="80" yMin="0" xMax="463" yMax="810">
      <contour>
        <pt x="80" y="630" on="1"/>
        <pt x="460" y="630" on="1"/>
        <pt x="460" y="554" on="1"/>
        <pt x="172" y="554" on="1"/>
        <pt x="172" y="365" on="1"/>
        <pt x="434" y="365" on="1"/>
        <pt x="434" y="290" on="1"/>
        <pt x="172" y="290" on="1"/>
        <pt x="172" y="76" on="1"/>
        <pt x="463" y="76" on="1"/>
        <pt x="463" y="0" on="1"/>
        <pt x="80" y="0" on="1"/>
      </contour>
      <contour>
        <pt x="139" y="761" on="1"/>
        <pt x="139" y="780" on="0"/>
        <pt x="169" y="810" on="0"/>
        <pt x="189" y="810" on="1"/>
        <pt x="209" y="810" on="0"/>
        <pt x="239" y="780" on="0"/>
        <pt x="239" y="761" on="1"/>
        <pt x="239" y="741" on="0"/>
        <pt x="209" y="710" on="0"/>
        <pt x="189" y="710" on="1"/>
        <pt x="169" y="710" on="0"/>
        <pt x="139" y="741" on="0"/>
      </contour>
      <contour>
        <pt x="305" y="761" on="1"/>
        <pt x="305" y="780" on="0"/>
        <pt x="335" y="810" on="0"/>
        <pt x="355" y="810" on="1"/>
        <pt x="375" y="810" on="0"/>
        <pt x="405" y="780" on="0"/>
        <pt x="405" y="761" on="1"/>
        <pt x="405" y="741" on="0"/>
        <pt x="375" y="710" on="0"/>
        <pt x="355" y="710" on="1"/>
        <pt x="335" y="710" on="0"/>
        <pt x="305" y="741" on="0"/>
      </contour>
    </TTGlyph>
    <TTGlyph name="Edotaccent" xMin="80" yMin="0" xMax="463" yMax="822">
      <contour>
        <pt x="80" y="630" on="1"/>
        <pt x="460" y="630" on="1"/>
        <pt x="460" y="554" on="1"/>
        <pt x="172" y="554" on="1"/>
        <pt x="172" y="365" on="1"/>
        <pt x="434" y="365" on="1"/>
        <pt x="434" y="290" on="1"/>
        <pt x="172" y="290" on="1"/>
        <pt x="172" y="76" on="1"/>
        <pt x="463" y="76" on="1"/>
        <pt x="463" y="0" on="1"/>
        <pt x="80" y="0" on="1"/>
      </contour>
      <contour>
        <pt x="229" y="767" on="1"/>
        <pt x="229" y="788" on="0"/>
        <pt x="263" y="822" on="0"/>
        <pt x="285" y="822" on="1"/>
        <pt x="308" y="822" on="0"/>
        <pt x="341" y="788" on="0"/>
        <pt x="341" y="767" on="1"/>
        <pt x="341" y="744" on="0"/>
        <pt x="308" y="710" on="0"/>
        <pt x="285" y="710" on="1"/>
        <pt x="263" y="710" on="0"/>
        <pt x="229" y="744" on="0"/>
      </contour>
    </TTGlyph>
    <TTGlyph name="Egrave" xMin="80" yMin="0" xMax="463" yMax="834">
      <contour>
        <pt x="80" y="630" on="1"/>
        <pt x="460" y="630" on="1"/>
        <pt x="460" y="554" on="1"/>
        <pt x="172" y="554" on="1"/>
        <pt x="172" y="365" on="1"/>
        <pt x="434" y="365" on="1"/>
        <pt x="434" y="290" on="1"/>
        <pt x="172" y="290" on="1"/>
        <pt x="172" y="76" on="1"/>
        <pt x="463" y="76" on="1"/>
        <pt x="463" y="0" on="1"/>
        <pt x="80" y="0" on="1"/>
      </contour>
      <contour>
        <pt x="170" y="834" on="1"/>
        <pt x="273" y="834" on="1"/>
        <pt x="353" y="710" on="1"/>
        <pt x="281" y="710" on="1"/>
      </contour>
    </TTGlyph>
    <TTGlyph name="Eight.tm" xMin="18" yMin="-82" xMax="934" yMax="500">
      <contour>
        <pt x="661" y="199" on="1"/>
        <pt x="663" y="206" on="0"/>
        <pt x="665" y="227" on="0"/>
        <pt x="665" y="241" on="1"/>
        <pt x="665" y="281" on="0"/>
        <pt x="642" y="352" on="0"/>
        <pt x="596" y="404" on="0"/>
        <pt x="529" y="434" on="0"/>
        <pt x="485" y="434" on="1"/>
        <pt x="437" y="434" on="0"/>
        <pt x="386" y="389" on="0"/>
        <pt x="386" y="355" on="1"/>
        <pt x="386" y="329" on="0"/>
        <pt x="415" y="296" on="0"/>
        <pt x="435" y="288" on="1"/>
        <pt x="411" y="235" on="1"/>
        <pt x="367" y="246" on="0"/>
        <pt x="312" y="310" on="0"/>
        <pt x="312" y="356" on="1"/>
        <pt x="312" y="388" on="0"/>
        <pt x="339" y="441" on="0"/>
        <pt x="386" y="479" on="0"/>
        <pt x="451" y="500" on="0"/>
        <pt x="490" y="500" on="1"/>
        <pt x="548" y="500" on="0"/>
        <pt x="641" y="460" on="0"/>
        <pt x="706" y="390" on="0"/>
        <pt x="741" y="296" on="0"/>
        <pt x="741" y="241" on="1"/>
        <pt x="741" y="228" on="0"/>
        <pt x="740" y="206" on="0"/>
        <pt x="738" y="199" on="1"/>
        <pt x="860" y="199" on="1"/>
        <pt x="860" y="495" on="1"/>
        <pt x="934" y="495" on="1"/>
        <pt x="934" y="-82" on="1"/>
        <pt x="860" y="-82" on="1"/>
        <pt x="860" y="137" on="1"/>
        <pt x="728" y="137" on="1"/>
        <pt x="711" y="83" on="0"/>
        <pt x="640" y="4" on="0"/>
        <pt x="539" y="-47" on="0"/>
        <pt x="415" y="-71" on="0"/>
        <pt x="346" y="-71" on="1"/>
        <pt x="276" y="-71" on="0"/>
        <pt x="156" y="-48" on="0"/>
        <pt x="68" y="-4" on="0"/>
        <pt x="18" y="60" on="0"/>
        <pt x="18" y="101" on="1"/>
        <pt x="18" y="148" on="0"/>
        <pt x="79" y="199" on="0"/>
        <pt x="136" y="199" on="1"/>
      </contour>
      <contour>
        <pt x="349" y="-4" on="1"/>
        <pt x="462" y="-4" on="0"/>
        <pt x="621" y="68" on="0"/>
        <pt x="648" y="137" on="1"/>
        <pt x="145" y="137" on="1"/>
        <pt x="119" y="137" on="0"/>
        <pt x="97" y="114" on="0"/>
        <pt x="97" y="97" on="1"/>
        <pt x="97" y="76" on="0"/>
        <pt x="133" y="40" on="0"/>
        <pt x="199" y="12" on="0"/>
        <pt x="292" y="-4" on="0"/>
      </contour>
    </TTGlyph>
    <TTGlyph name="Ek_Type" xMin="100" yMin="-312" xMax="1089" yMax="636">
      <contour>
        <pt x="800" y="531" on="1"/>
        <pt x="800" y="403" on="1"/>
        <pt x="814" y="421" on="0"/>
        <pt x="867" y="447" on="0"/>
        <pt x="902" y="447" on="1"/>
        <pt x="977" y="447" on="0"/>
        <pt x="1062" y="351" on="0"/>
        <pt x="1062" y="266" on="1"/>
        <pt x="1062" y="224" on="0"/>
        <pt x="1037" y="156" on="0"/>
        <pt x="991" y="107" on="0"/>
        <pt x="925" y="81" on="0"/>
        <pt x="885" y="81" on="1"/>
        <pt x="876" y="81" on="0"/>
        <pt x="852" y="84" on="0"/>
        <pt x="841" y="87" on="1"/>
        <pt x="854" y="184" on="1"/>
        <pt x="869" y="184" on="1"/>
        <pt x="927" y="184" on="0"/>
        <pt x="927" y="266" on="1"/>
        <pt x="927" y="301" on="0"/>
        <pt x="894" y="340" on="0"/>
        <pt x="865" y="340" on="1"/>
        <pt x="836" y="340" on="0"/>
        <pt x="807" y="299" on="0"/>
        <pt x="803" y="276" on="1"/>
        <pt x="803" y="0" on="1"/>
        <pt x="672" y="0" on="1"/>
        <pt x="672" y="113" on="1"/>
        <pt x="657" y="95" on="0"/>
        <pt x="603" y="74" on="0"/>
        <pt x="579" y="74" on="1"/>
        <pt x="549" y="74" on="0"/>
        <pt x="489" y="94" on="0"/>
        <pt x="441" y="139" on="0"/>
        <pt x="411" y="211" on="0"/>
        <pt x="411" y="263" on="1"/>
        <pt x="411" y="352" on="0"/>
        <pt x="493" y="447" on="0"/>
        <pt x="568" y="447" on="1"/>
        <pt x="600" y="447" on="0"/>
        <pt x="654" y="428" on="0"/>
        <pt x="672" y="411" on="1"/>
        <pt x="672" y="531" on="1"/>
        <pt x="330" y="531" on="1"/>
        <pt x="330" y="50" on="1"/>
        <pt x="549" y="-40" on="0"/>
        <pt x="818" y="-164" on="0"/>
        <pt x="883" y="-197" on="1"/>
        <pt x="822" y="-312" on="1"/>
        <pt x="778" y="-291" on="0"/>
        <pt x="661" y="-235" on="0"/>
        <pt x="507" y="-163" on="0"/>
        <pt x="314" y="-73" on="0"/>
        <pt x="195" y="-18" on="1"/>
        <pt x="195" y="531" on="1"/>
        <pt x="100" y="531" on="1"/>
        <pt x="100" y="636" on="1"/>
        <pt x="1089" y="636" on="1"/>
        <pt x="1089" y="531" on="1"/>
      </contour>
      <contour>
        <pt x="675" y="309" on="1"/>
        <pt x="665" y="320" on="0"/>
        <pt x="633" y="338" on="0"/>
        <pt x="613" y="338" on="1"/>
        <pt x="584" y="338" on="0"/>
        <pt x="548" y="297" on="0"/>
        <pt x="548" y="262" on="1"/>
        <pt x="548" y="225" on="0"/>
        <pt x="582" y="182" on="0"/>
        <pt x="611" y="182" on="1"/>
        <pt x="667" y="182" on="0"/>
        <pt x="675" y="236" on="1"/>
      </contour>
    </TTGlyph>
    <TTGlyph name="Emacron" xMin="80" yMin="0" xMax="463" yMax="772">
      <contour>
        <pt x="80" y="630" on="1"/>
        <pt x="460" y="630" on="1"/>
        <pt x="460" y="554" on="1"/>
        <pt x="172" y="554" on="1"/>
        <pt x="172" y="365" on="1"/>
        <pt x="434" y="365" on="1"/>
        <pt x="434" y="290" on="1"/>
        <pt x="172" y="290" on="1"/>
        <pt x="172" y="76" on="1"/>
        <pt x="463" y="76" on="1"/>
        <pt x="463" y="0" on="1"/>
        <pt x="80" y="0" on="1"/>
      </contour>
      <contour>
        <pt x="393" y="772" on="1"/>
        <pt x="393" y="710" on="1"/>
        <pt x="148" y="710" on="1"/>
        <pt x="148" y="772" on="1"/>
      </contour>
    </TTGlyph>
    <TTGlyph name="Eng" xMin="80" yMin="-240" xMax="593" yMax="630">
      <contour>
        <pt x="80" y="630" on="1"/>
        <pt x="160" y="630" on="1"/>
        <pt x="447" y="211" on="1"/>
        <pt x="463" y="187" on="0"/>
        <pt x="494" y="135" on="0"/>
        <pt x="506" y="111" on="1"/>
        <pt x="508" y="111" on="1"/>
        <pt x="506" y="153" on="0"/>
        <pt x="503" y="239" on="0"/>
        <pt x="503" y="281" on="1"/>
        <pt x="503" y="630" on="1"/>
        <pt x="593" y="630" on="1"/>
        <pt x="593" y="66" on="1"/>
        <pt x="593" y="9" on="0"/>
        <pt x="580" y="-84" on="0"/>
        <pt x="544" y="-159" on="0"/>
        <pt x="480" y="-218" on="0"/>
        <pt x="430" y="-240" on="1"/>
        <pt x="389" y="-174" on="1"/>
        <pt x="416" y="-160" on="0"/>
        <pt x="455" y="-129" on="0"/>
        <pt x="483" y="-89" on="0"/>
        <pt x="500" y="-38" on="0"/>
        <pt x="503" y="-5" on="1"/>
        <pt x="229" y="394" on="1"/>
        <pt x="214" y="415" on="0"/>
        <pt x="182" y="468" on="0"/>
        <pt x="168" y="494" on="1"/>
        <pt x="166" y="494" on="1"/>
        <pt x="168" y="452" on="0"/>
        <pt x="170" y="368" on="0"/>
        <pt x="170" y="326" on="1"/>
        <pt x="170" y="0" on="1"/>
        <pt x="80" y="0" on="1"/>
      </contour>
    </TTGlyph>
    <TTGlyph name="Eogonek" xMin="80" yMin="-206" xMax="479" yMax="630">
      <contour>
        <pt x="463" y="0" on="1"/>
        <pt x="418" y="-20" on="0"/>
        <pt x="361" y="-64" on="0"/>
        <pt x="361" y="-95" on="1"/>
        <pt x="361" y="-119" on="0"/>
        <pt x="392" y="-146" on="0"/>
        <pt x="416" y="-146" on="1"/>
        <pt x="445" y="-146" on="0"/>
        <pt x="466" y="-138" on="1"/>
        <pt x="479" y="-185" on="1"/>
        <pt x="444" y="-206" on="0"/>
        <pt x="399" y="-206" on="1"/>
        <pt x="353" y="-206" on="0"/>
        <pt x="292" y="-156" on="0"/>
        <pt x="292" y="-109" on="1"/>
        <pt x="292" y="-71" on="0"/>
        <pt x="341" y="-16" on="0"/>
        <pt x="373" y="-2" on="1"/>
        <pt x="373" y="0" on="1"/>
        <pt x="80" y="0" on="1"/>
        <pt x="80" y="630" on="1"/>
        <pt x="460" y="630" on="1"/>
        <pt x="460" y="554" on="1"/>
        <pt x="172" y="554" on="1"/>
        <pt x="172" y="365" on="1"/>
        <pt x="434" y="365" on="1"/>
        <pt x="434" y="290" on="1"/>
        <pt x="172" y="290" on="1"/>
        <pt x="172" y="76" on="1"/>
        <pt x="463" y="76" on="1"/>
      </contour>
    </TTGlyph>
    <TTGlyph name="Esmall" xMin="80" yMin="0" xMax="399" yMax="470">
      <contour>
        <pt x="80" y="470" on="1"/>
        <pt x="397" y="470" on="1"/>
        <pt x="397" y="402" on="1"/>
        <pt x="166" y="402" on="1"/>
        <pt x="166" y="276" on="1"/>
        <pt x="375" y="276" on="1"/>
        <pt x="375" y="209" on="1"/>
        <pt x="166" y="209" on="1"/>
        <pt x="166" y="68" on="1"/>
        <pt x="399" y="68" on="1"/>
        <pt x="399" y="0" on="1"/>
        <pt x="80" y="0" on="1"/>
      </contour>
    </TTGlyph>
    <TTGlyph name="Eth" xMin="30" yMin="0" xMax="626" yMax="630">
      <contour>
        <pt x="315" y="630" on="1"/>
        <pt x="382" y="630" on="0"/>
        <pt x="496" y="592" on="0"/>
        <pt x="579" y="517" on="0"/>
        <pt x="626" y="404" on="0"/>
        <pt x="626" y="329" on="1"/>
        <pt x="626" y="238" on="0"/>
        <pt x="570" y="112" on="0"/>
        <pt x="475" y="34" on="0"/>
        <pt x="350" y="0" on="0"/>
        <pt x="280" y="0" on="1"/>
        <pt x="110" y="0" on="1"/>
        <pt x="110" y="298" on="1"/>
        <pt x="30" y="298" on="1"/>
        <pt x="30" y="360" on="1"/>
        <pt x="110" y="360" on="1"/>
        <pt x="110" y="630" on="1"/>
      </contour>
      <contour>
        <pt x="330" y="360" on="1"/>
        <pt x="330" y="298" on="1"/>
        <pt x="202" y="298" on="1"/>
        <pt x="202" y="76" on="1"/>
        <pt x="271" y="76" on="1"/>
        <pt x="319" y="76" on="0"/>
        <pt x="411" y="97" on="0"/>
        <pt x="482" y="154" on="0"/>
        <pt x="526" y="252" on="0"/>
        <pt x="526" y="329" on="1"/>
        <pt x="526" y="383" on="0"/>
        <pt x="494" y="467" on="0"/>
        <pt x="434" y="524" on="0"/>
        <pt x="349" y="554" on="0"/>
        <pt x="297" y="554" on="1"/>
        <pt x="202" y="554" on="1"/>
        <pt x="202" y="360" on="1"/>
      </contour>
    </TTGlyph>
    <TTGlyph name="Euro" xMin="20" yMin="-7" xMax="435" yMax="511">
      <contour>
        <pt x="300" y="511" on="1"/>
        <pt x="325" y="511" on="0"/>
        <pt x="363" y="507" on="0"/>
        <pt x="394" y="499" on="0"/>
        <pt x="421" y="487" on="0"/>
        <pt x="435" y="480" on="1"/>
        <pt x="415" y="420" on="1"/>
        <pt x="385" y="434" on="0"/>
        <pt x="339" y="446" on="0"/>
        <pt x="310" y="446" on="1"/>
        <pt x="282" y="446" on="0"/>
        <pt x="230" y="429" on="0"/>
        <pt x="188" y="395" on="0"/>
        <pt x="159" y="346" on="0"/>
        <pt x="156" y="313" on="1"/>
        <pt x="373" y="313" on="1"/>
        <pt x="373" y="267" on="1"/>
        <pt x="150" y="267" on="1"/>
        <pt x="150" y="258" on="1"/>
        <pt x="150" y="250" on="0"/>
        <pt x="150" y="236" on="0"/>
        <pt x="151" y="219" on="1"/>
        <pt x="373" y="219" on="1"/>
        <pt x="373" y="173" on="1"/>
        <pt x="157" y="173" on="1"/>
        <pt x="163" y="141" on="0"/>
        <pt x="190" y="98" on="0"/>
        <pt x="229" y="70" on="0"/>
        <pt x="278" y="58" on="0"/>
        <pt x="304" y="58" on="1"/>
        <pt x="338" y="58" on="0"/>
        <pt x="388" y="70" on="0"/>
        <pt x="414" y="82" on="1"/>
        <pt x="433" y="21" on="1"/>
        <pt x="404" y="6" on="0"/>
        <pt x="344" y="-7" on="0"/>
        <pt x="296" y="-7" on="1"/>
        <pt x="214" y="-7" on="0"/>
        <pt x="94" y="83" on="0"/>
        <pt x="78" y="173" on="1"/>
        <pt x="20" y="173" on="1"/>
        <pt x="20" y="219" on="1"/>
        <pt x="72" y="219" on="1"/>
        <pt x="71" y="234" on="0"/>
        <pt x="71" y="246" on="0"/>
        <pt x="71" y="253" on="1"/>
        <pt x="71" y="267" on="1"/>
        <pt x="20" y="267" on="1"/>
        <pt x="20" y="313" on="1"/>
        <pt x="78" y="313" on="1"/>
        <pt x="92" y="406" on="0"/>
        <pt x="206" y="511" on="0"/>
      </contour>
    </TTGlyph>
    <TTGlyph name="Euro.lat" xMin="5" yMin="-9" xMax="521" yMax="639">
      <contour>
        <pt x="360" y="67" on="1"/>
        <pt x="402" y="67" on="0"/>
        <pt x="465" y="83" on="0"/>
        <pt x="497" y="98" on="1"/>
        <pt x="518" y="24" on="1"/>
        <pt x="483" y="7" on="0"/>
        <pt x="409" y="-9" on="0"/>
        <pt x="350" y="-9" on="1"/>
        <pt x="299" y="-9" on="0"/>
        <pt x="209" y="20" on="0"/>
        <pt x="137" y="78" on="0"/>
        <pt x="88" y="165" on="0"/>
        <pt x="78" y="223" on="1"/>
        <pt x="5" y="223" on="1"/>
        <pt x="5" y="274" on="1"/>
        <pt x="71" y="274" on="1"/>
        <pt x="70" y="293" on="0"/>
        <pt x="70" y="308" on="0"/>
        <pt x="70" y="316" on="1"/>
        <pt x="70" y="334" on="1"/>
        <pt x="5" y="334" on="1"/>
        <pt x="5" y="385" on="1"/>
        <pt x="79" y="385" on="1"/>
        <pt x="96" y="503" on="0"/>
        <pt x="238" y="639" on="0"/>
        <pt x="355" y="639" on="1"/>
        <pt x="386" y="639" on="0"/>
        <pt x="433" y="634" on="0"/>
        <pt x="471" y="624" on="0"/>
        <pt x="504" y="611" on="0"/>
        <pt x="521" y="602" on="1"/>
        <pt x="499" y="530" on="1"/>
        <pt x="461" y="547" on="0"/>
        <pt x="403" y="563" on="0"/>
        <pt x="367" y="563" on="1"/>
        <pt x="332" y="563" on="0"/>
        <pt x="266" y="540" on="0"/>
        <pt x="213" y="495" on="0"/>
        <pt x="178" y="428" on="0"/>
        <pt x="174" y="385" on="1"/>
        <pt x="446" y="385" on="1"/>
        <pt x="446" y="334" on="1"/>
        <pt x="166" y="334" on="1"/>
        <pt x="166" y="322" on="1"/>
        <pt x="166" y="312" on="0"/>
        <pt x="166" y="294" on="0"/>
        <pt x="167" y="274" on="1"/>
        <pt x="446" y="274" on="1"/>
        <pt x="446" y="223" on="1"/>
        <pt x="175" y="223" on="1"/>
        <pt x="182" y="180" on="0"/>
        <pt x="217" y="121" on="0"/>
        <pt x="266" y="84" on="0"/>
        <pt x="327" y="67" on="0"/>
      </contour>
    </TTGlyph>
    <TTGlyph name="F" xMin="80" yMin="0" xMax="450" yMax="630">
      <contour>
        <pt x="450" y="630" on="1"/>
        <pt x="450" y="554" on="1"/>
        <pt x="172" y="554" on="1"/>
        <pt x="172" y="350" on="1"/>
        <pt x="428" y="350" on="1"/>
        <pt x="428" y="275" on="1"/>
        <pt x="172" y="275" on="1"/>
        <pt x="172" y="0" on="1"/>
        <pt x="80" y="0" on="1"/>
        <pt x="80" y="630" on="1"/>
      </contour>
    </TTGlyph>
    <TTGlyph name="Five.tm" xMin="46" yMin="-253" xMax="918" yMax="747">
      <contour>
        <pt x="758" y="317" on="1"/>
        <pt x="795" y="317" on="0"/>
        <pt x="854" y="287" on="0"/>
        <pt x="896" y="233" on="0"/>
        <pt x="918" y="158" on="0"/>
        <pt x="918" y="113" on="1"/>
        <pt x="918" y="33" on="0"/>
        <pt x="859" y="-101" on="0"/>
        <pt x="751" y="-198" on="0"/>
        <pt x="596" y="-253" on="0"/>
        <pt x="500" y="-253" on="1"/>
        <pt x="400" y="-253" on="0"/>
        <pt x="233" y="-187" on="0"/>
        <pt x="113" y="-61" on="0"/>
        <pt x="46" y="120" on="0"/>
        <pt x="46" y="235" on="1"/>
        <pt x="46" y="343" on="0"/>
        <pt x="111" y="530" on="0"/>
        <pt x="236" y="668" on="0"/>
        <pt x="418" y="747" on="0"/>
        <pt x="535" y="747" on="1"/>
        <pt x="602" y="747" on="0"/>
        <pt x="712" y="722" on="0"/>
        <pt x="801" y="683" on="0"/>
        <pt x="867" y="635" on="0"/>
        <pt x="889" y="613" on="1"/>
        <pt x="849" y="567" on="1"/>
        <pt x="825" y="588" on="0"/>
        <pt x="761" y="629" on="0"/>
        <pt x="682" y="661" on="0"/>
        <pt x="586" y="681" on="0"/>
        <pt x="530" y="681" on="1"/>
        <pt x="430" y="681" on="0"/>
        <pt x="277" y="614" on="0"/>
        <pt x="174" y="495" on="0"/>
        <pt x="122" y="331" on="0"/>
        <pt x="122" y="235" on="1"/>
        <pt x="122" y="135" on="0"/>
        <pt x="175" y="-22" on="0"/>
        <pt x="275" y="-131" on="0"/>
        <pt x="416" y="-188" on="0"/>
        <pt x="505" y="-188" on="1"/>
        <pt x="583" y="-188" on="0"/>
        <pt x="707" y="-145" on="0"/>
        <pt x="794" y="-66" on="0"/>
        <pt x="841" y="43" on="0"/>
        <pt x="841" y="109" on="1"/>
        <pt x="841" y="173" on="0"/>
        <pt x="791" y="256" on="0"/>
        <pt x="737" y="256" on="1"/>
        <pt x="708" y="256" on="0"/>
        <pt x="661" y="219" on="0"/>
        <pt x="650" y="187" on="1"/>
        <pt x="650" y="0" on="1"/>
        <pt x="575" y="0" on="1"/>
        <pt x="575" y="432" on="1"/>
        <pt x="403" y="432" on="1"/>
        <pt x="403" y="0" on="1"/>
        <pt x="329" y="0" on="1"/>
        <pt x="329" y="495" on="1"/>
        <pt x="840" y="495" on="1"/>
        <pt x="840" y="432" on="1"/>
        <pt x="650" y="432" on="1"/>
        <pt x="650" y="266" on="1"/>
        <pt x="664" y="286" on="0"/>
        <pt x="721" y="317" on="0"/>
      </contour>
    </TTGlyph>
    <TTGlyph name="Four.tm" xMin="32" yMin="-7" xMax="703" yMax="495">
      <contour>
        <pt x="703" y="495" on="1"/>
        <pt x="703" y="229" on="1"/>
        <pt x="409" y="229" on="1"/>
        <pt x="409" y="146" on="1"/>
        <pt x="409" y="79" on="0"/>
        <pt x="313" y="-7" on="0"/>
        <pt x="226" y="-7" on="1"/>
        <pt x="185" y="-7" on="0"/>
        <pt x="114" y="15" on="0"/>
        <pt x="62" y="57" on="0"/>
        <pt x="32" y="116" on="0"/>
        <pt x="32" y="153" on="1"/>
        <pt x="32" y="180" on="0"/>
        <pt x="48" y="224" on="0"/>
        <pt x="75" y="257" on="0"/>
        <pt x="110" y="279" on="0"/>
        <pt x="129" y="283" on="1"/>
        <pt x="129" y="495" on="1"/>
        <pt x="553" y="495" on="1"/>
        <pt x="553" y="433" on="1"/>
        <pt x="409" y="433" on="1"/>
        <pt x="409" y="291" on="1"/>
        <pt x="630" y="291" on="1"/>
        <pt x="630" y="495" on="1"/>
      </contour>
      <contour>
        <pt x="197" y="230" on="1"/>
        <pt x="155" y="230" on="0"/>
        <pt x="105" y="190" on="0"/>
        <pt x="105" y="152" on="1"/>
        <pt x="105" y="109" on="0"/>
        <pt x="173" y="56" on="0"/>
        <pt x="230" y="56" on="1"/>
        <pt x="281" y="56" on="0"/>
        <pt x="337" y="109" on="0"/>
        <pt x="337" y="156" on="1"/>
        <pt x="337" y="230" on="1"/>
      </contour>
      <contour>
        <pt x="201" y="293" on="1"/>
        <pt x="337" y="293" on="1"/>
        <pt x="337" y="433" on="1"/>
        <pt x="201" y="433" on="1"/>
      </contour>
    </TTGlyph>
    <TTGlyph name="Fsmall" xMin="80" yMin="0" xMax="388" yMax="470">
      <contour>
        <pt x="388" y="470" on="1"/>
        <pt x="388" y="402" on="1"/>
        <pt x="168" y="402" on="1"/>
        <pt x="168" y="265" on="1"/>
        <pt x="370" y="265" on="1"/>
        <pt x="370" y="197" on="1"/>
        <pt x="168" y="197" on="1"/>
        <pt x="168" y="0" on="1"/>
        <pt x="80" y="0" on="1"/>
        <pt x="80" y="470" on="1"/>
      </contour>
    </TTGlyph>
    <TTGlyph name="G" xMin="45" yMin="-9" xMax="560" yMax="639">
      <contour>
        <pt x="355" y="639" on="1"/>
        <pt x="410" y="639" on="0"/>
        <pt x="499" y="623" on="0"/>
        <pt x="537" y="603" on="1"/>
        <pt x="515" y="531" on="1"/>
        <pt x="478" y="548" on="0"/>
        <pt x="407" y="564" on="0"/>
        <pt x="366" y="564" on="1"/>
        <pt x="322" y="564" on="0"/>
        <pt x="242" y="538" on="0"/>
        <pt x="181" y="479" on="0"/>
        <pt x="145" y="384" on="0"/>
        <pt x="145" y="314" on="1"/>
        <pt x="145" y="193" on="0"/>
        <pt x="255" y="67" on="0"/>
        <pt x="355" y="67" on="1"/>
        <pt x="393" y="67" on="0"/>
        <pt x="448" y="75" on="0"/>
        <pt x="474" y="85" on="1"/>
        <pt x="474" y="260" on="1"/>
        <pt x="355" y="260" on="1"/>
        <pt x="355" y="332" on="1"/>
        <pt x="560" y="332" on="1"/>
        <pt x="560" y="28" on="1"/>
        <pt x="520" y="12" on="0"/>
        <pt x="422" y="-9" on="0"/>
        <pt x="355" y="-9" on="1"/>
        <pt x="290" y="-9" on="0"/>
        <pt x="177" y="33" on="0"/>
        <pt x="93" y="115" on="0"/>
        <pt x="45" y="235" on="0"/>
        <pt x="45" y="314" on="1"/>
        <pt x="45" y="393" on="0"/>
        <pt x="92" y="515" on="0"/>
        <pt x="174" y="597" on="0"/>
        <pt x="288" y="639" on="0"/>
      </contour>
    </TTGlyph>
    <TTGlyph name="Gbreve" xMin="45" yMin="-9" xMax="560" yMax="846">
      <contour>
        <pt x="355" y="639" on="1"/>
        <pt x="410" y="639" on="0"/>
        <pt x="499" y="623" on="0"/>
        <pt x="537" y="603" on="1"/>
        <pt x="515" y="531" on="1"/>
        <pt x="478" y="548" on="0"/>
        <pt x="407" y="564" on="0"/>
        <pt x="366" y="564" on="1"/>
        <pt x="322" y="564" on="0"/>
        <pt x="242" y="538" on="0"/>
        <pt x="181" y="479" on="0"/>
        <pt x="145" y="384" on="0"/>
        <pt x="145" y="314" on="1"/>
        <pt x="145" y="193" on="0"/>
        <pt x="255" y="67" on="0"/>
        <pt x="355" y="67" on="1"/>
        <pt x="393" y="67" on="0"/>
        <pt x="448" y="75" on="0"/>
        <pt x="474" y="85" on="1"/>
        <pt x="474" y="260" on="1"/>
        <pt x="355" y="260" on="1"/>
        <pt x="355" y="332" on="1"/>
        <pt x="560" y="332" on="1"/>
        <pt x="560" y="28" on="1"/>
        <pt x="520" y="12" on="0"/>
        <pt x="422" y="-9" on="0"/>
        <pt x="355" y="-9" on="1"/>
        <pt x="290" y="-9" on="0"/>
        <pt x="177" y="33" on="0"/>
        <pt x="93" y="115" on="0"/>
        <pt x="45" y="235" on="0"/>
        <pt x="45" y="314" on="1"/>
        <pt x="45" y="393" on="0"/>
        <pt x="92" y="515" on="0"/>
        <pt x="174" y="597" on="0"/>
        <pt x="288" y="639" on="0"/>
      </contour>
      <contour>
        <pt x="287" y="846" on="1"/>
        <pt x="291" y="814" on="0"/>
        <pt x="318" y="776" on="0"/>
        <pt x="359" y="776" on="1"/>
        <pt x="394" y="776" on="0"/>
        <pt x="427" y="812" on="0"/>
        <pt x="431" y="846" on="1"/>
        <pt x="493" y="846" on="1"/>
        <pt x="493" y="792" on="0"/>
        <pt x="424" y="722" on="0"/>
        <pt x="359" y="722" on="1"/>
        <pt x="323" y="722" on="0"/>
        <pt x="272" y="743" on="0"/>
        <pt x="239" y="778" on="0"/>
        <pt x="224" y="823" on="0"/>
        <pt x="224" y="846" on="1"/>
      </contour>
    </TTGlyph>
    <TTGlyph name="Gcircumflex" xMin="45" yMin="-9" xMax="560" yMax="844">
      <contour>
        <pt x="355" y="639" on="1"/>
        <pt x="410" y="639" on="0"/>
        <pt x="499" y="623" on="0"/>
        <pt x="537" y="603" on="1"/>
        <pt x="515" y="531" on="1"/>
        <pt x="478" y="548" on="0"/>
        <pt x="407" y="564" on="0"/>
        <pt x="366" y="564" on="1"/>
        <pt x="322" y="564" on="0"/>
        <pt x="242" y="538" on="0"/>
        <pt x="181" y="479" on="0"/>
        <pt x="145" y="384" on="0"/>
        <pt x="145" y="314" on="1"/>
        <pt x="145" y="193" on="0"/>
        <pt x="255" y="67" on="0"/>
        <pt x="355" y="67" on="1"/>
        <pt x="393" y="67" on="0"/>
        <pt x="448" y="75" on="0"/>
        <pt x="474" y="85" on="1"/>
        <pt x="474" y="260" on="1"/>
        <pt x="355" y="260" on="1"/>
        <pt x="355" y="332" on="1"/>
        <pt x="560" y="332" on="1"/>
        <pt x="560" y="28" on="1"/>
        <pt x="520" y="12" on="0"/>
        <pt x="422" y="-9" on="0"/>
        <pt x="355" y="-9" on="1"/>
        <pt x="290" y="-9" on="0"/>
        <pt x="177" y="33" on="0"/>
        <pt x="93" y="115" on="0"/>
        <pt x="45" y="235" on="0"/>
        <pt x="45" y="314" on="1"/>
        <pt x="45" y="393" on="0"/>
        <pt x="92" y="515" on="0"/>
        <pt x="174" y="597" on="0"/>
        <pt x="288" y="639" on="0"/>
      </contour>
      <contour>
        <pt x="306" y="844" on="1"/>
        <pt x="375" y="844" on="1"/>
        <pt x="500" y="710" on="1"/>
        <pt x="420" y="710" on="1"/>
        <pt x="340" y="794" on="1"/>
        <pt x="260" y="710" on="1"/>
        <pt x="184" y="710" on="1"/>
      </contour>
    </TTGlyph>
    <TTGlyph name="Gcommaaccent" xMin="45" yMin="-317" xMax="560" yMax="639">
      <contour>
        <pt x="355" y="639" on="1"/>
        <pt x="410" y="639" on="0"/>
        <pt x="499" y="623" on="0"/>
        <pt x="537" y="603" on="1"/>
        <pt x="515" y="531" on="1"/>
        <pt x="477" y="548" on="0"/>
        <pt x="408" y="564" on="0"/>
        <pt x="366" y="564" on="1"/>
        <pt x="322" y="564" on="0"/>
        <pt x="242" y="538" on="0"/>
        <pt x="181" y="479" on="0"/>
        <pt x="145" y="384" on="0"/>
        <pt x="145" y="314" on="1"/>
        <pt x="145" y="193" on="0"/>
        <pt x="255" y="67" on="0"/>
        <pt x="355" y="67" on="1"/>
        <pt x="393" y="67" on="0"/>
        <pt x="448" y="75" on="0"/>
        <pt x="474" y="85" on="1"/>
        <pt x="474" y="260" on="1"/>
        <pt x="355" y="260" on="1"/>
        <pt x="355" y="332" on="1"/>
        <pt x="560" y="332" on="1"/>
        <pt x="560" y="28" on="1"/>
        <pt x="520" y="12" on="0"/>
        <pt x="422" y="-9" on="0"/>
        <pt x="355" y="-9" on="1"/>
        <pt x="290" y="-9" on="0"/>
        <pt x="177" y="33" on="0"/>
        <pt x="93" y="115" on="0"/>
        <pt x="45" y="235" on="0"/>
        <pt x="45" y="314" on="1"/>
        <pt x="45" y="393" on="0"/>
        <pt x="92" y="515" on="0"/>
        <pt x="174" y="597" on="0"/>
        <pt x="288" y="639" on="0"/>
      </contour>
      <contour>
        <pt x="337" y="-182" on="1"/>
        <pt x="322" y="-179" on="0"/>
        <pt x="287" y="-150" on="0"/>
        <pt x="287" y="-124" on="1"/>
        <pt x="287" y="-100" on="0"/>
        <pt x="318" y="-65" on="0"/>
        <pt x="346" y="-65" on="1"/>
        <pt x="358" y="-65" on="0"/>
        <pt x="382" y="-75" on="0"/>
        <pt x="403" y="-96" on="0"/>
        <pt x="416" y="-129" on="0"/>
        <pt x="416" y="-153" on="1"/>
        <pt x="416" y="-176" on="0"/>
        <pt x="400" y="-223" on="0"/>
        <pt x="370" y="-267" on="0"/>
        <pt x="330" y="-304" on="0"/>
        <pt x="306" y="-317" on="1"/>
        <pt x="281" y="-282" on="1"/>
        <pt x="309" y="-265" on="0"/>
        <pt x="353" y="-212" on="0"/>
        <pt x="355" y="-186" on="1"/>
      </contour>
    </TTGlyph>
    <TTGlyph name="Gdotaccent" xMin="45" yMin="-9" xMax="560" yMax="822">
      <contour>
        <pt x="355" y="639" on="1"/>
        <pt x="410" y="639" on="0"/>
        <pt x="499" y="623" on="0"/>
        <pt x="537" y="603" on="1"/>
        <pt x="515" y="531" on="1"/>
        <pt x="478" y="548" on="0"/>
        <pt x="407" y="564" on="0"/>
        <pt x="366" y="564" on="1"/>
        <pt x="322" y="564" on="0"/>
        <pt x="242" y="538" on="0"/>
        <pt x="181" y="479" on="0"/>
        <pt x="145" y="384" on="0"/>
        <pt x="145" y="314" on="1"/>
        <pt x="145" y="193" on="0"/>
        <pt x="255" y="67" on="0"/>
        <pt x="355" y="67" on="1"/>
        <pt x="393" y="67" on="0"/>
        <pt x="448" y="75" on="0"/>
        <pt x="474" y="85" on="1"/>
        <pt x="474" y="260" on="1"/>
        <pt x="355" y="260" on="1"/>
        <pt x="355" y="332" on="1"/>
        <pt x="560" y="332" on="1"/>
        <pt x="560" y="28" on="1"/>
        <pt x="520" y="12" on="0"/>
        <pt x="422" y="-9" on="0"/>
        <pt x="355" y="-9" on="1"/>
        <pt x="290" y="-9" on="0"/>
        <pt x="177" y="33" on="0"/>
        <pt x="93" y="115" on="0"/>
        <pt x="45" y="235" on="0"/>
        <pt x="45" y="314" on="1"/>
        <pt x="45" y="393" on="0"/>
        <pt x="92" y="515" on="0"/>
        <pt x="174" y="597" on="0"/>
        <pt x="288" y="639" on="0"/>
      </contour>
      <contour>
        <pt x="299" y="767" on="1"/>
        <pt x="299" y="788" on="0"/>
        <pt x="333" y="822" on="0"/>
        <pt x="355" y="822" on="1"/>
        <pt x="378" y="822" on="0"/>
        <pt x="411" y="788" on="0"/>
        <pt x="411" y="767" on="1"/>
        <pt x="411" y="744" on="0"/>
        <pt x="378" y="710" on="0"/>
        <pt x="355" y="710" on="1"/>
        <pt x="333" y="710" on="0"/>
        <pt x="299" y="744" on="0"/>
      </contour>
    </TTGlyph>
    <TTGlyph name="Gsmall" xMin="45" yMin="-9" xMax="450" yMax="477">
      <contour>
        <pt x="302" y="59" on="1"/>
        <pt x="322" y="59" on="0"/>
        <pt x="360" y="64" on="0"/>
        <pt x="377" y="69" on="1"/>
        <pt x="377" y="185" on="1"/>
        <pt x="281" y="185" on="1"/>
        <pt x="281" y="250" on="1"/>
        <pt x="450" y="250" on="1"/>
        <pt x="450" y="19" on="1"/>
        <pt x="419" y="5" on="0"/>
        <pt x="337" y="-9" on="0"/>
        <pt x="295" y="-9" on="1"/>
        <pt x="242" y="-9" on="0"/>
        <pt x="151" y="21" on="0"/>
        <pt x="83" y="82" on="0"/>
        <pt x="45" y="173" on="0"/>
        <pt x="45" y="234" on="1"/>
        <pt x="45" y="290" on="0"/>
        <pt x="81" y="380" on="0"/>
        <pt x="146" y="443" on="0"/>
        <pt x="238" y="477" on="0"/>
        <pt x="294" y="477" on="1"/>
        <pt x="325" y="477" on="0"/>
        <pt x="398" y="470" on="0"/>
        <pt x="436" y="453" on="1"/>
        <pt x="416" y="386" on="1"/>
        <pt x="392" y="400" on="0"/>
        <pt x="332" y="410" on="0"/>
        <pt x="303" y="410" on="1"/>
        <pt x="226" y="410" on="0"/>
        <pt x="135" y="319" on="0"/>
        <pt x="135" y="237" on="1"/>
        <pt x="135" y="186" on="0"/>
        <pt x="163" y="118" on="0"/>
        <pt x="210" y="77" on="0"/>
        <pt x="270" y="59" on="0"/>
      </contour>
    </TTGlyph>
    <TTGlyph name="H" xMin="80" yMin="0" xMax="563" yMax="630">
      <contour>
        <pt x="80" y="0" on="1"/>
        <pt x="80" y="630" on="1"/>
        <pt x="172" y="630" on="1"/>
        <pt x="172" y="365" on="1"/>
        <pt x="471" y="365" on="1"/>
        <pt x="471" y="630" on="1"/>
        <pt x="563" y="630" on="1"/>
        <pt x="563" y="0" on="1"/>
        <pt x="471" y="0" on="1"/>
        <pt x="471" y="287" on="1"/>
        <pt x="172" y="287" on="1"/>
        <pt x="172" y="0" on="1"/>
      </contour>
    </TTGlyph>
    <TTGlyph name="Ha.tm" xMin="22" yMin="-283" xMax="1299" yMax="500">
      <contour>
        <pt x="856" y="500" on="1"/>
        <pt x="880" y="500" on="0"/>
        <pt x="921" y="485" on="0"/>
        <pt x="953" y="461" on="0"/>
        <pt x="975" y="431" on="0"/>
        <pt x="980" y="416" on="1"/>
        <pt x="984" y="431" on="0"/>
        <pt x="1002" y="461" on="0"/>
        <pt x="1032" y="485" on="0"/>
        <pt x="1075" y="500" on="0"/>
        <pt x="1102" y="500" on="1"/>
        <pt x="1137" y="500" on="0"/>
        <pt x="1207" y="466" on="0"/>
        <pt x="1264" y="392" on="0"/>
        <pt x="1299" y="277" on="0"/>
        <pt x="1299" y="195" on="1"/>
        <pt x="1299" y="32" on="0"/>
        <pt x="1133" y="-139" on="0"/>
        <pt x="964" y="-139" on="1"/>
        <pt x="158" y="-139" on="1"/>
        <pt x="126" y="-139" on="0"/>
        <pt x="98" y="-166" on="0"/>
        <pt x="98" y="-188" on="1"/>
        <pt x="98" y="-205" on="0"/>
        <pt x="113" y="-237" on="0"/>
        <pt x="122" y="-250" on="1"/>
        <pt x="60" y="-283" on="1"/>
        <pt x="46" y="-265" on="0"/>
        <pt x="22" y="-213" on="0"/>
        <pt x="22" y="-181" on="1"/>
        <pt x="22" y="-150" on="0"/>
        <pt x="43" y="-109" on="0"/>
        <pt x="77" y="-85" on="0"/>
        <pt x="120" y="-75" on="0"/>
        <pt x="142" y="-75" on="1"/>
        <pt x="974" y="-75" on="1"/>
        <pt x="1104" y="-75" on="0"/>
        <pt x="1222" y="66" on="0"/>
        <pt x="1222" y="198" on="1"/>
        <pt x="1222" y="263" on="0"/>
        <pt x="1199" y="353" on="0"/>
        <pt x="1162" y="409" on="0"/>
        <pt x="1116" y="434" on="0"/>
        <pt x="1092" y="434" on="1"/>
        <pt x="1054" y="434" on="0"/>
        <pt x="1016" y="387" on="0"/>
        <pt x="1016" y="343" on="1"/>
        <pt x="1016" y="0" on="1"/>
        <pt x="942" y="0" on="1"/>
        <pt x="942" y="336" on="1"/>
        <pt x="942" y="378" on="0"/>
        <pt x="900" y="434" on="0"/>
        <pt x="858" y="434" on="1"/>
        <pt x="820" y="434" on="0"/>
        <pt x="783" y="384" on="0"/>
        <pt x="783" y="340" on="1"/>
        <pt x="783" y="0" on="1"/>
        <pt x="482" y="0" on="1"/>
        <pt x="459" y="48" on="1"/>
        <pt x="488" y="84" on="0"/>
        <pt x="517" y="177" on="0"/>
        <pt x="517" y="228" on="1"/>
        <pt x="517" y="274" on="0"/>
        <pt x="490" y="350" on="0"/>
        <pt x="440" y="404" on="0"/>
        <pt x="367" y="434" on="0"/>
        <pt x="321" y="434" on="1"/>
        <pt x="274" y="434" on="0"/>
        <pt x="198" y="404" on="0"/>
        <pt x="144" y="350" on="0"/>
        <pt x="113" y="273" on="0"/>
        <pt x="112" y="227" on="1"/>
        <pt x="130" y="256" on="0"/>
        <pt x="194" y="293" on="0"/>
        <pt x="234" y="293" on="1"/>
        <pt x="266" y="293" on="0"/>
        <pt x="320" y="271" on="0"/>
        <pt x="359" y="232" on="0"/>
        <pt x="381" y="178" on="0"/>
        <pt x="381" y="147" on="1"/>
        <pt x="381" y="112" on="0"/>
        <pt x="357" y="56" on="0"/>
        <pt x="315" y="15" on="0"/>
        <pt x="256" y="-7" on="0"/>
        <pt x="221" y="-7" on="1"/>
        <pt x="182" y="-7" on="0"/>
        <pt x="118" y="25" on="0"/>
        <pt x="72" y="84" on="0"/>
        <pt x="46" y="167" on="0"/>
        <pt x="46" y="217" on="1"/>
        <pt x="46" y="280" on="0"/>
        <pt x="87" y="385" on="0"/>
        <pt x="162" y="459" on="0"/>
        <pt x="264" y="500" on="0"/>
        <pt x="326" y="500" on="1"/>
        <pt x="384" y="500" on="0"/>
        <pt x="482" y="461" on="0"/>
        <pt x="554" y="390" on="0"/>
        <pt x="594" y="292" on="0"/>
        <pt x="594" y="233" on="1"/>
        <pt x="594" y="206" on="0"/>
        <pt x="585" y="154" on="0"/>
        <pt x="571" y="109" on="0"/>
        <pt x="554" y="74" on="0"/>
        <pt x="547" y="63" on="1"/>
        <pt x="709" y="63" on="1"/>
        <pt x="709" y="333" on="1"/>
        <pt x="709" y="422" on="0"/>
        <pt x="792" y="500" on="0"/>
      </contour>
      <contour>
        <pt x="219" y="230" on="1"/>
        <pt x="200" y="230" on="0"/>
        <pt x="169" y="217" on="0"/>
        <pt x="143" y="195" on="0"/>
        <pt x="125" y="168" on="0"/>
        <pt x="119" y="153" on="1"/>
        <pt x="128" y="105" on="0"/>
        <pt x="186" y="56" on="0"/>
        <pt x="221" y="56" on="1"/>
        <pt x="260" y="56" on="0"/>
        <pt x="307" y="106" on="0"/>
        <pt x="307" y="144" on="1"/>
        <pt x="307" y="182" on="0"/>
        <pt x="261" y="230" on="0"/>
      </contour>
    </TTGlyph>
    <TTGlyph name="HaMatraI.tm" xMin="22" yMin="-283" xMax="1496" yMax="754">
      <contour>
        <pt x="1301" y="754" on="1"/>
        <pt x="1391" y="754" on="0"/>
        <pt x="1496" y="645" on="0"/>
        <pt x="1496" y="543" on="1"/>
        <pt x="1496" y="0" on="1"/>
        <pt x="1423" y="0" on="1"/>
        <pt x="1423" y="538" on="1"/>
        <pt x="1423" y="613" on="0"/>
        <pt x="1359" y="689" on="0"/>
        <pt x="1297" y="689" on="1"/>
        <pt x="1243" y="689" on="0"/>
        <pt x="1181" y="627" on="0"/>
        <pt x="1181" y="575" on="1"/>
        <pt x="1181" y="537" on="0"/>
        <pt x="1209" y="467" on="0"/>
        <pt x="1235" y="423" on="1"/>
        <pt x="1247" y="404" on="0"/>
        <pt x="1270" y="359" on="0"/>
        <pt x="1288" y="303" on="0"/>
        <pt x="1299" y="236" on="0"/>
        <pt x="1299" y="195" on="1"/>
        <pt x="1299" y="32" on="0"/>
        <pt x="1133" y="-139" on="0"/>
        <pt x="964" y="-139" on="1"/>
        <pt x="158" y="-139" on="1"/>
        <pt x="126" y="-139" on="0"/>
        <pt x="98" y="-166" on="0"/>
        <pt x="98" y="-188" on="1"/>
        <pt x="98" y="-205" on="0"/>
        <pt x="113" y="-237" on="0"/>
        <pt x="122" y="-250" on="1"/>
        <pt x="60" y="-283" on="1"/>
        <pt x="46" y="-265" on="0"/>
        <pt x="22" y="-213" on="0"/>
        <pt x="22" y="-181" on="1"/>
        <pt x="22" y="-150" on="0"/>
        <pt x="43" y="-109" on="0"/>
        <pt x="77" y="-85" on="0"/>
        <pt x="120" y="-75" on="0"/>
        <pt x="142" y="-75" on="1"/>
        <pt x="974" y="-75" on="1"/>
        <pt x="1104" y="-75" on="0"/>
        <pt x="1222" y="66" on="0"/>
        <pt x="1222" y="198" on="1"/>
        <pt x="1222" y="263" on="0"/>
        <pt x="1199" y="353" on="0"/>
        <pt x="1162" y="409" on="0"/>
        <pt x="1116" y="434" on="0"/>
        <pt x="1093" y="434" on="1"/>
        <pt x="1055" y="434" on="0"/>
        <pt x="1016" y="387" on="0"/>
        <pt x="1016" y="343" on="1"/>
        <pt x="1016" y="0" on="1"/>
        <pt x="942" y="0" on="1"/>
        <pt x="942" y="336" on="1"/>
        <pt x="942" y="378" on="0"/>
        <pt x="900" y="434" on="0"/>
        <pt x="858" y="434" on="1"/>
        <pt x="819" y="434" on="0"/>
        <pt x="783" y="385" on="0"/>
        <pt x="783" y="340" on="1"/>
        <pt x="783" y="0" on="1"/>
        <pt x="482" y="0" on="1"/>
        <pt x="459" y="48" on="1"/>
        <pt x="488" y="84" on="0"/>
        <pt x="517" y="177" on="0"/>
        <pt x="517" y="228" on="1"/>
        <pt x="517" y="274" on="0"/>
        <pt x="490" y="350" on="0"/>
        <pt x="440" y="404" on="0"/>
        <pt x="367" y="434" on="0"/>
        <pt x="321" y="434" on="1"/>
        <pt x="274" y="434" on="0"/>
        <pt x="198" y="404" on="0"/>
        <pt x="144" y="350" on="0"/>
        <pt x="113" y="273" on="0"/>
        <pt x="112" y="227" on="1"/>
        <pt x="130" y="256" on="0"/>
        <pt x="194" y="293" on="0"/>
        <pt x="234" y="293" on="1"/>
        <pt x="266" y="293" on="0"/>
        <pt x="320" y="271" on="0"/>
        <pt x="359" y="232" on="0"/>
        <pt x="381" y="178" on="0"/>
        <pt x="381" y="147" on="1"/>
        <pt x="381" y="112" on="0"/>
        <pt x="357" y="56" on="0"/>
        <pt x="315" y="15" on="0"/>
        <pt x="256" y="-7" on="0"/>
        <pt x="221" y="-7" on="1"/>
        <pt x="182" y="-7" on="0"/>
        <pt x="118" y="25" on="0"/>
        <pt x="72" y="84" on="0"/>
        <pt x="46" y="167" on="0"/>
        <pt x="46" y="217" on="1"/>
        <pt x="46" y="280" on="0"/>
        <pt x="87" y="385" on="0"/>
        <pt x="162" y="459" on="0"/>
        <pt x="264" y="500" on="0"/>
        <pt x="326" y="500" on="1"/>
        <pt x="384" y="500" on="0"/>
        <pt x="482" y="461" on="0"/>
        <pt x="554" y="390" on="0"/>
        <pt x="594" y="292" on="0"/>
        <pt x="594" y="233" on="1"/>
        <pt x="594" y="206" on="0"/>
        <pt x="585" y="154" on="0"/>
        <pt x="571" y="109" on="0"/>
        <pt x="554" y="74" on="0"/>
        <pt x="547" y="63" on="1"/>
        <pt x="709" y="63" on="1"/>
        <pt x="709" y="333" on="1"/>
        <pt x="709" y="422" on="0"/>
        <pt x="792" y="500" on="0"/>
        <pt x="856" y="500" on="1"/>
        <pt x="880" y="500" on="0"/>
        <pt x="921" y="485" on="0"/>
        <pt x="953" y="461" on="0"/>
        <pt x="975" y="431" on="0"/>
        <pt x="980" y="416" on="1"/>
        <pt x="984" y="430" on="0"/>
        <pt x="1002" y="458" on="0"/>
        <pt x="1032" y="481" on="0"/>
        <pt x="1073" y="496" on="0"/>
        <pt x="1100" y="496" on="1"/>
        <pt x="1113" y="496" on="0"/>
        <pt x="1133" y="491" on="1"/>
        <pt x="1109" y="529" on="0"/>
        <pt x="1109" y="580" on="1"/>
        <pt x="1109" y="617" on="0"/>
        <pt x="1135" y="680" on="0"/>
        <pt x="1185" y="727" on="0"/>
        <pt x="1256" y="754" on="0"/>
      </contour>
      <contour>
        <pt x="219" y="230" on="1"/>
        <pt x="200" y="230" on="0"/>
        <pt x="169" y="217" on="0"/>
        <pt x="143" y="195" on="0"/>
        <pt x="125" y="168" on="0"/>
        <pt x="119" y="153" on="1"/>
        <pt x="128" y="105" on="0"/>
        <pt x="186" y="56" on="0"/>
        <pt x="221" y="56" on="1"/>
        <pt x="260" y="56" on="0"/>
        <pt x="307" y="106" on="0"/>
        <pt x="307" y="144" on="1"/>
        <pt x="307" y="182" on="0"/>
        <pt x="261" y="230" on="0"/>
      </contour>
    </TTGlyph>
    <TTGlyph name="HaMatraIi.tm" xMin="22" yMin="-283" xMax="1402" yMax="789">
      <contour>
        <pt x="1222" y="198" on="1"/>
        <pt x="1222" y="263" on="0"/>
        <pt x="1197" y="353" on="0"/>
        <pt x="1159" y="409" on="0"/>
        <pt x="1113" y="434" on="0"/>
        <pt x="1092" y="434" on="1"/>
        <pt x="1054" y="434" on="0"/>
        <pt x="1016" y="387" on="0"/>
        <pt x="1016" y="343" on="1"/>
        <pt x="1016" y="0" on="1"/>
        <pt x="942" y="0" on="1"/>
        <pt x="942" y="336" on="1"/>
        <pt x="942" y="378" on="0"/>
        <pt x="900" y="434" on="0"/>
        <pt x="858" y="434" on="1"/>
        <pt x="819" y="434" on="0"/>
        <pt x="783" y="385" on="0"/>
        <pt x="783" y="340" on="1"/>
        <pt x="783" y="0" on="1"/>
        <pt x="482" y="0" on="1"/>
        <pt x="459" y="48" on="1"/>
        <pt x="488" y="84" on="0"/>
        <pt x="517" y="177" on="0"/>
        <pt x="517" y="228" on="1"/>
        <pt x="517" y="274" on="0"/>
        <pt x="490" y="350" on="0"/>
        <pt x="440" y="404" on="0"/>
        <pt x="367" y="434" on="0"/>
        <pt x="321" y="434" on="1"/>
        <pt x="274" y="434" on="0"/>
        <pt x="198" y="404" on="0"/>
        <pt x="144" y="350" on="0"/>
        <pt x="113" y="273" on="0"/>
        <pt x="112" y="227" on="1"/>
        <pt x="130" y="256" on="0"/>
        <pt x="194" y="293" on="0"/>
        <pt x="234" y="293" on="1"/>
        <pt x="266" y="293" on="0"/>
        <pt x="320" y="271" on="0"/>
        <pt x="359" y="232" on="0"/>
        <pt x="381" y="178" on="0"/>
        <pt x="381" y="147" on="1"/>
        <pt x="381" y="112" on="0"/>
        <pt x="357" y="56" on="0"/>
        <pt x="315" y="15" on="0"/>
        <pt x="256" y="-7" on="0"/>
        <pt x="221" y="-7" on="1"/>
        <pt x="182" y="-7" on="0"/>
        <pt x="118" y="25" on="0"/>
        <pt x="72" y="84" on="0"/>
        <pt x="46" y="167" on="0"/>
        <pt x="46" y="217" on="1"/>
        <pt x="46" y="280" on="0"/>
        <pt x="87" y="385" on="0"/>
        <pt x="162" y="459" on="0"/>
        <pt x="264" y="500" on="0"/>
        <pt x="326" y="500" on="1"/>
        <pt x="384" y="500" on="0"/>
        <pt x="482" y="461" on="0"/>
        <pt x="554" y="390" on="0"/>
        <pt x="594" y="292" on="0"/>
        <pt x="594" y="233" on="1"/>
        <pt x="594" y="206" on="0"/>
        <pt x="585" y="154" on="0"/>
        <pt x="571" y="109" on="0"/>
        <pt x="554" y="74" on="0"/>
        <pt x="547" y="63" on="1"/>
        <pt x="709" y="63" on="1"/>
        <pt x="709" y="333" on="1"/>
        <pt x="709" y="422" on="0"/>
        <pt x="792" y="500" on="0"/>
        <pt x="856" y="500" on="1"/>
        <pt x="880" y="500" on="0"/>
        <pt x="921" y="485" on="0"/>
        <pt x="953" y="461" on="0"/>
        <pt x="975" y="431" on="0"/>
        <pt x="980" y="416" on="1"/>
        <pt x="987" y="443" on="0"/>
        <pt x="1037" y="492" on="0"/>
        <pt x="1084" y="497" on="1"/>
        <pt x="1064" y="520" on="0"/>
        <pt x="1039" y="581" on="0"/>
        <pt x="1039" y="612" on="1"/>
        <pt x="1039" y="650" on="0"/>
        <pt x="1068" y="715" on="0"/>
        <pt x="1122" y="762" on="0"/>
        <pt x="1198" y="789" on="0"/>
        <pt x="1245" y="789" on="1"/>
        <pt x="1284" y="789" on="0"/>
        <pt x="1343" y="770" on="0"/>
        <pt x="1382" y="738" on="0"/>
        <pt x="1402" y="697" on="0"/>
        <pt x="1402" y="675" on="1"/>
        <pt x="1402" y="627" on="0"/>
        <pt x="1336" y="567" on="0"/>
        <pt x="1285" y="567" on="1"/>
        <pt x="1236" y="567" on="0"/>
        <pt x="1176" y="625" on="0"/>
        <pt x="1176" y="666" on="1"/>
        <pt x="1176" y="709" on="0"/>
        <pt x="1207" y="737" on="1"/>
        <pt x="1162" y="729" on="0"/>
        <pt x="1111" y="659" on="0"/>
        <pt x="1111" y="610" on="1"/>
        <pt x="1111" y="586" on="0"/>
        <pt x="1126" y="544" on="0"/>
        <pt x="1150" y="507" on="0"/>
        <pt x="1180" y="475" on="0"/>
        <pt x="1195" y="461" on="1"/>
        <pt x="1215" y="442" on="0"/>
        <pt x="1253" y="392" on="0"/>
        <pt x="1282" y="327" on="0"/>
        <pt x="1299" y="245" on="0"/>
        <pt x="1299" y="195" on="1"/>
        <pt x="1299" y="32" on="0"/>
        <pt x="1133" y="-139" on="0"/>
        <pt x="964" y="-139" on="1"/>
        <pt x="158" y="-139" on="1"/>
        <pt x="126" y="-139" on="0"/>
        <pt x="98" y="-166" on="0"/>
        <pt x="98" y="-188" on="1"/>
        <pt x="98" y="-205" on="0"/>
        <pt x="113" y="-237" on="0"/>
        <pt x="122" y="-250" on="1"/>
        <pt x="60" y="-283" on="1"/>
        <pt x="46" y="-265" on="0"/>
        <pt x="22" y="-213" on="0"/>
        <pt x="22" y="-181" on="1"/>
        <pt x="22" y="-150" on="0"/>
        <pt x="43" y="-109" on="0"/>
        <pt x="77" y="-85" on="0"/>
        <pt x="120" y="-75" on="0"/>
        <pt x="142" y="-75" on="1"/>
        <pt x="974" y="-75" on="1"/>
        <pt x="1104" y="-75" on="0"/>
        <pt x="1222" y="66" on="0"/>
      </contour>
      <contour>
        <pt x="219" y="230" on="1"/>
        <pt x="200" y="230" on="0"/>
        <pt x="169" y="217" on="0"/>
        <pt x="143" y="195" on="0"/>
        <pt x="125" y="168" on="0"/>
        <pt x="119" y="153" on="1"/>
        <pt x="128" y="105" on="0"/>
        <pt x="186" y="56" on="0"/>
        <pt x="221" y="56" on="1"/>
        <pt x="260" y="56" on="0"/>
        <pt x="307" y="106" on="0"/>
        <pt x="307" y="144" on="1"/>
        <pt x="307" y="182" on="0"/>
        <pt x="261" y="230" on="0"/>
      </contour>
      <contour>
        <pt x="1338" y="676" on="1"/>
        <pt x="1338" y="703" on="0"/>
        <pt x="1301" y="735" on="0"/>
        <pt x="1276" y="737" on="1"/>
        <pt x="1258" y="729" on="0"/>
        <pt x="1235" y="696" on="0"/>
        <pt x="1235" y="675" on="1"/>
        <pt x="1235" y="652" on="0"/>
        <pt x="1264" y="623" on="0"/>
        <pt x="1287" y="623" on="1"/>
        <pt x="1310" y="623" on="0"/>
        <pt x="1338" y="652" on="0"/>
      </contour>
    </TTGlyph>
    <TTGlyph name="HaMatraU.tm" xMin="22" yMin="-283" xMax="1638" yMax="500">
      <contour>
        <pt x="856" y="500" on="1"/>
        <pt x="880" y="500" on="0"/>
        <pt x="921" y="485" on="0"/>
        <pt x="953" y="461" on="0"/>
        <pt x="975" y="431" on="0"/>
        <pt x="980" y="416" on="1"/>
        <pt x="984" y="430" on="0"/>
        <pt x="1002" y="458" on="0"/>
        <pt x="1032" y="481" on="0"/>
        <pt x="1075" y="495" on="0"/>
        <pt x="1102" y="495" on="1"/>
        <pt x="1468" y="495" on="1"/>
        <pt x="1549" y="495" on="0"/>
        <pt x="1638" y="423" on="0"/>
        <pt x="1638" y="364" on="1"/>
        <pt x="1638" y="341" on="0"/>
        <pt x="1621" y="298" on="0"/>
        <pt x="1589" y="266" on="0"/>
        <pt x="1543" y="247" on="0"/>
        <pt x="1513" y="247" on="1"/>
        <pt x="1486" y="247" on="0"/>
        <pt x="1441" y="264" on="0"/>
        <pt x="1409" y="294" on="0"/>
        <pt x="1391" y="333" on="0"/>
        <pt x="1391" y="354" on="1"/>
        <pt x="1391" y="382" on="0"/>
        <pt x="1412" y="424" on="0"/>
        <pt x="1430" y="438" on="1"/>
        <pt x="1216" y="438" on="1"/>
        <pt x="1251" y="406" on="0"/>
        <pt x="1299" y="282" on="0"/>
        <pt x="1299" y="195" on="1"/>
        <pt x="1299" y="32" on="0"/>
        <pt x="1133" y="-139" on="0"/>
        <pt x="964" y="-139" on="1"/>
        <pt x="158" y="-139" on="1"/>
        <pt x="126" y="-139" on="0"/>
        <pt x="98" y="-166" on="0"/>
        <pt x="98" y="-188" on="1"/>
        <pt x="98" y="-205" on="0"/>
        <pt x="113" y="-237" on="0"/>
        <pt x="122" y="-250" on="1"/>
        <pt x="60" y="-283" on="1"/>
        <pt x="46" y="-265" on="0"/>
        <pt x="22" y="-213" on="0"/>
        <pt x="22" y="-181" on="1"/>
        <pt x="22" y="-150" on="0"/>
        <pt x="43" y="-109" on="0"/>
        <pt x="77" y="-85" on="0"/>
        <pt x="120" y="-75" on="0"/>
        <pt x="142" y="-75" on="1"/>
        <pt x="974" y="-75" on="1"/>
        <pt x="1104" y="-75" on="0"/>
        <pt x="1222" y="66" on="0"/>
        <pt x="1222" y="198" on="1"/>
        <pt x="1222" y="263" on="0"/>
        <pt x="1199" y="353" on="0"/>
        <pt x="1162" y="409" on="0"/>
        <pt x="1116" y="434" on="0"/>
        <pt x="1092" y="434" on="1"/>
        <pt x="1054" y="434" on="0"/>
        <pt x="1016" y="387" on="0"/>
        <pt x="1016" y="343" on="1"/>
        <pt x="1016" y="0" on="1"/>
        <pt x="942" y="0" on="1"/>
        <pt x="942" y="336" on="1"/>
        <pt x="942" y="378" on="0"/>
        <pt x="900" y="434" on="0"/>
        <pt x="858" y="434" on="1"/>
        <pt x="820" y="434" on="0"/>
        <pt x="783" y="384" on="0"/>
        <pt x="783" y="340" on="1"/>
        <pt x="783" y="0" on="1"/>
        <pt x="482" y="0" on="1"/>
        <pt x="459" y="48" on="1"/>
        <pt x="488" y="84" on="0"/>
        <pt x="517" y="177" on="0"/>
        <pt x="517" y="228" on="1"/>
        <pt x="517" y="274" on="0"/>
        <pt x="490" y="350" on="0"/>
        <pt x="440" y="404" on="0"/>
        <pt x="367" y="434" on="0"/>
        <pt x="321" y="434" on="1"/>
        <pt x="274" y="434" on="0"/>
        <pt x="198" y="404" on="0"/>
        <pt x="144" y="350" on="0"/>
        <pt x="113" y="273" on="0"/>
        <pt x="112" y="227" on="1"/>
        <pt x="130" y="256" on="0"/>
        <pt x="194" y="293" on="0"/>
        <pt x="234" y="293" on="1"/>
        <pt x="266" y="293" on="0"/>
        <pt x="320" y="271" on="0"/>
        <pt x="359" y="232" on="0"/>
        <pt x="381" y="178" on="0"/>
        <pt x="381" y="147" on="1"/>
        <pt x="381" y="112" on="0"/>
        <pt x="357" y="56" on="0"/>
        <pt x="315" y="15" on="0"/>
        <pt x="256" y="-7" on="0"/>
        <pt x="221" y="-7" on="1"/>
        <pt x="182" y="-7" on="0"/>
        <pt x="118" y="25" on="0"/>
        <pt x="72" y="84" on="0"/>
        <pt x="46" y="167" on="0"/>
        <pt x="46" y="217" on="1"/>
        <pt x="46" y="280" on="0"/>
        <pt x="87" y="385" on="0"/>
        <pt x="162" y="459" on="0"/>
        <pt x="264" y="500" on="0"/>
        <pt x="326" y="500" on="1"/>
        <pt x="384" y="500" on="0"/>
        <pt x="482" y="461" on="0"/>
        <pt x="554" y="390" on="0"/>
        <pt x="594" y="292" on="0"/>
        <pt x="594" y="233" on="1"/>
        <pt x="594" y="206" on="0"/>
        <pt x="585" y="154" on="0"/>
        <pt x="571" y="109" on="0"/>
        <pt x="554" y="74" on="0"/>
        <pt x="547" y="63" on="1"/>
        <pt x="709" y="63" on="1"/>
        <pt x="709" y="333" on="1"/>
        <pt x="709" y="422" on="0"/>
        <pt x="792" y="500" on="0"/>
      </contour>
      <contour>
        <pt x="219" y="230" on="1"/>
        <pt x="200" y="230" on="0"/>
        <pt x="169" y="217" on="0"/>
        <pt x="143" y="195" on="0"/>
        <pt x="125" y="168" on="0"/>
        <pt x="119" y="153" on="1"/>
        <pt x="128" y="105" on="0"/>
        <pt x="186" y="56" on="0"/>
        <pt x="221" y="56" on="1"/>
        <pt x="260" y="56" on="0"/>
        <pt x="307" y="106" on="0"/>
        <pt x="307" y="144" on="1"/>
        <pt x="307" y="182" on="0"/>
        <pt x="261" y="230" on="0"/>
      </contour>
      <contour>
        <pt x="1571" y="364" on="1"/>
        <pt x="1571" y="395" on="0"/>
        <pt x="1534" y="430" on="0"/>
        <pt x="1509" y="433" on="1"/>
        <pt x="1483" y="424" on="0"/>
        <pt x="1457" y="385" on="0"/>
        <pt x="1457" y="362" on="1"/>
        <pt x="1457" y="336" on="0"/>
        <pt x="1491" y="305" on="0"/>
        <pt x="1515" y="305" on="1"/>
        <pt x="1538" y="305" on="0"/>
        <pt x="1571" y="336" on="0"/>
      </contour>
    </TTGlyph>
    <TTGlyph name="HaMatraUu.tm" xMin="22" yMin="-283" xMax="1852" yMax="626">
      <contour>
        <pt x="1628" y="626" on="1"/>
        <pt x="1678" y="626" on="0"/>
        <pt x="1761" y="595" on="0"/>
        <pt x="1820" y="537" on="0"/>
        <pt x="1852" y="456" on="0"/>
        <pt x="1852" y="407" on="1"/>
        <pt x="1852" y="326" on="0"/>
        <pt x="1765" y="204" on="0"/>
        <pt x="1692" y="173" on="1"/>
        <pt x="1661" y="229" on="1"/>
        <pt x="1715" y="255" on="0"/>
        <pt x="1778" y="349" on="0"/>
        <pt x="1778" y="407" on="1"/>
        <pt x="1778" y="482" on="0"/>
        <pt x="1696" y="566" on="0"/>
        <pt x="1623" y="566" on="1"/>
        <pt x="1578" y="566" on="0"/>
        <pt x="1507" y="526" on="0"/>
        <pt x="1491" y="494" on="1"/>
        <pt x="1495" y="494" on="1"/>
        <pt x="1570" y="494" on="0"/>
        <pt x="1645" y="425" on="0"/>
        <pt x="1645" y="374" on="1"/>
        <pt x="1645" y="327" on="0"/>
        <pt x="1577" y="262" on="0"/>
        <pt x="1523" y="262" on="1"/>
        <pt x="1494" y="262" on="0"/>
        <pt x="1448" y="284" on="0"/>
        <pt x="1416" y="322" on="0"/>
        <pt x="1400" y="371" on="0"/>
        <pt x="1400" y="397" on="1"/>
        <pt x="1400" y="417" on="0"/>
        <pt x="1403" y="435" on="1"/>
        <pt x="1219" y="435" on="1"/>
        <pt x="1254" y="402" on="0"/>
        <pt x="1299" y="280" on="0"/>
        <pt x="1299" y="195" on="1"/>
        <pt x="1299" y="32" on="0"/>
        <pt x="1133" y="-139" on="0"/>
        <pt x="964" y="-139" on="1"/>
        <pt x="158" y="-139" on="1"/>
        <pt x="126" y="-139" on="0"/>
        <pt x="98" y="-166" on="0"/>
        <pt x="98" y="-188" on="1"/>
        <pt x="98" y="-205" on="0"/>
        <pt x="113" y="-237" on="0"/>
        <pt x="122" y="-250" on="1"/>
        <pt x="60" y="-283" on="1"/>
        <pt x="46" y="-265" on="0"/>
        <pt x="22" y="-213" on="0"/>
        <pt x="22" y="-181" on="1"/>
        <pt x="22" y="-150" on="0"/>
        <pt x="43" y="-109" on="0"/>
        <pt x="77" y="-85" on="0"/>
        <pt x="120" y="-75" on="0"/>
        <pt x="142" y="-75" on="1"/>
        <pt x="974" y="-75" on="1"/>
        <pt x="1104" y="-75" on="0"/>
        <pt x="1222" y="66" on="0"/>
        <pt x="1222" y="198" on="1"/>
        <pt x="1222" y="263" on="0"/>
        <pt x="1199" y="353" on="0"/>
        <pt x="1162" y="409" on="0"/>
        <pt x="1116" y="434" on="0"/>
        <pt x="1092" y="434" on="1"/>
        <pt x="1054" y="434" on="0"/>
        <pt x="1016" y="387" on="0"/>
        <pt x="1016" y="343" on="1"/>
        <pt x="1016" y="0" on="1"/>
        <pt x="942" y="0" on="1"/>
        <pt x="942" y="336" on="1"/>
        <pt x="942" y="378" on="0"/>
        <pt x="900" y="434" on="0"/>
        <pt x="858" y="434" on="1"/>
        <pt x="820" y="434" on="0"/>
        <pt x="783" y="384" on="0"/>
        <pt x="783" y="340" on="1"/>
        <pt x="783" y="0" on="1"/>
        <pt x="482" y="0" on="1"/>
        <pt x="459" y="48" on="1"/>
        <pt x="488" y="84" on="0"/>
        <pt x="517" y="177" on="0"/>
        <pt x="517" y="228" on="1"/>
        <pt x="517" y="274" on="0"/>
        <pt x="490" y="350" on="0"/>
        <pt x="440" y="404" on="0"/>
        <pt x="367" y="434" on="0"/>
        <pt x="321" y="434" on="1"/>
        <pt x="274" y="434" on="0"/>
        <pt x="198" y="404" on="0"/>
        <pt x="144" y="350" on="0"/>
        <pt x="113" y="273" on="0"/>
        <pt x="112" y="227" on="1"/>
        <pt x="130" y="256" on="0"/>
        <pt x="194" y="293" on="0"/>
        <pt x="234" y="293" on="1"/>
        <pt x="266" y="293" on="0"/>
        <pt x="320" y="271" on="0"/>
        <pt x="359" y="232" on="0"/>
        <pt x="381" y="178" on="0"/>
        <pt x="381" y="147" on="1"/>
        <pt x="381" y="112" on="0"/>
        <pt x="357" y="56" on="0"/>
        <pt x="315" y="15" on="0"/>
        <pt x="256" y="-7" on="0"/>
        <pt x="221" y="-7" on="1"/>
        <pt x="182" y="-7" on="0"/>
        <pt x="118" y="25" on="0"/>
        <pt x="72" y="84" on="0"/>
        <pt x="46" y="167" on="0"/>
        <pt x="46" y="217" on="1"/>
        <pt x="46" y="280" on="0"/>
        <pt x="87" y="385" on="0"/>
        <pt x="162" y="459" on="0"/>
        <pt x="264" y="500" on="0"/>
        <pt x="326" y="500" on="1"/>
        <pt x="384" y="500" on="0"/>
        <pt x="482" y="461" on="0"/>
        <pt x="554" y="390" on="0"/>
        <pt x="594" y="292" on="0"/>
        <pt x="594" y="233" on="1"/>
        <pt x="594" y="206" on="0"/>
        <pt x="585" y="154" on="0"/>
        <pt x="571" y="109" on="0"/>
        <pt x="554" y="74" on="0"/>
        <pt x="547" y="63" on="1"/>
        <pt x="709" y="63" on="1"/>
        <pt x="709" y="333" on="1"/>
        <pt x="709" y="422" on="0"/>
        <pt x="792" y="500" on="0"/>
        <pt x="856" y="500" on="1"/>
        <pt x="880" y="500" on="0"/>
        <pt x="921" y="485" on="0"/>
        <pt x="953" y="461" on="0"/>
        <pt x="975" y="431" on="0"/>
        <pt x="980" y="416" on="1"/>
        <pt x="984" y="430" on="0"/>
        <pt x="1002" y="458" on="0"/>
        <pt x="1032" y="481" on="0"/>
        <pt x="1075" y="495" on="0"/>
        <pt x="1102" y="495" on="1"/>
        <pt x="1420" y="495" on="1"/>
        <pt x="1429" y="517" on="0"/>
        <pt x="1463" y="564" on="0"/>
        <pt x="1516" y="602" on="0"/>
        <pt x="1585" y="626" on="0"/>
      </contour>
      <contour>
        <pt x="219" y="230" on="1"/>
        <pt x="200" y="230" on="0"/>
        <pt x="169" y="217" on="0"/>
        <pt x="143" y="195" on="0"/>
        <pt x="125" y="168" on="0"/>
        <pt x="119" y="153" on="1"/>
        <pt x="128" y="105" on="0"/>
        <pt x="186" y="56" on="0"/>
        <pt x="221" y="56" on="1"/>
        <pt x="260" y="56" on="0"/>
        <pt x="307" y="106" on="0"/>
        <pt x="307" y="144" on="1"/>
        <pt x="307" y="182" on="0"/>
        <pt x="261" y="230" on="0"/>
      </contour>
      <contour>
        <pt x="1471" y="433" on="1"/>
        <pt x="1466" y="415" on="0"/>
        <pt x="1466" y="394" on="1"/>
        <pt x="1466" y="361" on="0"/>
        <pt x="1498" y="320" on="0"/>
        <pt x="1527" y="320" on="1"/>
        <pt x="1552" y="320" on="0"/>
        <pt x="1579" y="350" on="0"/>
        <pt x="1579" y="373" on="1"/>
        <pt x="1579" y="403" on="0"/>
        <pt x="1534" y="433" on="0"/>
        <pt x="1493" y="433" on="1"/>
      </contour>
    </TTGlyph>
    <TTGlyph name="HaPulli.tm" xMin="22" yMin="-283" xMax="1299" yMax="703">
      <contour>
        <pt x="856" y="500" on="1"/>
        <pt x="880" y="500" on="0"/>
        <pt x="921" y="485" on="0"/>
        <pt x="953" y="461" on="0"/>
        <pt x="975" y="431" on="0"/>
        <pt x="980" y="416" on="1"/>
        <pt x="984" y="431" on="0"/>
        <pt x="1002" y="461" on="0"/>
        <pt x="1032" y="485" on="0"/>
        <pt x="1075" y="500" on="0"/>
        <pt x="1102" y="500" on="1"/>
        <pt x="1137" y="500" on="0"/>
        <pt x="1207" y="466" on="0"/>
        <pt x="1264" y="392" on="0"/>
        <pt x="1299" y="277" on="0"/>
        <pt x="1299" y="195" on="1"/>
        <pt x="1299" y="32" on="0"/>
        <pt x="1133" y="-139" on="0"/>
        <pt x="964" y="-139" on="1"/>
        <pt x="158" y="-139" on="1"/>
        <pt x="126" y="-139" on="0"/>
        <pt x="98" y="-166" on="0"/>
        <pt x="98" y="-188" on="1"/>
        <pt x="98" y="-205" on="0"/>
        <pt x="113" y="-237" on="0"/>
        <pt x="122" y="-250" on="1"/>
        <pt x="60" y="-283" on="1"/>
        <pt x="46" y="-265" on="0"/>
        <pt x="22" y="-213" on="0"/>
        <pt x="22" y="-181" on="1"/>
        <pt x="22" y="-150" on="0"/>
        <pt x="43" y="-109" on="0"/>
        <pt x="77" y="-85" on="0"/>
        <pt x="120" y="-75" on="0"/>
        <pt x="142" y="-75" on="1"/>
        <pt x="974" y="-75" on="1"/>
        <pt x="1104" y="-75" on="0"/>
        <pt x="1222" y="66" on="0"/>
        <pt x="1222" y="198" on="1"/>
        <pt x="1222" y="263" on="0"/>
        <pt x="1199" y="353" on="0"/>
        <pt x="1162" y="409" on="0"/>
        <pt x="1116" y="434" on="0"/>
        <pt x="1092" y="434" on="1"/>
        <pt x="1054" y="434" on="0"/>
        <pt x="1016" y="387" on="0"/>
        <pt x="1016" y="343" on="1"/>
        <pt x="1016" y="0" on="1"/>
        <pt x="942" y="0" on="1"/>
        <pt x="942" y="336" on="1"/>
        <pt x="942" y="378" on="0"/>
        <pt x="900" y="434" on="0"/>
        <pt x="858" y="434" on="1"/>
        <pt x="820" y="434" on="0"/>
        <pt x="783" y="384" on="0"/>
        <pt x="783" y="340" on="1"/>
        <pt x="783" y="0" on="1"/>
        <pt x="482" y="0" on="1"/>
        <pt x="459" y="48" on="1"/>
        <pt x="488" y="84" on="0"/>
        <pt x="517" y="177" on="0"/>
        <pt x="517" y="228" on="1"/>
        <pt x="517" y="274" on="0"/>
        <pt x="490" y="350" on="0"/>
        <pt x="440" y="404" on="0"/>
        <pt x="367" y="434" on="0"/>
        <pt x="321" y="434" on="1"/>
        <pt x="274" y="434" on="0"/>
        <pt x="198" y="404" on="0"/>
        <pt x="144" y="350" on="0"/>
        <pt x="113" y="273" on="0"/>
        <pt x="112" y="227" on="1"/>
        <pt x="130" y="256" on="0"/>
        <pt x="194" y="293" on="0"/>
        <pt x="234" y="293" on="1"/>
        <pt x="266" y="293" on="0"/>
        <pt x="320" y="271" on="0"/>
        <pt x="359" y="232" on="0"/>
        <pt x="381" y="178" on="0"/>
        <pt x="381" y="147" on="1"/>
        <pt x="381" y="112" on="0"/>
        <pt x="357" y="56" on="0"/>
        <pt x="315" y="15" on="0"/>
        <pt x="256" y="-7" on="0"/>
        <pt x="221" y="-7" on="1"/>
        <pt x="182" y="-7" on="0"/>
        <pt x="118" y="25" on="0"/>
        <pt x="72" y="84" on="0"/>
        <pt x="46" y="167" on="0"/>
        <pt x="46" y="217" on="1"/>
        <pt x="46" y="280" on="0"/>
        <pt x="87" y="385" on="0"/>
        <pt x="162" y="459" on="0"/>
        <pt x="264" y="500" on="0"/>
        <pt x="326" y="500" on="1"/>
        <pt x="384" y="500" on="0"/>
        <pt x="482" y="461" on="0"/>
        <pt x="554" y="390" on="0"/>
        <pt x="594" y="292" on="0"/>
        <pt x="594" y="233" on="1"/>
        <pt x="594" y="206" on="0"/>
        <pt x="585" y="154" on="0"/>
        <pt x="571" y="109" on="0"/>
        <pt x="554" y="74" on="0"/>
        <pt x="547" y="63" on="1"/>
        <pt x="709" y="63" on="1"/>
        <pt x="709" y="333" on="1"/>
        <pt x="709" y="422" on="0"/>
        <pt x="792" y="500" on="0"/>
      </contour>
      <contour>
        <pt x="219" y="230" on="1"/>
        <pt x="200" y="230" on="0"/>
        <pt x="169" y="217" on="0"/>
        <pt x="143" y="195" on="0"/>
        <pt x="125" y="168" on="0"/>
        <pt x="119" y="153" on="1"/>
        <pt x="128" y="105" on="0"/>
        <pt x="186" y="56" on="0"/>
        <pt x="221" y="56" on="1"/>
        <pt x="260" y="56" on="0"/>
        <pt x="307" y="106" on="0"/>
        <pt x="307" y="144" on="1"/>
        <pt x="307" y="182" on="0"/>
        <pt x="261" y="230" on="0"/>
      </contour>
      <contour>
        <pt x="658" y="703" on="1"/>
        <pt x="683" y="703" on="0"/>
        <pt x="716" y="670" on="0"/>
        <pt x="716" y="647" on="1"/>
        <pt x="716" y="624" on="0"/>
        <pt x="683" y="591" on="0"/>
        <pt x="660" y="591" on="1"/>
        <pt x="635" y="591" on="0"/>
        <pt x="602" y="624" on="0"/>
        <pt x="602" y="647" on="1"/>
        <pt x="602" y="670" on="0"/>
        <pt x="635" y="703" on="0"/>
      </contour>
    </TTGlyph>
    <TTGlyph name="Hbar" xMin="20" yMin="0" xMax="623" yMax="630">
      <contour>
        <pt x="623" y="550" on="1"/>
        <pt x="623" y="488" on="1"/>
        <pt x="563" y="488" on="1"/>
        <pt x="563" y="0" on="1"/>
        <pt x="471" y="0" on="1"/>
        <pt x="471" y="287" on="1"/>
        <pt x="172" y="287" on="1"/>
        <pt x="172" y="0" on="1"/>
        <pt x="80" y="0" on="1"/>
        <pt x="80" y="488" on="1"/>
        <pt x="20" y="488" on="1"/>
        <pt x="20" y="550" on="1"/>
        <pt x="80" y="550" on="1"/>
        <pt x="80" y="630" on="1"/>
        <pt x="172" y="630" on="1"/>
        <pt x="172" y="550" on="1"/>
        <pt x="471" y="550" on="1"/>
        <pt x="471" y="630" on="1"/>
        <pt x="563" y="630" on="1"/>
        <pt x="563" y="550" on="1"/>
      </contour>
      <contour>
        <pt x="471" y="365" on="1"/>
        <pt x="471" y="488" on="1"/>
        <pt x="172" y="488" on="1"/>
        <pt x="172" y="365" on="1"/>
      </contour>
    </TTGlyph>
    <TTGlyph name="Hcircumflex" xMin="80" yMin="0" xMax="563" yMax="844">
      <contour>
        <pt x="80" y="0" on="1"/>
        <pt x="80" y="630" on="1"/>
        <pt x="172" y="630" on="1"/>
        <pt x="172" y="365" on="1"/>
        <pt x="471" y="365" on="1"/>
        <pt x="471" y="630" on="1"/>
        <pt x="563" y="630" on="1"/>
        <pt x="563" y="0" on="1"/>
        <pt x="471" y="0" on="1"/>
        <pt x="471" y="287" on="1"/>
        <pt x="172" y="287" on="1"/>
        <pt x="172" y="0" on="1"/>
      </contour>
      <contour>
        <pt x="289" y="844" on="1"/>
        <pt x="358" y="844" on="1"/>
        <pt x="483" y="710" on="1"/>
        <pt x="403" y="710" on="1"/>
        <pt x="323" y="794" on="1"/>
        <pt x="243" y="710" on="1"/>
        <pt x="167" y="710" on="1"/>
      </contour>
    </TTGlyph>
    <TTGlyph name="Hsmall" xMin="80" yMin="0" xMax="471" yMax="470">
      <contour>
        <pt x="80" y="0" on="1"/>
        <pt x="80" y="470" on="1"/>
        <pt x="165" y="470" on="1"/>
        <pt x="165" y="283" on="1"/>
        <pt x="385" y="283" on="1"/>
        <pt x="385" y="470" on="1"/>
        <pt x="471" y="470" on="1"/>
        <pt x="471" y="0" on="1"/>
        <pt x="385" y="0" on="1"/>
        <pt x="385" y="211" on="1"/>
        <pt x="165" y="211" on="1"/>
        <pt x="165" y="0" on="1"/>
      </contour>
    </TTGlyph>
    <TTGlyph name="Hundred.tm" xMin="69" yMin="0" xMax="771" yMax="500">
      <contour>
        <pt x="771" y="495" on="1"/>
        <pt x="771" y="432" on="1"/>
        <pt x="664" y="432" on="1"/>
        <pt x="664" y="0" on="1"/>
        <pt x="590" y="0" on="1"/>
        <pt x="590" y="432" on="1"/>
        <pt x="384" y="432" on="1"/>
        <pt x="384" y="0" on="1"/>
        <pt x="312" y="0" on="1"/>
        <pt x="312" y="322" on="1"/>
        <pt x="312" y="344" on="0"/>
        <pt x="302" y="384" on="0"/>
        <pt x="281" y="416" on="0"/>
        <pt x="248" y="435" on="0"/>
        <pt x="224" y="435" on="1"/>
        <pt x="182" y="435" on="0"/>
        <pt x="143" y="383" on="0"/>
        <pt x="143" y="335" on="1"/>
        <pt x="143" y="0" on="1"/>
        <pt x="69" y="0" on="1"/>
        <pt x="69" y="332" on="1"/>
        <pt x="69" y="377" on="0"/>
        <pt x="91" y="440" on="0"/>
        <pt x="131" y="481" on="0"/>
        <pt x="184" y="500" on="0"/>
        <pt x="216" y="500" on="1"/>
        <pt x="247" y="500" on="0"/>
        <pt x="302" y="467" on="0"/>
        <pt x="316" y="445" on="1"/>
        <pt x="316" y="495" on="1"/>
      </contour>
    </TTGlyph>
    <TTGlyph name="I" xMin="80" yMin="0" xMax="172" yMax="630">
      <contour>
        <pt x="172" y="630" on="1"/>
        <pt x="172" y="0" on="1"/>
        <pt x="80" y="0" on="1"/>
        <pt x="80" y="630" on="1"/>
      </contour>
    </TTGlyph>
    <TTGlyph name="IJ" xMin="80" yMin="-155" xMax="415" yMax="630">
      <contour>
        <pt x="172" y="630" on="1"/>
        <pt x="172" y="0" on="1"/>
        <pt x="80" y="0" on="1"/>
        <pt x="80" y="630" on="1"/>
      </contour>
      <contour>
        <pt x="415" y="630" on="1"/>
        <pt x="415" y="115" on="1"/>
        <pt x="415" y="45" on="0"/>
        <pt x="402" y="-45" on="0"/>
        <pt x="377" y="-79" on="1"/>
        <pt x="347" y="-121" on="0"/>
        <pt x="251" y="-154" on="0"/>
        <pt x="203" y="-155" on="1"/>
        <pt x="203" y="-80" on="1"/>
        <pt x="262" y="-79" on="0"/>
        <pt x="294" y="-43" on="1"/>
        <pt x="312" y="-23" on="0"/>
        <pt x="323" y="35" on="0"/>
        <pt x="323" y="67" on="1"/>
        <pt x="323" y="630" on="1"/>
      </contour>
    </TTGlyph>
    <TTGlyph name="Iacute" xMin="80" yMin="0" xMax="272" yMax="834">
      <contour>
        <pt x="172" y="630" on="1"/>
        <pt x="172" y="0" on="1"/>
        <pt x="80" y="0" on="1"/>
        <pt x="80" y="630" on="1"/>
      </contour>
      <contour>
        <pt x="161" y="710" on="1"/>
        <pt x="89" y="710" on="1"/>
        <pt x="169" y="834" on="1"/>
        <pt x="272" y="834" on="1"/>
      </contour>
    </TTGlyph>
    <TTGlyph name="Ibreve" xMin="-7" yMin="0" xMax="262" yMax="834">
      <contour>
        <pt x="172" y="630" on="1"/>
        <pt x="172" y="0" on="1"/>
        <pt x="80" y="0" on="1"/>
        <pt x="80" y="630" on="1"/>
      </contour>
      <contour>
        <pt x="56" y="834" on="1"/>
        <pt x="60" y="802" on="0"/>
        <pt x="87" y="764" on="0"/>
        <pt x="128" y="764" on="1"/>
        <pt x="163" y="764" on="0"/>
        <pt x="196" y="800" on="0"/>
        <pt x="200" y="834" on="1"/>
        <pt x="262" y="834" on="1"/>
        <pt x="262" y="780" on="0"/>
        <pt x="193" y="710" on="0"/>
        <pt x="128" y="710" on="1"/>
        <pt x="92" y="710" on="0"/>
        <pt x="41" y="731" on="0"/>
        <pt x="8" y="766" on="0"/>
        <pt x="-7" y="811" on="0"/>
        <pt x="-7" y="834" on="1"/>
      </contour>
    </TTGlyph>
    <TTGlyph name="Icircumflex" xMin="-31" yMin="0" xMax="285" yMax="844">
      <contour>
        <pt x="172" y="630" on="1"/>
        <pt x="172" y="0" on="1"/>
        <pt x="80" y="0" on="1"/>
        <pt x="80" y="630" on="1"/>
      </contour>
      <contour>
        <pt x="91" y="844" on="1"/>
        <pt x="160" y="844" on="1"/>
        <pt x="285" y="710" on="1"/>
        <pt x="205" y="710" on="1"/>
        <pt x="125" y="794" on="1"/>
        <pt x="45" y="710" on="1"/>
        <pt x="-31" y="710" on="1"/>
      </contour>
    </TTGlyph>
    <TTGlyph name="Idieresis" xMin="-9" yMin="0" xMax="257" yMax="810">
      <contour>
        <pt x="172" y="630" on="1"/>
        <pt x="172" y="0" on="1"/>
        <pt x="80" y="0" on="1"/>
        <pt x="80" y="630" on="1"/>
      </contour>
      <contour>
        <pt x="-9" y="761" on="1"/>
        <pt x="-9" y="780" on="0"/>
        <pt x="21" y="810" on="0"/>
        <pt x="41" y="810" on="1"/>
        <pt x="61" y="810" on="0"/>
        <pt x="91" y="780" on="0"/>
        <pt x="91" y="761" on="1"/>
        <pt x="91" y="741" on="0"/>
        <pt x="61" y="710" on="0"/>
        <pt x="41" y="710" on="1"/>
        <pt x="21" y="710" on="0"/>
        <pt x="-9" y="741" on="0"/>
      </contour>
      <contour>
        <pt x="157" y="761" on="1"/>
        <pt x="157" y="780" on="0"/>
        <pt x="187" y="810" on="0"/>
        <pt x="207" y="810" on="1"/>
        <pt x="227" y="810" on="0"/>
        <pt x="257" y="780" on="0"/>
        <pt x="257" y="761" on="1"/>
        <pt x="257" y="741" on="0"/>
        <pt x="227" y="710" on="0"/>
        <pt x="207" y="710" on="1"/>
        <pt x="187" y="710" on="0"/>
        <pt x="157" y="741" on="0"/>
      </contour>
    </TTGlyph>
    <TTGlyph name="Idotaccent" xMin="68" yMin="0" xMax="180" yMax="822">
      <contour>
        <pt x="172" y="630" on="1"/>
        <pt x="172" y="0" on="1"/>
        <pt x="80" y="0" on="1"/>
        <pt x="80" y="630" on="1"/>
      </contour>
      <contour>
        <pt x="68" y="767" on="1"/>
        <pt x="68" y="788" on="0"/>
        <pt x="102" y="822" on="0"/>
        <pt x="124" y="822" on="1"/>
        <pt x="147" y="822" on="0"/>
        <pt x="180" y="788" on="0"/>
        <pt x="180" y="767" on="1"/>
        <pt x="180" y="744" on="0"/>
        <pt x="147" y="710" on="0"/>
        <pt x="124" y="710" on="1"/>
        <pt x="102" y="710" on="0"/>
        <pt x="68" y="744" on="0"/>
      </contour>
    </TTGlyph>
    <TTGlyph name="Igrave" xMin="-21" yMin="0" xMax="172" yMax="834">
      <contour>
        <pt x="172" y="630" on="1"/>
        <pt x="172" y="0" on="1"/>
        <pt x="80" y="0" on="1"/>
        <pt x="80" y="630" on="1"/>
      </contour>
      <contour>
        <pt x="-21" y="834" on="1"/>
        <pt x="82" y="834" on="1"/>
        <pt x="162" y="710" on="1"/>
        <pt x="90" y="710" on="1"/>
      </contour>
    </TTGlyph>
    <TTGlyph name="Imacron" xMin="6" yMin="0" xMax="251" yMax="772">
      <contour>
        <pt x="172" y="630" on="1"/>
        <pt x="172" y="0" on="1"/>
        <pt x="80" y="0" on="1"/>
        <pt x="80" y="630" on="1"/>
      </contour>
      <contour>
        <pt x="251" y="772" on="1"/>
        <pt x="251" y="710" on="1"/>
        <pt x="6" y="710" on="1"/>
        <pt x="6" y="772" on="1"/>
      </contour>
    </TTGlyph>
    <TTGlyph name="Iogonek" xMin="2" yMin="-206" xMax="189" yMax="630">
      <contour>
        <pt x="172" y="0" on="1"/>
        <pt x="127" y="-22" on="0"/>
        <pt x="71" y="-64" on="0"/>
        <pt x="71" y="-95" on="1"/>
        <pt x="71" y="-119" on="0"/>
        <pt x="102" y="-146" on="0"/>
        <pt x="126" y="-146" on="1"/>
        <pt x="155" y="-146" on="0"/>
        <pt x="176" y="-138" on="1"/>
        <pt x="189" y="-185" on="1"/>
        <pt x="154" y="-206" on="0"/>
        <pt x="109" y="-206" on="1"/>
        <pt x="63" y="-206" on="0"/>
        <pt x="2" y="-153" on="0"/>
        <pt x="2" y="-106" on="1"/>
        <pt x="2" y="-87" on="0"/>
        <pt x="15" y="-54" on="0"/>
        <pt x="37" y="-27" on="0"/>
        <pt x="65" y="-7" on="0"/>
        <pt x="80" y="0" on="1"/>
        <pt x="80" y="630" on="1"/>
        <pt x="172" y="630" on="1"/>
      </contour>
    </TTGlyph>
    <TTGlyph name="Ismall" xMin="80" yMin="0" xMax="168" yMax="470">
      <contour>
        <pt x="168" y="470" on="1"/>
        <pt x="168" y="0" on="1"/>
        <pt x="80" y="0" on="1"/>
        <pt x="80" y="470" on="1"/>
      </contour>
    </TTGlyph>
    <TTGlyph name="Itilde" xMin="-33" yMin="0" xMax="270" yMax="824">
      <contour>
        <pt x="172" y="630" on="1"/>
        <pt x="172" y="0" on="1"/>
        <pt x="80" y="0" on="1"/>
        <pt x="80" y="630" on="1"/>
      </contour>
      <contour>
        <pt x="-33" y="711" on="1"/>
        <pt x="-33" y="757" on="0"/>
        <pt x="8" y="821" on="0"/>
        <pt x="54" y="821" on="1"/>
        <pt x="75" y="821" on="0"/>
        <pt x="108" y="807" on="0"/>
        <pt x="137" y="791" on="0"/>
        <pt x="165" y="777" on="0"/>
        <pt x="181" y="777" on="1"/>
        <pt x="201" y="777" on="0"/>
        <pt x="218" y="807" on="0"/>
        <pt x="220" y="824" on="1"/>
        <pt x="270" y="824" on="1"/>
        <pt x="270" y="803" on="0"/>
        <pt x="260" y="764" on="0"/>
        <pt x="239" y="733" on="0"/>
        <pt x="208" y="714" on="0"/>
        <pt x="187" y="714" on="1"/>
        <pt x="166" y="714" on="0"/>
        <pt x="129" y="727" on="0"/>
        <pt x="97" y="744" on="0"/>
        <pt x="69" y="757" on="0"/>
        <pt x="57" y="757" on="1"/>
        <pt x="36" y="757" on="0"/>
        <pt x="19" y="731" on="0"/>
        <pt x="17" y="711" on="1"/>
      </contour>
    </TTGlyph>
    <TTGlyph name="J" xMin="-15" yMin="-155" xMax="197" yMax="630">
      <contour>
        <pt x="197" y="630" on="1"/>
        <pt x="197" y="115" on="1"/>
        <pt x="197" y="45" on="0"/>
        <pt x="184" y="-45" on="0"/>
        <pt x="159" y="-79" on="1"/>
        <pt x="129" y="-121" on="0"/>
        <pt x="33" y="-154" on="0"/>
        <pt x="-15" y="-155" on="1"/>
        <pt x="-15" y="-80" on="1"/>
        <pt x="44" y="-79" on="0"/>
        <pt x="76" y="-43" on="1"/>
        <pt x="94" y="-23" on="0"/>
        <pt x="105" y="35" on="0"/>
        <pt x="105" y="67" on="1"/>
        <pt x="105" y="630" on="1"/>
      </contour>
    </TTGlyph>
    <TTGlyph name="Ja.tm" xMin="44" yMin="-278" xMax="774" yMax="500">
      <contour>
        <pt x="242" y="500" on="1"/>
        <pt x="278" y="500" on="0"/>
        <pt x="338" y="480" on="0"/>
        <pt x="386" y="444" on="0"/>
        <pt x="419" y="396" on="0"/>
        <pt x="427" y="368" on="1"/>
        <pt x="432" y="396" on="0"/>
        <pt x="459" y="444" on="0"/>
        <pt x="500" y="480" on="0"/>
        <pt x="554" y="500" on="0"/>
        <pt x="586" y="500" on="1"/>
        <pt x="627" y="500" on="0"/>
        <pt x="694" y="472" on="0"/>
        <pt x="742" y="423" on="0"/>
        <pt x="768" y="355" on="0"/>
        <pt x="768" y="316" on="1"/>
        <pt x="768" y="264" on="0"/>
        <pt x="732" y="187" on="0"/>
        <pt x="666" y="132" on="0"/>
        <pt x="575" y="95" on="0"/>
        <pt x="520" y="83" on="1"/>
        <pt x="281" y="32" on="1"/>
        <pt x="136" y="1" on="0"/>
        <pt x="136" y="-107" on="1"/>
        <pt x="136" y="-154" on="0"/>
        <pt x="190" y="-211" on="0"/>
        <pt x="235" y="-211" on="1"/>
        <pt x="269" y="-211" on="0"/>
        <pt x="332" y="-175" on="0"/>
        <pt x="364" y="-137" on="1"/>
        <pt x="412" y="-81" on="1"/>
        <pt x="467" y="-16" on="0"/>
        <pt x="562" y="39" on="0"/>
        <pt x="617" y="39" on="1"/>
        <pt x="652" y="39" on="0"/>
        <pt x="710" y="16" on="0"/>
        <pt x="751" y="-26" on="0"/>
        <pt x="774" y="-85" on="0"/>
        <pt x="774" y="-121" on="1"/>
        <pt x="774" y="-192" on="0"/>
        <pt x="687" y="-278" on="0"/>
        <pt x="615" y="-278" on="1"/>
        <pt x="591" y="-278" on="0"/>
        <pt x="552" y="-266" on="0"/>
        <pt x="521" y="-247" on="0"/>
        <pt x="498" y="-225" on="0"/>
        <pt x="491" y="-216" on="1"/>
        <pt x="540" y="-170" on="1"/>
        <pt x="548" y="-181" on="0"/>
        <pt x="586" y="-211" on="0"/>
        <pt x="616" y="-211" on="1"/>
        <pt x="653" y="-211" on="0"/>
        <pt x="697" y="-162" on="0"/>
        <pt x="697" y="-121" on="1"/>
        <pt x="697" y="-79" on="0"/>
        <pt x="651" y="-28" on="0"/>
        <pt x="613" y="-28" on="1"/>
        <pt x="580" y="-28" on="0"/>
        <pt x="520" y="-65" on="0"/>
        <pt x="484" y="-109" on="1"/>
        <pt x="437" y="-166" on="1"/>
        <pt x="389" y="-224" on="0"/>
        <pt x="291" y="-278" on="0"/>
        <pt x="233" y="-278" on="1"/>
        <pt x="194" y="-278" on="0"/>
        <pt x="130" y="-254" on="0"/>
        <pt x="84" y="-209" on="0"/>
        <pt x="59" y="-146" on="0"/>
        <pt x="59" y="-108" on="1"/>
        <pt x="59" y="-27" on="0"/>
        <pt x="161" y="72" on="0"/>
        <pt x="270" y="96" on="1"/>
        <pt x="521" y="152" on="1"/>
        <pt x="602" y="170" on="0"/>
        <pt x="691" y="247" on="0"/>
        <pt x="691" y="314" on="1"/>
        <pt x="691" y="365" on="0"/>
        <pt x="632" y="434" on="0"/>
        <pt x="580" y="434" on="1"/>
        <pt x="532" y="434" on="0"/>
        <pt x="464" y="356" on="0"/>
        <pt x="464" y="277" on="1"/>
        <pt x="464" y="207" on="1"/>
        <pt x="390" y="207" on="1"/>
        <pt x="390" y="270" on="1"/>
        <pt x="390" y="307" on="0"/>
        <pt x="368" y="368" on="0"/>
        <pt x="329" y="411" on="0"/>
        <pt x="274" y="435" on="0"/>
        <pt x="241" y="435" on="1"/>
        <pt x="219" y="435" on="0"/>
        <pt x="177" y="424" on="0"/>
        <pt x="142" y="400" on="0"/>
        <pt x="117" y="362" on="0"/>
        <pt x="112" y="336" on="1"/>
        <pt x="127" y="353" on="0"/>
        <pt x="173" y="376" on="0"/>
        <pt x="202" y="376" on="1"/>
        <pt x="224" y="376" on="0"/>
        <pt x="267" y="361" on="0"/>
        <pt x="299" y="333" on="0"/>
        <pt x="319" y="289" on="0"/>
        <pt x="319" y="261" on="1"/>
        <pt x="319" y="204" on="0"/>
        <pt x="242" y="134" on="0"/>
        <pt x="183" y="134" on="1"/>
        <pt x="156" y="134" on="0"/>
        <pt x="106" y="155" on="0"/>
        <pt x="67" y="195" on="0"/>
        <pt x="44" y="256" on="0"/>
        <pt x="44" y="296" on="1"/>
        <pt x="44" y="346" on="0"/>
        <pt x="76" y="422" on="0"/>
        <pt x="131" y="474" on="0"/>
        <pt x="203" y="500" on="0"/>
      </contour>
      <contour>
        <pt x="184" y="323" on="1"/>
        <pt x="156" y="323" on="0"/>
        <pt x="119" y="288" on="0"/>
        <pt x="111" y="267" on="1"/>
        <pt x="117" y="229" on="0"/>
        <pt x="161" y="196" on="0"/>
        <pt x="184" y="196" on="1"/>
        <pt x="213" y="196" on="0"/>
        <pt x="248" y="231" on="0"/>
        <pt x="248" y="260" on="1"/>
        <pt x="248" y="289" on="0"/>
        <pt x="213" y="323" on="0"/>
      </contour>
    </TTGlyph>
    <TTGlyph name="JaAlt.tm" xMin="48" yMin="-9" xMax="628" yMax="505">
      <contour>
        <pt x="211" y="505" on="1"/>
        <pt x="267" y="505" on="0"/>
        <pt x="338" y="453" on="0"/>
        <pt x="354" y="412" on="1"/>
        <pt x="365" y="454" on="0"/>
        <pt x="435" y="505" on="0"/>
        <pt x="482" y="505" on="1"/>
        <pt x="545" y="505" on="0"/>
        <pt x="622" y="430" on="0"/>
        <pt x="622" y="367" on="1"/>
        <pt x="622" y="319" on="0"/>
        <pt x="572" y="245" on="0"/>
        <pt x="530" y="229" on="1"/>
        <pt x="573" y="221" on="0"/>
        <pt x="628" y="158" on="0"/>
        <pt x="628" y="113" on="1"/>
        <pt x="628" y="56" on="0"/>
        <pt x="552" y="-9" on="0"/>
        <pt x="489" y="-9" on="1"/>
        <pt x="451" y="-9" on="0"/>
        <pt x="392" y="22" on="0"/>
        <pt x="372" y="49" on="1"/>
        <pt x="413" y="90" on="1"/>
        <pt x="428" y="70" on="0"/>
        <pt x="464" y="50" on="0"/>
        <pt x="489" y="50" on="1"/>
        <pt x="521" y="50" on="0"/>
        <pt x="560" y="89" on="0"/>
        <pt x="560" y="123" on="1"/>
        <pt x="560" y="156" on="0"/>
        <pt x="519" y="194" on="0"/>
        <pt x="486" y="194" on="1"/>
        <pt x="460" y="194" on="0"/>
        <pt x="422" y="169" on="0"/>
        <pt x="404" y="149" on="1"/>
        <pt x="338" y="75" on="1"/>
        <pt x="323" y="57" on="0"/>
        <pt x="290" y="27" on="0"/>
        <pt x="253" y="4" on="0"/>
        <pt x="210" y="-9" on="0"/>
        <pt x="183" y="-9" on="1"/>
        <pt x="126" y="-9" on="0"/>
        <pt x="57" y="51" on="0"/>
        <pt x="57" y="100" on="1"/>
        <pt x="57" y="148" on="0"/>
        <pt x="119" y="211" on="0"/>
        <pt x="177" y="216" on="1"/>
        <pt x="397" y="233" on="1"/>
        <pt x="475" y="239" on="0"/>
        <pt x="552" y="311" on="0"/>
        <pt x="552" y="359" on="1"/>
        <pt x="552" y="398" on="0"/>
        <pt x="510" y="443" on="0"/>
        <pt x="473" y="443" on="1"/>
        <pt x="434" y="443" on="0"/>
        <pt x="389" y="390" on="0"/>
        <pt x="389" y="344" on="1"/>
        <pt x="389" y="278" on="1"/>
        <pt x="322" y="278" on="1"/>
        <pt x="322" y="333" on="1"/>
        <pt x="322" y="387" on="0"/>
        <pt x="262" y="450" on="0"/>
        <pt x="209" y="450" on="1"/>
        <pt x="175" y="450" on="0"/>
        <pt x="117" y="422" on="0"/>
        <pt x="106" y="390" on="1"/>
        <pt x="117" y="401" on="0"/>
        <pt x="148" y="416" on="0"/>
        <pt x="168" y="416" on="1"/>
        <pt x="202" y="416" on="0"/>
        <pt x="255" y="374" on="0"/>
        <pt x="255" y="331" on="1"/>
        <pt x="255" y="288" on="0"/>
        <pt x="198" y="236" on="0"/>
        <pt x="154" y="236" on="1"/>
        <pt x="134" y="236" on="0"/>
        <pt x="96" y="251" on="0"/>
        <pt x="66" y="280" on="0"/>
        <pt x="48" y="323" on="0"/>
        <pt x="48" y="352" on="1"/>
        <pt x="48" y="389" on="0"/>
        <pt x="75" y="447" on="0"/>
        <pt x="120" y="485" on="0"/>
        <pt x="179" y="505" on="0"/>
      </contour>
      <contour>
        <pt x="328" y="144" on="1"/>
        <pt x="343" y="159" on="0"/>
        <pt x="361" y="177" on="0"/>
        <pt x="370" y="185" on="1"/>
        <pt x="193" y="166" on="1"/>
        <pt x="160" y="162" on="0"/>
        <pt x="125" y="128" on="0"/>
        <pt x="125" y="102" on="1"/>
        <pt x="125" y="78" on="0"/>
        <pt x="158" y="49" on="0"/>
        <pt x="186" y="49" on="1"/>
        <pt x="212" y="49" on="0"/>
        <pt x="256" y="74" on="0"/>
        <pt x="279" y="96" on="1"/>
      </contour>
      <contour>
        <pt x="153" y="373" on="1"/>
        <pt x="134" y="373" on="0"/>
        <pt x="109" y="351" on="0"/>
        <pt x="103" y="338" on="1"/>
        <pt x="105" y="309" on="0"/>
        <pt x="136" y="286" on="0"/>
        <pt x="153" y="286" on="1"/>
        <pt x="173" y="286" on="0"/>
        <pt x="196" y="312" on="0"/>
        <pt x="196" y="330" on="1"/>
        <pt x="196" y="348" on="0"/>
        <pt x="173" y="373" on="0"/>
      </contour>
    </TTGlyph>
    <TTGlyph name="JaAltMatraI.tm" xMin="48" yMin="-9" xMax="816" yMax="743">
      <contour>
        <pt x="635" y="743" on="1"/>
        <pt x="675" y="743" on="0"/>
        <pt x="742" y="715" on="0"/>
        <pt x="790" y="662" on="0"/>
        <pt x="816" y="584" on="0"/>
        <pt x="816" y="534" on="1"/>
        <pt x="816" y="0" on="1"/>
        <pt x="743" y="0" on="1"/>
        <pt x="743" y="528" on="1"/>
        <pt x="743" y="602" on="0"/>
        <pt x="683" y="678" on="0"/>
        <pt x="631" y="678" on="1"/>
        <pt x="586" y="678" on="0"/>
        <pt x="535" y="624" on="0"/>
        <pt x="535" y="579" on="1"/>
        <pt x="535" y="543" on="0"/>
        <pt x="568" y="479" on="0"/>
        <pt x="595" y="441" on="1"/>
        <pt x="606" y="426" on="0"/>
        <pt x="622" y="387" on="0"/>
        <pt x="622" y="362" on="1"/>
        <pt x="622" y="317" on="0"/>
        <pt x="572" y="245" on="0"/>
        <pt x="530" y="229" on="1"/>
        <pt x="572" y="221" on="0"/>
        <pt x="628" y="158" on="0"/>
        <pt x="628" y="113" on="1"/>
        <pt x="628" y="56" on="0"/>
        <pt x="552" y="-9" on="0"/>
        <pt x="489" y="-9" on="1"/>
        <pt x="451" y="-9" on="0"/>
        <pt x="392" y="22" on="0"/>
        <pt x="372" y="49" on="1"/>
        <pt x="413" y="90" on="1"/>
        <pt x="428" y="70" on="0"/>
        <pt x="464" y="50" on="0"/>
        <pt x="489" y="50" on="1"/>
        <pt x="521" y="50" on="0"/>
        <pt x="560" y="89" on="0"/>
        <pt x="560" y="123" on="1"/>
        <pt x="560" y="156" on="0"/>
        <pt x="519" y="194" on="0"/>
        <pt x="486" y="194" on="1"/>
        <pt x="460" y="194" on="0"/>
        <pt x="422" y="169" on="0"/>
        <pt x="404" y="149" on="1"/>
        <pt x="338" y="75" on="1"/>
        <pt x="323" y="57" on="0"/>
        <pt x="290" y="27" on="0"/>
        <pt x="253" y="4" on="0"/>
        <pt x="210" y="-9" on="0"/>
        <pt x="183" y="-9" on="1"/>
        <pt x="126" y="-9" on="0"/>
        <pt x="57" y="51" on="0"/>
        <pt x="57" y="100" on="1"/>
        <pt x="57" y="148" on="0"/>
        <pt x="119" y="211" on="0"/>
        <pt x="177" y="216" on="1"/>
        <pt x="397" y="233" on="1"/>
        <pt x="475" y="239" on="0"/>
        <pt x="552" y="309" on="0"/>
        <pt x="552" y="357" on="1"/>
        <pt x="552" y="396" on="0"/>
        <pt x="510" y="441" on="0"/>
        <pt x="473" y="441" on="1"/>
        <pt x="434" y="441" on="0"/>
        <pt x="389" y="388" on="0"/>
        <pt x="389" y="342" on="1"/>
        <pt x="389" y="278" on="1"/>
        <pt x="322" y="278" on="1"/>
        <pt x="322" y="333" on="1"/>
        <pt x="322" y="387" on="0"/>
        <pt x="262" y="450" on="0"/>
        <pt x="209" y="450" on="1"/>
        <pt x="175" y="450" on="0"/>
        <pt x="117" y="422" on="0"/>
        <pt x="106" y="390" on="1"/>
        <pt x="117" y="401" on="0"/>
        <pt x="148" y="416" on="0"/>
        <pt x="168" y="416" on="1"/>
        <pt x="202" y="416" on="0"/>
        <pt x="255" y="374" on="0"/>
        <pt x="255" y="331" on="1"/>
        <pt x="255" y="288" on="0"/>
        <pt x="198" y="236" on="0"/>
        <pt x="154" y="236" on="1"/>
        <pt x="134" y="236" on="0"/>
        <pt x="96" y="251" on="0"/>
        <pt x="66" y="280" on="0"/>
        <pt x="48" y="323" on="0"/>
        <pt x="48" y="352" on="1"/>
        <pt x="48" y="389" on="0"/>
        <pt x="75" y="447" on="0"/>
        <pt x="120" y="485" on="0"/>
        <pt x="179" y="505" on="0"/>
        <pt x="211" y="505" on="1"/>
        <pt x="267" y="505" on="0"/>
        <pt x="338" y="453" on="0"/>
        <pt x="354" y="412" on="1"/>
        <pt x="365" y="450" on="0"/>
        <pt x="435" y="496" on="0"/>
        <pt x="482" y="496" on="1"/>
        <pt x="489" y="496" on="1"/>
        <pt x="477" y="513" on="0"/>
        <pt x="463" y="558" on="0"/>
        <pt x="463" y="584" on="1"/>
        <pt x="463" y="617" on="0"/>
        <pt x="487" y="675" on="0"/>
        <pt x="531" y="718" on="0"/>
        <pt x="595" y="743" on="0"/>
      </contour>
      <contour>
        <pt x="328" y="144" on="1"/>
        <pt x="343" y="159" on="0"/>
        <pt x="361" y="177" on="0"/>
        <pt x="370" y="185" on="1"/>
        <pt x="193" y="166" on="1"/>
        <pt x="160" y="162" on="0"/>
        <pt x="125" y="128" on="0"/>
        <pt x="125" y="102" on="1"/>
        <pt x="125" y="78" on="0"/>
        <pt x="158" y="49" on="0"/>
        <pt x="186" y="49" on="1"/>
        <pt x="212" y="49" on="0"/>
        <pt x="256" y="74" on="0"/>
        <pt x="279" y="96" on="1"/>
      </contour>
      <contour>
        <pt x="153" y="373" on="1"/>
        <pt x="134" y="373" on="0"/>
        <pt x="109" y="351" on="0"/>
        <pt x="103" y="338" on="1"/>
        <pt x="105" y="309" on="0"/>
        <pt x="136" y="286" on="0"/>
        <pt x="153" y="286" on="1"/>
        <pt x="173" y="286" on="0"/>
        <pt x="196" y="312" on="0"/>
        <pt x="196" y="330" on="1"/>
        <pt x="196" y="348" on="0"/>
        <pt x="173" y="373" on="0"/>
      </contour>
    </TTGlyph>
    <TTGlyph name="JaAltMatraIi.tm" xMin="48" yMin="-9" xMax="775" yMax="796">
      <contour>
        <pt x="617" y="796" on="1"/>
        <pt x="656" y="796" on="0"/>
        <pt x="716" y="777" on="0"/>
        <pt x="755" y="745" on="0"/>
        <pt x="775" y="704" on="0"/>
        <pt x="775" y="682" on="1"/>
        <pt x="775" y="657" on="0"/>
        <pt x="756" y="617" on="0"/>
        <pt x="725" y="589" on="0"/>
        <pt x="682" y="574" on="0"/>
        <pt x="658" y="574" on="1"/>
        <pt x="611" y="574" on="0"/>
        <pt x="549" y="630" on="0"/>
        <pt x="549" y="673" on="1"/>
        <pt x="549" y="716" on="0"/>
        <pt x="580" y="744" on="1"/>
        <pt x="537" y="736" on="0"/>
        <pt x="483" y="667" on="0"/>
        <pt x="483" y="615" on="1"/>
        <pt x="483" y="570" on="0"/>
        <pt x="536" y="499" on="0"/>
        <pt x="574" y="463" on="1"/>
        <pt x="597" y="440" on="0"/>
        <pt x="622" y="395" on="0"/>
        <pt x="622" y="362" on="1"/>
        <pt x="622" y="317" on="0"/>
        <pt x="572" y="245" on="0"/>
        <pt x="530" y="229" on="1"/>
        <pt x="572" y="221" on="0"/>
        <pt x="628" y="158" on="0"/>
        <pt x="628" y="113" on="1"/>
        <pt x="628" y="56" on="0"/>
        <pt x="552" y="-9" on="0"/>
        <pt x="489" y="-9" on="1"/>
        <pt x="451" y="-9" on="0"/>
        <pt x="392" y="22" on="0"/>
        <pt x="372" y="49" on="1"/>
        <pt x="413" y="90" on="1"/>
        <pt x="428" y="70" on="0"/>
        <pt x="464" y="50" on="0"/>
        <pt x="489" y="50" on="1"/>
        <pt x="521" y="50" on="0"/>
        <pt x="560" y="89" on="0"/>
        <pt x="560" y="123" on="1"/>
        <pt x="560" y="156" on="0"/>
        <pt x="519" y="194" on="0"/>
        <pt x="486" y="194" on="1"/>
        <pt x="460" y="194" on="0"/>
        <pt x="422" y="169" on="0"/>
        <pt x="404" y="149" on="1"/>
        <pt x="338" y="75" on="1"/>
        <pt x="323" y="57" on="0"/>
        <pt x="290" y="27" on="0"/>
        <pt x="253" y="4" on="0"/>
        <pt x="210" y="-9" on="0"/>
        <pt x="183" y="-9" on="1"/>
        <pt x="126" y="-9" on="0"/>
        <pt x="57" y="51" on="0"/>
        <pt x="57" y="100" on="1"/>
        <pt x="57" y="148" on="0"/>
        <pt x="119" y="211" on="0"/>
        <pt x="177" y="216" on="1"/>
        <pt x="397" y="233" on="1"/>
        <pt x="475" y="239" on="0"/>
        <pt x="552" y="309" on="0"/>
        <pt x="552" y="357" on="1"/>
        <pt x="552" y="396" on="0"/>
        <pt x="510" y="441" on="0"/>
        <pt x="473" y="441" on="1"/>
        <pt x="434" y="441" on="0"/>
        <pt x="389" y="388" on="0"/>
        <pt x="389" y="342" on="1"/>
        <pt x="389" y="278" on="1"/>
        <pt x="322" y="278" on="1"/>
        <pt x="322" y="333" on="1"/>
        <pt x="322" y="387" on="0"/>
        <pt x="262" y="450" on="0"/>
        <pt x="209" y="450" on="1"/>
        <pt x="175" y="450" on="0"/>
        <pt x="117" y="422" on="0"/>
        <pt x="106" y="390" on="1"/>
        <pt x="117" y="401" on="0"/>
        <pt x="148" y="416" on="0"/>
        <pt x="168" y="416" on="1"/>
        <pt x="202" y="416" on="0"/>
        <pt x="255" y="374" on="0"/>
        <pt x="255" y="331" on="1"/>
        <pt x="255" y="288" on="0"/>
        <pt x="198" y="236" on="0"/>
        <pt x="154" y="236" on="1"/>
        <pt x="134" y="236" on="0"/>
        <pt x="96" y="251" on="0"/>
        <pt x="66" y="280" on="0"/>
        <pt x="48" y="323" on="0"/>
        <pt x="48" y="352" on="1"/>
        <pt x="48" y="389" on="0"/>
        <pt x="75" y="447" on="0"/>
        <pt x="120" y="485" on="0"/>
        <pt x="179" y="505" on="0"/>
        <pt x="211" y="505" on="1"/>
        <pt x="267" y="505" on="0"/>
        <pt x="338" y="453" on="0"/>
        <pt x="354" y="412" on="1"/>
        <pt x="364" y="446" on="0"/>
        <pt x="422" y="490" on="0"/>
        <pt x="461" y="495" on="1"/>
        <pt x="438" y="518" on="0"/>
        <pt x="411" y="583" on="0"/>
        <pt x="411" y="617" on="1"/>
        <pt x="411" y="661" on="0"/>
        <pt x="445" y="728" on="0"/>
        <pt x="502" y="773" on="0"/>
        <pt x="576" y="796" on="0"/>
      </contour>
      <contour>
        <pt x="328" y="144" on="1"/>
        <pt x="343" y="159" on="0"/>
        <pt x="361" y="177" on="0"/>
        <pt x="370" y="185" on="1"/>
        <pt x="193" y="166" on="1"/>
        <pt x="160" y="162" on="0"/>
        <pt x="125" y="128" on="0"/>
        <pt x="125" y="102" on="1"/>
        <pt x="125" y="78" on="0"/>
        <pt x="158" y="49" on="0"/>
        <pt x="186" y="49" on="1"/>
        <pt x="212" y="49" on="0"/>
        <pt x="256" y="74" on="0"/>
        <pt x="279" y="96" on="1"/>
      </contour>
      <contour>
        <pt x="711" y="683" on="1"/>
        <pt x="711" y="710" on="0"/>
        <pt x="674" y="742" on="0"/>
        <pt x="649" y="744" on="1"/>
        <pt x="631" y="736" on="0"/>
        <pt x="608" y="703" on="0"/>
        <pt x="608" y="682" on="1"/>
        <pt x="608" y="658" on="0"/>
        <pt x="638" y="630" on="0"/>
        <pt x="660" y="630" on="1"/>
        <pt x="681" y="630" on="0"/>
        <pt x="711" y="657" on="0"/>
      </contour>
      <contour>
        <pt x="153" y="373" on="1"/>
        <pt x="134" y="373" on="0"/>
        <pt x="109" y="351" on="0"/>
        <pt x="103" y="338" on="1"/>
        <pt x="105" y="309" on="0"/>
        <pt x="136" y="286" on="0"/>
        <pt x="153" y="286" on="1"/>
        <pt x="173" y="286" on="0"/>
        <pt x="196" y="312" on="0"/>
        <pt x="196" y="330" on="1"/>
        <pt x="196" y="348" on="0"/>
        <pt x="173" y="373" on="0"/>
      </contour>
    </TTGlyph>
    <TTGlyph name="JaAltMatraU.tm" xMin="48" yMin="-9" xMax="971" yMax="505">
      <contour>
        <pt x="211" y="505" on="1"/>
        <pt x="267" y="505" on="0"/>
        <pt x="338" y="453" on="0"/>
        <pt x="354" y="412" on="1"/>
        <pt x="365" y="450" on="0"/>
        <pt x="435" y="495" on="0"/>
        <pt x="482" y="495" on="1"/>
        <pt x="801" y="495" on="1"/>
        <pt x="882" y="495" on="0"/>
        <pt x="971" y="423" on="0"/>
        <pt x="971" y="364" on="1"/>
        <pt x="971" y="341" on="0"/>
        <pt x="954" y="298" on="0"/>
        <pt x="922" y="266" on="0"/>
        <pt x="876" y="247" on="0"/>
        <pt x="846" y="247" on="1"/>
        <pt x="819" y="247" on="0"/>
        <pt x="774" y="264" on="0"/>
        <pt x="742" y="294" on="0"/>
        <pt x="724" y="333" on="0"/>
        <pt x="724" y="354" on="1"/>
        <pt x="724" y="382" on="0"/>
        <pt x="745" y="424" on="0"/>
        <pt x="763" y="438" on="1"/>
        <pt x="594" y="438" on="1"/>
        <pt x="607" y="423" on="0"/>
        <pt x="622" y="384" on="0"/>
        <pt x="622" y="362" on="1"/>
        <pt x="622" y="317" on="0"/>
        <pt x="572" y="245" on="0"/>
        <pt x="530" y="229" on="1"/>
        <pt x="572" y="221" on="0"/>
        <pt x="628" y="158" on="0"/>
        <pt x="628" y="113" on="1"/>
        <pt x="628" y="56" on="0"/>
        <pt x="552" y="-9" on="0"/>
        <pt x="489" y="-9" on="1"/>
        <pt x="451" y="-9" on="0"/>
        <pt x="392" y="22" on="0"/>
        <pt x="372" y="49" on="1"/>
        <pt x="413" y="90" on="1"/>
        <pt x="428" y="70" on="0"/>
        <pt x="464" y="50" on="0"/>
        <pt x="489" y="50" on="1"/>
        <pt x="521" y="50" on="0"/>
        <pt x="560" y="89" on="0"/>
        <pt x="560" y="123" on="1"/>
        <pt x="560" y="156" on="0"/>
        <pt x="519" y="194" on="0"/>
        <pt x="486" y="194" on="1"/>
        <pt x="460" y="194" on="0"/>
        <pt x="422" y="169" on="0"/>
        <pt x="404" y="149" on="1"/>
        <pt x="338" y="75" on="1"/>
        <pt x="323" y="57" on="0"/>
        <pt x="290" y="27" on="0"/>
        <pt x="253" y="4" on="0"/>
        <pt x="210" y="-9" on="0"/>
        <pt x="183" y="-9" on="1"/>
        <pt x="126" y="-9" on="0"/>
        <pt x="57" y="51" on="0"/>
        <pt x="57" y="100" on="1"/>
        <pt x="57" y="148" on="0"/>
        <pt x="119" y="211" on="0"/>
        <pt x="177" y="216" on="1"/>
        <pt x="397" y="233" on="1"/>
        <pt x="475" y="239" on="0"/>
        <pt x="554" y="309" on="0"/>
        <pt x="554" y="357" on="1"/>
        <pt x="554" y="395" on="0"/>
        <pt x="511" y="438" on="0"/>
        <pt x="473" y="438" on="1"/>
        <pt x="434" y="438" on="0"/>
        <pt x="389" y="387" on="0"/>
        <pt x="389" y="342" on="1"/>
        <pt x="389" y="278" on="1"/>
        <pt x="322" y="278" on="1"/>
        <pt x="322" y="333" on="1"/>
        <pt x="322" y="387" on="0"/>
        <pt x="262" y="450" on="0"/>
        <pt x="209" y="450" on="1"/>
        <pt x="175" y="450" on="0"/>
        <pt x="117" y="422" on="0"/>
        <pt x="106" y="390" on="1"/>
        <pt x="117" y="401" on="0"/>
        <pt x="148" y="416" on="0"/>
        <pt x="168" y="416" on="1"/>
        <pt x="202" y="416" on="0"/>
        <pt x="255" y="374" on="0"/>
        <pt x="255" y="331" on="1"/>
        <pt x="255" y="288" on="0"/>
        <pt x="198" y="236" on="0"/>
        <pt x="154" y="236" on="1"/>
        <pt x="134" y="236" on="0"/>
        <pt x="96" y="251" on="0"/>
        <pt x="66" y="280" on="0"/>
        <pt x="48" y="323" on="0"/>
        <pt x="48" y="352" on="1"/>
        <pt x="48" y="389" on="0"/>
        <pt x="75" y="447" on="0"/>
        <pt x="120" y="485" on="0"/>
        <pt x="179" y="505" on="0"/>
      </contour>
      <contour>
        <pt x="328" y="144" on="1"/>
        <pt x="343" y="159" on="0"/>
        <pt x="361" y="177" on="0"/>
        <pt x="370" y="185" on="1"/>
        <pt x="193" y="166" on="1"/>
        <pt x="160" y="162" on="0"/>
        <pt x="125" y="128" on="0"/>
        <pt x="125" y="102" on="1"/>
        <pt x="125" y="78" on="0"/>
        <pt x="158" y="49" on="0"/>
        <pt x="186" y="49" on="1"/>
        <pt x="212" y="49" on="0"/>
        <pt x="256" y="74" on="0"/>
        <pt x="279" y="96" on="1"/>
      </contour>
      <contour>
        <pt x="904" y="364" on="1"/>
        <pt x="904" y="395" on="0"/>
        <pt x="867" y="429" on="0"/>
        <pt x="841" y="433" on="1"/>
        <pt x="816" y="424" on="0"/>
        <pt x="790" y="385" on="0"/>
        <pt x="790" y="362" on="1"/>
        <pt x="790" y="336" on="0"/>
        <pt x="824" y="305" on="0"/>
        <pt x="848" y="305" on="1"/>
        <pt x="871" y="305" on="0"/>
        <pt x="904" y="336" on="0"/>
      </contour>
      <contour>
        <pt x="153" y="373" on="1"/>
        <pt x="134" y="373" on="0"/>
        <pt x="109" y="351" on="0"/>
        <pt x="103" y="338" on="1"/>
        <pt x="105" y="309" on="0"/>
        <pt x="136" y="286" on="0"/>
        <pt x="153" y="286" on="1"/>
        <pt x="173" y="286" on="0"/>
        <pt x="196" y="312" on="0"/>
        <pt x="196" y="330" on="1"/>
        <pt x="196" y="348" on="0"/>
        <pt x="173" y="373" on="0"/>
      </contour>
    </TTGlyph>
    <TTGlyph name="JaAltMatraUu.tm" xMin="48" yMin="-9" xMax="1139" yMax="626">
      <contour>
        <pt x="915" y="626" on="1"/>
        <pt x="965" y="626" on="0"/>
        <pt x="1048" y="595" on="0"/>
        <pt x="1107" y="537" on="0"/>
        <pt x="1139" y="456" on="0"/>
        <pt x="1139" y="407" on="1"/>
        <pt x="1139" y="326" on="0"/>
        <pt x="1052" y="204" on="0"/>
        <pt x="979" y="173" on="1"/>
        <pt x="948" y="229" on="1"/>
        <pt x="1002" y="255" on="0"/>
        <pt x="1065" y="349" on="0"/>
        <pt x="1065" y="407" on="1"/>
        <pt x="1065" y="482" on="0"/>
        <pt x="983" y="566" on="0"/>
        <pt x="910" y="566" on="1"/>
        <pt x="865" y="566" on="0"/>
        <pt x="794" y="526" on="0"/>
        <pt x="778" y="494" on="1"/>
        <pt x="782" y="494" on="1"/>
        <pt x="857" y="494" on="0"/>
        <pt x="932" y="425" on="0"/>
        <pt x="932" y="374" on="1"/>
        <pt x="932" y="327" on="0"/>
        <pt x="864" y="262" on="0"/>
        <pt x="810" y="262" on="1"/>
        <pt x="781" y="262" on="0"/>
        <pt x="735" y="284" on="0"/>
        <pt x="703" y="322" on="0"/>
        <pt x="687" y="371" on="0"/>
        <pt x="687" y="397" on="1"/>
        <pt x="687" y="417" on="0"/>
        <pt x="690" y="435" on="1"/>
        <pt x="564" y="435" on="1"/>
        <pt x="576" y="420" on="0"/>
        <pt x="590" y="381" on="0"/>
        <pt x="590" y="355" on="1"/>
        <pt x="590" y="313" on="0"/>
        <pt x="543" y="244" on="0"/>
        <pt x="507" y="229" on="1"/>
        <pt x="547" y="221" on="0"/>
        <pt x="598" y="158" on="0"/>
        <pt x="598" y="113" on="1"/>
        <pt x="598" y="56" on="0"/>
        <pt x="528" y="-9" on="0"/>
        <pt x="468" y="-9" on="1"/>
        <pt x="433" y="-9" on="0"/>
        <pt x="376" y="19" on="0"/>
        <pt x="357" y="43" on="1"/>
        <pt x="397" y="84" on="1"/>
        <pt x="411" y="67" on="0"/>
        <pt x="445" y="49" on="0"/>
        <pt x="468" y="49" on="1"/>
        <pt x="497" y="49" on="0"/>
        <pt x="531" y="89" on="0"/>
        <pt x="531" y="124" on="1"/>
        <pt x="531" y="157" on="0"/>
        <pt x="495" y="197" on="0"/>
        <pt x="466" y="197" on="1"/>
        <pt x="443" y="197" on="0"/>
        <pt x="410" y="171" on="0"/>
        <pt x="393" y="151" on="1"/>
        <pt x="328" y="73" on="1"/>
        <pt x="298" y="38" on="0"/>
        <pt x="230" y="-9" on="0"/>
        <pt x="178" y="-9" on="1"/>
        <pt x="124" y="-9" on="0"/>
        <pt x="57" y="51" on="0"/>
        <pt x="57" y="100" on="1"/>
        <pt x="57" y="148" on="0"/>
        <pt x="119" y="212" on="0"/>
        <pt x="177" y="216" on="1"/>
        <pt x="386" y="230" on="1"/>
        <pt x="455" y="235" on="0"/>
        <pt x="523" y="308" on="0"/>
        <pt x="523" y="356" on="1"/>
        <pt x="523" y="394" on="0"/>
        <pt x="485" y="438" on="0"/>
        <pt x="453" y="438" on="1"/>
        <pt x="418" y="438" on="0"/>
        <pt x="378" y="391" on="0"/>
        <pt x="378" y="349" on="1"/>
        <pt x="378" y="278" on="1"/>
        <pt x="312" y="278" on="1"/>
        <pt x="312" y="338" on="1"/>
        <pt x="312" y="390" on="0"/>
        <pt x="255" y="451" on="0"/>
        <pt x="204" y="451" on="1"/>
        <pt x="171" y="451" on="0"/>
        <pt x="116" y="422" on="0"/>
        <pt x="105" y="389" on="1"/>
        <pt x="116" y="401" on="0"/>
        <pt x="148" y="416" on="0"/>
        <pt x="168" y="416" on="1"/>
        <pt x="202" y="416" on="0"/>
        <pt x="255" y="374" on="0"/>
        <pt x="255" y="331" on="1"/>
        <pt x="255" y="288" on="0"/>
        <pt x="198" y="236" on="0"/>
        <pt x="154" y="236" on="1"/>
        <pt x="134" y="236" on="0"/>
        <pt x="96" y="251" on="0"/>
        <pt x="66" y="280" on="0"/>
        <pt x="48" y="323" on="0"/>
        <pt x="48" y="352" on="1"/>
        <pt x="48" y="389" on="0"/>
        <pt x="74" y="447" on="0"/>
        <pt x="118" y="485" on="0"/>
        <pt x="175" y="505" on="0"/>
        <pt x="206" y="505" on="1"/>
        <pt x="260" y="505" on="0"/>
        <pt x="329" y="453" on="0"/>
        <pt x="344" y="412" on="1"/>
        <pt x="355" y="450" on="0"/>
        <pt x="419" y="495" on="0"/>
        <pt x="462" y="495" on="1"/>
        <pt x="707" y="495" on="1"/>
        <pt x="716" y="517" on="0"/>
        <pt x="750" y="564" on="0"/>
        <pt x="803" y="602" on="0"/>
        <pt x="872" y="626" on="0"/>
      </contour>
      <contour>
        <pt x="318" y="144" on="1"/>
        <pt x="332" y="160" on="0"/>
        <pt x="350" y="177" on="0"/>
        <pt x="360" y="185" on="1"/>
        <pt x="193" y="167" on="1"/>
        <pt x="159" y="163" on="0"/>
        <pt x="124" y="128" on="0"/>
        <pt x="124" y="100" on="1"/>
        <pt x="124" y="76" on="0"/>
        <pt x="156" y="48" on="0"/>
        <pt x="182" y="48" on="1"/>
        <pt x="227" y="48" on="0"/>
        <pt x="270" y="94" on="1"/>
      </contour>
      <contour>
        <pt x="758" y="433" on="1"/>
        <pt x="753" y="415" on="0"/>
        <pt x="753" y="394" on="1"/>
        <pt x="753" y="361" on="0"/>
        <pt x="785" y="320" on="0"/>
        <pt x="814" y="320" on="1"/>
        <pt x="839" y="320" on="0"/>
        <pt x="866" y="350" on="0"/>
        <pt x="866" y="373" on="1"/>
        <pt x="866" y="403" on="0"/>
        <pt x="821" y="433" on="0"/>
        <pt x="780" y="433" on="1"/>
      </contour>
      <contour>
        <pt x="153" y="373" on="1"/>
        <pt x="134" y="373" on="0"/>
        <pt x="109" y="351" on="0"/>
        <pt x="103" y="338" on="1"/>
        <pt x="105" y="309" on="0"/>
        <pt x="136" y="286" on="0"/>
        <pt x="153" y="286" on="1"/>
        <pt x="173" y="286" on="0"/>
        <pt x="196" y="312" on="0"/>
        <pt x="196" y="330" on="1"/>
        <pt x="196" y="348" on="0"/>
        <pt x="173" y="373" on="0"/>
      </contour>
    </TTGlyph>
    <TTGlyph name="JaAltPulli.tm" xMin="48" yMin="-9" xMax="628" yMax="703">
      <contour>
        <pt x="211" y="505" on="1"/>
        <pt x="267" y="505" on="0"/>
        <pt x="338" y="453" on="0"/>
        <pt x="354" y="412" on="1"/>
        <pt x="365" y="454" on="0"/>
        <pt x="435" y="505" on="0"/>
        <pt x="482" y="505" on="1"/>
        <pt x="545" y="505" on="0"/>
        <pt x="622" y="430" on="0"/>
        <pt x="622" y="367" on="1"/>
        <pt x="622" y="319" on="0"/>
        <pt x="572" y="245" on="0"/>
        <pt x="530" y="229" on="1"/>
        <pt x="573" y="221" on="0"/>
        <pt x="628" y="158" on="0"/>
        <pt x="628" y="113" on="1"/>
        <pt x="628" y="56" on="0"/>
        <pt x="552" y="-9" on="0"/>
        <pt x="489" y="-9" on="1"/>
        <pt x="451" y="-9" on="0"/>
        <pt x="392" y="22" on="0"/>
        <pt x="372" y="49" on="1"/>
        <pt x="413" y="90" on="1"/>
        <pt x="428" y="70" on="0"/>
        <pt x="464" y="50" on="0"/>
        <pt x="489" y="50" on="1"/>
        <pt x="521" y="50" on="0"/>
        <pt x="560" y="89" on="0"/>
        <pt x="560" y="123" on="1"/>
        <pt x="560" y="156" on="0"/>
        <pt x="519" y="194" on="0"/>
        <pt x="486" y="194" on="1"/>
        <pt x="460" y="194" on="0"/>
        <pt x="422" y="169" on="0"/>
        <pt x="404" y="149" on="1"/>
        <pt x="338" y="75" on="1"/>
        <pt x="323" y="57" on="0"/>
        <pt x="290" y="27" on="0"/>
        <pt x="253" y="4" on="0"/>
        <pt x="210" y="-9" on="0"/>
        <pt x="183" y="-9" on="1"/>
        <pt x="126" y="-9" on="0"/>
        <pt x="57" y="51" on="0"/>
        <pt x="57" y="100" on="1"/>
        <pt x="57" y="148" on="0"/>
        <pt x="119" y="211" on="0"/>
        <pt x="177" y="216" on="1"/>
        <pt x="397" y="233" on="1"/>
        <pt x="475" y="239" on="0"/>
        <pt x="552" y="311" on="0"/>
        <pt x="552" y="359" on="1"/>
        <pt x="552" y="398" on="0"/>
        <pt x="510" y="443" on="0"/>
        <pt x="473" y="443" on="1"/>
        <pt x="434" y="443" on="0"/>
        <pt x="389" y="390" on="0"/>
        <pt x="389" y="344" on="1"/>
        <pt x="389" y="278" on="1"/>
        <pt x="322" y="278" on="1"/>
        <pt x="322" y="333" on="1"/>
        <pt x="322" y="387" on="0"/>
        <pt x="262" y="450" on="0"/>
        <pt x="209" y="450" on="1"/>
        <pt x="175" y="450" on="0"/>
        <pt x="117" y="422" on="0"/>
        <pt x="106" y="390" on="1"/>
        <pt x="117" y="401" on="0"/>
        <pt x="148" y="416" on="0"/>
        <pt x="168" y="416" on="1"/>
        <pt x="202" y="416" on="0"/>
        <pt x="255" y="374" on="0"/>
        <pt x="255" y="331" on="1"/>
        <pt x="255" y="288" on="0"/>
        <pt x="198" y="236" on="0"/>
        <pt x="154" y="236" on="1"/>
        <pt x="134" y="236" on="0"/>
        <pt x="96" y="251" on="0"/>
        <pt x="66" y="280" on="0"/>
        <pt x="48" y="323" on="0"/>
        <pt x="48" y="352" on="1"/>
        <pt x="48" y="389" on="0"/>
        <pt x="75" y="447" on="0"/>
        <pt x="120" y="485" on="0"/>
        <pt x="179" y="505" on="0"/>
      </contour>
      <contour>
        <pt x="328" y="144" on="1"/>
        <pt x="343" y="159" on="0"/>
        <pt x="361" y="177" on="0"/>
        <pt x="370" y="185" on="1"/>
        <pt x="193" y="166" on="1"/>
        <pt x="160" y="162" on="0"/>
        <pt x="125" y="128" on="0"/>
        <pt x="125" y="102" on="1"/>
        <pt x="125" y="78" on="0"/>
        <pt x="158" y="49" on="0"/>
        <pt x="186" y="49" on="1"/>
        <pt x="212" y="49" on="0"/>
        <pt x="256" y="74" on="0"/>
        <pt x="279" y="96" on="1"/>
      </contour>
      <contour>
        <pt x="327" y="703" on="1"/>
        <pt x="352" y="703" on="0"/>
        <pt x="385" y="670" on="0"/>
        <pt x="385" y="647" on="1"/>
        <pt x="385" y="624" on="0"/>
        <pt x="352" y="591" on="0"/>
        <pt x="329" y="591" on="1"/>
        <pt x="304" y="591" on="0"/>
        <pt x="271" y="624" on="0"/>
        <pt x="271" y="647" on="1"/>
        <pt x="271" y="670" on="0"/>
        <pt x="304" y="703" on="0"/>
      </contour>
      <contour>
        <pt x="153" y="373" on="1"/>
        <pt x="134" y="373" on="0"/>
        <pt x="109" y="351" on="0"/>
        <pt x="103" y="338" on="1"/>
        <pt x="105" y="309" on="0"/>
        <pt x="136" y="286" on="0"/>
        <pt x="153" y="286" on="1"/>
        <pt x="173" y="286" on="0"/>
        <pt x="196" y="312" on="0"/>
        <pt x="196" y="330" on="1"/>
        <pt x="196" y="348" on="0"/>
        <pt x="173" y="373" on="0"/>
      </contour>
    </TTGlyph>
</ttFont>
